<svg xmlns="http://www.w3.org/2000/svg" width="18.7" height="18.7" viewBox="0 0 18.7 18.7">
  <g id="Group_279" data-name="Group 279" transform="translate(-57 -941.3)">
    <g id="Ellipse_59" data-name="Ellipse 59" transform="translate(57 941.3)" fill="#fff" stroke="#111" stroke-width="1.2">
      <circle cx="9.35" cy="9.35" r="9.35" stroke="none"/>
      <circle cx="9.35" cy="9.35" r="8.75" fill="none"/>
    </g>
    <path id="Path_164" data-name="Path 164" d="M-3.887-.919V-2.04h1.239l-.276-1.076h-.962v-1.12h.676L-3.6-5.758h1.614l.3,1.521H-.047L.22-5.758h1.6L2.1-4.236H3.8L4.1-5.758H5.649L5.264-4.236h.671v1.12H4.978L4.706-2.04H5.935v1.12H4.425L3.6,2.338H2.15L1.562-.919H.467L-.121,2.338H-1.532L-2.362-.919ZM2.505-2.04h.849l.217-1.076H2.308Zm-3.751,0h.819l.188-1.076H-1.458Zm1.915,0H1.36L1.168-3.116H.862ZM2.91.168,3.127-.919h-.42Zm-3.722,0L-.624-.919h-.4Z" transform="translate(65.264 953.022)" fill="#111"/>
  </g>
</svg>
