<svg xmlns="http://www.w3.org/2000/svg" width="76.614" height="70.192" viewBox="0 0 76.614 70.192">
  <g id="Group_411" data-name="Group 411" transform="translate(-1552.175 1104.788)">
    <path id="Path_40" data-name="Path 40" d="M-1437.881,2265.948c-19.618-3.5-19.9-30.642-9.642-46.389,4.486-6.889,20.584-24.164,38.781-16.583,11.893,4.954,26.388,13.129,28.8,27.336s-1.256,30.172-10.471,35.636C-1401.721,2272.655-1421.682,2269.066-1437.881,2265.948Z" transform="translate(3007.218 -3305.09)" fill="#fff" stroke="#111" stroke-width="1.5"/>
    <g id="Group_97" data-name="Group 97" transform="translate(1563.337 -1090.04)">
      <circle id="Ellipse_5" data-name="Ellipse 5" cx="1.226" cy="1.226" r="1.226" transform="translate(12 11.431)" fill="#111"/>
      <path id="Path_49" data-name="Path 49" d="M2494.153,1199.272c-4.763.327-5.758-7.485-7.576-10.5s-4.138-3.909-6.553-3.854c-2.743.058-5.493,2.509-5.991,4.268-1.277,3.98-.593,14.086,0,20.108s3.659,10.44,7.954,12.776,12.639,3.575,17.5,2.775a16.71,16.71,0,0,0,10.753-7.3c1.767-2.914,2.928-9.862,3.476-10.263s3.635,1.041,5.829-2.031,2.174-4.451,1.662-4.684-6.09-.175-6.368-.664,3.029.292,4.706-2.666,1.616-3.829,1.295-4.094-6.547.008-6.761-.664,3.281-.035,5.466-2.627,2.1-4.292,1.662-4.543a28.815,28.815,0,0,0-11.857.1c-4.968,1.3-6.184,3.589-7.261,4.98S2498.916,1198.945,2494.153,1199.272Z" transform="translate(-2467.165 -1179.387)" fill="none" stroke="#111" stroke-width="1.5"/>
      <path id="Path_50" data-name="Path 50" d="M2470.749,1192s-6.5,2.3-6.591,2.683,5.877,2.927,5.877,2.927.052-1.525.23-2.927S2470.749,1192,2470.749,1192Z" transform="translate(-2464.088 -1181.83)" fill="none" stroke="#111" stroke-width="1.5"/>
      <path id="Path_51" data-name="Path 51" d="M2480.762,1182.383a9.69,9.69,0,0,1,1.5-3.818,4.893,4.893,0,0,1,2.936-1.778,39.278,39.278,0,0,1,5.828,0,5.078,5.078,0,0,1-1.256,3.6,10.406,10.406,0,0,1-3.68,2.468,8.857,8.857,0,0,0-2.558-.712A9.792,9.792,0,0,0,2480.762,1182.383Z" transform="translate(-2469.671 -1176.678)" fill="none" stroke="#111" stroke-width="1.5"/>
      <path id="Path_52" data-name="Path 52" d="M2470.137,1200.863a36.209,36.209,0,0,0-5.007,2.9c-1.559,1.236-1.309,4.319,0,5.429s3.058,1.271,5.007-.94Z" transform="translate(-2464.053 -1184.81)" fill="none" stroke="#111" stroke-width="1.5"/>
      <path id="Path_53" data-name="Path 53" d="M2487.982,1221.991c.017,8.71,7.63,9.208,7.63,9.208s6.641.573,9.989-1.069,3.628-4.508,3.483-4.622-3.77.129-3.778-.128,4.276-1.114,5.767-3.388,1.761-3.632,1.528-3.892-11.92,0-11.92,0" transform="translate(-2470.895 -1190.566)" fill="none" stroke="#111" stroke-linecap="round" stroke-width="1.5"/>
    </g>
  </g>
</svg>
