<svg xmlns="http://www.w3.org/2000/svg" width="76.554" height="70.745" viewBox="0 0 76.554 70.745">
  <g id="Group_410" data-name="Group 410" transform="translate(-1652.235 1104.821)">
    <path id="Path_40" data-name="Path 40" d="M-1434.295,2270.2c-19.819-3.6-24.23-36.9-13.871-53.128,4.532-7.1,26.313-18.958,44.7-11.148,12.015,5.1,21.713,10.535,24.151,25.172s-1.269,31.084-10.579,36.713C-1401.322,2274.716-1423.1,2272.232-1434.295,2270.2Z" transform="translate(3106.587 -3307.355)" fill="#fff" stroke="#111" stroke-width="1.5"/>
    <g id="Group_96" data-name="Group 96" transform="translate(1662 -1087.587)">
      <path id="Path_43" data-name="Path 43" d="M2393.958,1207.76c0-6.522-2.8-9.485-2.8-9.485s-4.833-7.543-18.356-8.909-20.72,3.261-21.019,3.108-.563-1.832-1.723-3.108a4.907,4.907,0,0,0-3.67-1.241c-.261.083-.156,1.185-.644,2.576s-1,1.592-1,3.1,1.885,1.84,1.752,2.175a17.89,17.89,0,0,0-2.064,2.8c-.543,1.258.072,1.43-.862,2.982a6.392,6.392,0,0,1-2.792,2.288s-2.676-.141-3.011.253-.509,4.484,0,5.1,2.39.285,3.011.531,2.435,2.926,5.607,3.05,4.946-.748,5.219-.279.755,10.839.755,10.839-1.581,3.228-1.336,3.516a22.683,22.683,0,0,0,6.284,0c.311-.3,0-3.516,0-3.516s2.855-7.861,3.311-8.076,4.283,1.891,10.5,1.93a28.441,28.441,0,0,0,10.673-1.93l2.692,8.076s-1.374,3.286-1.125,3.516,7.252.389,7.529,0,0-3.516,0-3.516S2393.958,1214.282,2393.958,1207.76Z" transform="translate(-2337.447 -1185.948)" fill="none" stroke="#111" stroke-linecap="round" stroke-width="1.5"/>
      <path id="Path_44" data-name="Path 44" d="M2408.106,1185.251a3.456,3.456,0,0,1,2.019,2.155,5.756,5.756,0,0,1-.226,3.745c-.549,1.551-1.162,1.962-2.041,2.06a2.168,2.168,0,0,1-2.44-2.06,2.045,2.045,0,0,1,2.892-2.057c1.5.556,1.742,1.458,1.938,3.938s-2.389,4.738-2.389,4.738" transform="translate(-2353.333 -1185.251)" fill="none" stroke="#111" stroke-linecap="round" stroke-width="1.5"/>
      <path id="Path_45" data-name="Path 45" d="M2399.877,1235.786h6.259" transform="translate(-2352.732 -1198.379)" fill="none" stroke="#111" stroke-linecap="round" stroke-width="1.5"/>
      <path id="Path_46" data-name="Path 46" d="M2362.081,1236.49h-4.86" transform="translate(-2342.289 -1198.551)" fill="none" stroke="#111" stroke-linecap="round" stroke-width="1.5"/>
      <path id="Path_47" data-name="Path 47" d="M2341.515,1209.344v4.929" transform="translate(-2338.443 -1190.641)" fill="none" stroke="#111" stroke-linecap="round" stroke-width="1.5"/>
      <path id="Path_48" data-name="Path 48" d="M2394.71,1221.339A7.851,7.851,0,0,1,2391.6,1218a6.835,6.835,0,0,1-.6-3.553" transform="translate(-2350.548 -1192.398)" fill="none" stroke="#111" stroke-linecap="round" stroke-width="1.5"/>
      <ellipse id="Ellipse_4" data-name="Ellipse 4" cx="1.259" cy="1.259" rx="1.259" ry="1.259" transform="translate(9.507 16.593)" fill="#111"/>
    </g>
  </g>
</svg>
