<svg xmlns="http://www.w3.org/2000/svg" width="78.646" height="70.676" viewBox="0 0 78.646 70.676">
  <g id="Group_408" data-name="Group 408" transform="translate(-1706.234 993.845)">
    <path id="Path_12" data-name="Path 12" d="M-1434.085,2203.478c-19.494,3.758-22.9,40.426-12.707,57.344,7.479,12.418,31.983,12.321,50.675,7.061s24.91-22.574,17.955-35.56c-3.026-5.649-9.916-18.07-19.074-23.941C-1408.475,2201.175-1423.07,2201.355-1434.085,2203.478Z" transform="translate(3159.396 -3195.195)" fill="#fff" stroke="#111" stroke-width="1.5"/>
    <g id="Group_114" data-name="Group 114" transform="translate(1714.755 -984.314)">
      <g id="Group_113" data-name="Group 113" transform="translate(0.946 0)">
        <g id="Union_5" data-name="Union 5" transform="translate(0)" fill="#fff">
          <path d="M 20.60477828979492 37.92585754394531 L 20.60476875305176 37.92585754394531 C 19.65347862243652 37.92587661743164 18.63318824768066 37.82180404663086 17.64648818969727 37.72116470336914 C 16.8060474395752 37.63544464111328 16.0122184753418 37.55447769165039 15.37088775634766 37.55447769165039 C 13.42966842651367 37.55447769165039 10.91031837463379 33.8447265625 10.55712795257568 30.46620559692383 L 10.48481845855713 29.77459526062012 L 9.789728164672852 29.79449653625488 C 9.743758201599121 29.79580688476562 9.697768211364746 29.79648590087891 9.651437759399414 29.79648590087891 C 7.312188148498535 29.79648590087891 5.40906810760498 28.08594512939453 5.40906810760498 25.98340606689453 C 5.40906810760498 25.47294616699219 5.519428253173828 24.97763633728027 5.737088203430176 24.5112361907959 L 6.029347896575928 23.88495635986328 L 5.429008007049561 23.54257583618164 C 4.166337966918945 22.82245635986328 3.412508010864258 21.67222595214844 3.412508010864258 20.4657154083252 C 3.412508010864258 19.75560569763184 3.668328046798706 19.06156539916992 4.152297973632812 18.45862579345703 L 4.810317993164062 17.63886642456055 L 3.821078062057495 17.28334617614746 C 1.98416805267334 16.6231861114502 0.7499980330467224 14.82904624938965 0.7499980330467224 12.81885623931885 C 0.7499980330467224 10.40439605712891 2.498968124389648 8.384885787963867 4.818258285522461 8.121305465698242 L 5.423287868499756 8.052545547485352 L 5.480278015136719 7.446305751800537 C 5.589838027954102 6.280866146087646 6.114448070526123 5.203115940093994 6.957468032836914 4.411605834960938 C 7.800678253173828 3.619915962219238 8.893148422241211 3.183915853500366 10.03363800048828 3.183915853500366 C 10.12735843658447 3.183915853500366 10.22228813171387 3.186885833740234 10.31579780578613 3.192755937576294 L 10.73976802825928 3.219346046447754 L 10.98058795928955 2.869395971298218 C 11.89384841918945 1.542295932769775 13.4244384765625 0.7499959468841553 15.07490825653076 0.7499959468841553 C 17.02556800842285 0.7499959468841553 18.7913990020752 1.862405896186829 19.57357788085938 3.583995819091797 L 19.79396820068359 4.069066047668457 L 20.32455825805664 4.020656108856201 C 20.47972869873047 4.006495952606201 20.63778877258301 3.999315977096558 20.79434776306152 3.999315977096558 C 23.50044822692871 3.999315977096558 25.70202827453613 6.119465827941895 25.70202827453613 8.725476264953613 C 25.70202827453613 9.73930549621582 25.37356758117676 10.70573616027832 24.75215721130371 11.52027606964111 L 24.40509796142578 11.97521591186523 L 24.75218772888184 12.43012619018555 C 25.37357711791992 13.24454593658447 25.70202827453613 14.21089553833008 25.70202827453613 15.22469615936279 L 25.70209884643555 15.43611621856689 C 25.70293807983398 17.11751556396484 25.70514869689941 21.58387565612793 25.33344841003418 25.59794616699219 C 25.1266975402832 27.83058547973633 24.8357982635498 29.5882568359375 24.46882820129395 30.82211685180664 C 24.04051780700684 32.26222610473633 23.60307884216309 32.66090774536133 23.41213798522949 32.66943740844727 L 22.27021789550781 32.7204475402832 L 22.77160835266113 33.74766540527344 C 23.28151893615723 34.79231643676758 23.55103874206543 35.69307708740234 23.55103874206543 36.35254669189453 C 23.55103874206543 36.94403457641602 23.34502792358398 37.30237579345703 22.8621883392334 37.55074691772461 C 22.37832832336426 37.79962539672852 21.61882781982422 37.92583465576172 20.60477828979492 37.92585754394531 Z" stroke="none"/>
          <path d="M 20.60475730895996 37.17585754394531 C 21.7177677154541 37.17583465576172 22.2601375579834 37.01702499389648 22.51912879943848 36.88380432128906 C 22.69916725158691 36.79118728637695 22.80103874206543 36.72085571289062 22.80103874206543 36.35254669189453 C 22.80103874206543 36.04078674316406 22.70964813232422 35.33053588867188 22.09761810302734 34.07665634155273 L 21.09482765197754 32.022216796875 L 23.1841983795166 31.92886352539062 C 23.42173004150391 31.62105178833008 24.22867965698242 30.19075775146484 24.66377830505371 24.6231861114502 C 24.95480728149414 20.8990650177002 24.95290756225586 17.07110595703125 24.95209884643555 15.43649578094482 L 24.95202827453613 15.22469615936279 C 24.95202827453613 14.37669563293457 24.67673873901367 13.56766605377197 24.15591812133789 12.88506603240967 L 23.46173858642578 11.97524547576904 L 24.15586853027344 11.06537628173828 C 24.67671775817871 10.38264560699463 24.95202827453613 9.573515892028809 24.95202827453613 8.725476264953613 C 24.95202827453613 6.533015727996826 23.08689880371094 4.749315738677979 20.79434776306152 4.749315738677979 C 20.66044807434082 4.749315738677979 20.52531814575195 4.75545597076416 20.39270782470703 4.767545700073242 L 19.33152770996094 4.864376068115234 L 18.89074897766113 3.894225835800171 C 18.22994804382324 2.439785957336426 16.73213768005371 1.499995946884155 15.07490825653076 1.499995946884155 C 13.67133808135986 1.499995946884155 12.37171840667725 2.170866012573242 11.59842777252197 3.294575929641724 L 11.11678791046143 3.994465827941895 L 10.26884841918945 3.941285848617554 C 10.19089794158936 3.936395883560181 10.11176776885986 3.933915853500366 10.03363800048828 3.933915853500366 C 9.08460807800293 3.933915853500366 8.174458503723145 4.297745704650879 7.470828056335449 4.958375930786133 C 6.761168003082275 5.624685764312744 6.319427967071533 6.533175945281982 6.226987838745117 7.516495704650879 L 6.112998008728027 8.728996276855469 L 4.902947902679443 8.86651611328125 C 2.962948083877563 9.08698558807373 1.499998092651367 10.78612613677979 1.499998092651367 12.81885623931885 C 1.499998092651367 14.51357555389404 2.534708023071289 16.02407646179199 4.074728012084961 16.57753562927246 L 6.053217887878418 17.28857612609863 L 4.73718786239624 18.9281063079834 C 4.361227989196777 19.39647674560547 4.162508010864258 19.92817687988281 4.162508010864258 20.4657154083252 C 4.162508010864258 21.3994255065918 4.774868011474609 22.30610656738281 5.800558090209961 22.89107513427734 L 7.001247882843018 23.57584571838379 L 6.416718006134033 24.82839584350586 C 6.245758056640625 25.19474601745605 6.15906810760498 25.58334541320801 6.15906810760498 25.98340606689453 C 6.15906810760498 27.67239570617676 7.725738048553467 29.04648590087891 9.651437759399414 29.04648590087891 C 9.690578460693359 29.04648590087891 9.729437828063965 29.0459156036377 9.768267631530762 29.04479598999023 L 11.15845775604248 29.00500679016113 L 11.30305767059326 30.38822555541992 C 11.45496845245361 31.84130668640137 12.10807800292969 33.56473541259766 13.00752830505371 34.88596725463867 C 13.80093765258789 36.05141448974609 14.72860813140869 36.80447769165039 15.37088775634766 36.80447769165039 C 16.05036735534668 36.80447769165039 16.86263847351074 36.88732528686523 17.72259712219238 36.97503662109375 C 18.69062805175781 37.07377624511719 19.69161796569824 37.17587661743164 20.60475730895996 37.17585754394531 M 20.60478782653809 38.67585754394531 C 18.77642822265625 38.67589569091797 16.68548774719238 38.30447769165039 15.37088775634766 38.30447769165039 C 12.81100845336914 38.30447769165039 10.17519760131836 34.02619552612305 9.811187744140625 30.54418563842773 C 9.758088111877441 30.54570579528809 9.704957962036133 30.54648590087891 9.651437759399414 30.54648590087891 C 6.89434814453125 30.54648590087891 4.65906810760498 28.50330543518066 4.65906810760498 25.98340606689453 C 4.65906810760498 25.34835624694824 4.801058292388916 24.74346542358398 5.057447910308838 24.19406509399414 C 3.608668088912964 23.36780548095703 2.662508010864258 22.00593566894531 2.662508010864258 20.4657154083252 C 2.662508010864258 19.55268669128418 2.994908094406128 18.7023868560791 3.567418098449707 17.98914527893066 C 1.49003803730011 17.2425651550293 -1.939697312991484e-06 15.20968627929688 -1.939697312991484e-06 12.81885623931885 C -1.939697312991484e-06 9.999815940856934 2.07092809677124 7.678706169128418 4.73356819152832 7.376105785369873 C 4.994328022003174 4.602305889129639 7.267548084259033 2.433915853500366 10.03363800048828 2.433915853500366 C 10.14418792724609 2.433915853500366 10.25385761260986 2.437396049499512 10.36274814605713 2.444226026535034 C 11.37672805786133 0.9707659482955933 13.10874843597412 -4.061889740114566e-06 15.07490825653076 -4.061889740114566e-06 C 17.39004898071289 -4.061889740114566e-06 19.38054847717285 1.345985889434814 20.25640869140625 3.27375602722168 C 20.43340873718262 3.257606029510498 20.61298751831055 3.249315977096558 20.79434776306152 3.249315977096558 C 23.91884803771973 3.249315977096558 26.45202827453613 5.701365947723389 26.45202827453613 8.725476264953613 C 26.45202827453613 9.942026138305664 26.04191780090332 11.06618595123291 25.34844779968262 11.97518634796143 C 26.04191780090332 12.88407611846924 26.45202827453613 14.00813579559326 26.45202827453613 15.22469615936279 C 26.45202827453613 18.23554611206055 26.5273380279541 33.281005859375 23.44560813903809 33.41868591308594 C 23.97765731811523 34.50870513916016 24.30103874206543 35.53163528442383 24.30103874206543 36.35254669189453 C 24.30103874206543 38.22853469848633 22.61101722717285 38.67581558227539 20.60478782653809 38.67585754394531 Z" stroke="none" fill="#111"/>
        </g>
        <g id="Union_4" data-name="Union 4" transform="translate(9.778 4.109)" fill="#fff">
          <path d="M 20.60434722900391 33.95721817016602 C 19.64186668395996 33.95721817016602 18.56978797912598 33.88037872314453 17.62391662597656 33.81257629394531 C 16.78924751281738 33.75275802612305 16.00085639953613 33.69624710083008 15.37088775634766 33.69624710083008 C 14.3246374130249 33.69624710083008 13.3195276260376 33.35042572021484 12.5407075881958 32.72249603271484 C 11.78468704223633 32.11293792724609 11.29605770111084 31.28241729736328 11.16480731964111 30.38392639160156 L 11.0568675994873 29.6448974609375 L 10.31739711761475 29.74975776672363 C 10.09870719909668 29.7807674407959 9.87464714050293 29.79648780822754 9.651437759399414 29.79648780822754 C 7.312187194824219 29.79648780822754 5.409067153930664 28.08594703674316 5.409067153930664 25.98340797424316 C 5.409067153930664 25.47293663024902 5.519427299499512 24.97762680053711 5.737077236175537 24.51123809814453 L 6.02934741973877 23.88496780395508 L 5.429007530212402 23.54257774353027 C 4.166337490081787 22.82244682312012 3.412507295608521 21.67221641540527 3.412507295608521 20.46570777893066 C 3.412507295608521 19.75560760498047 3.668327331542969 19.06156730651855 4.152297496795654 18.45862770080566 L 4.810317516326904 17.63886642456055 L 3.821077346801758 17.28334808349609 C 1.984167337417603 16.62318801879883 0.7499973177909851 14.82904720306396 0.7499973177909851 12.81884670257568 C 0.7499973177909851 10.40439701080322 2.498967409133911 8.384886741638184 4.818257331848145 8.121296882629395 L 5.423287391662598 8.052536964416504 L 5.480277538299561 7.446297168731689 C 5.589837074279785 6.280857086181641 6.114447116851807 5.203117370605469 6.957467079162598 4.411607265472412 C 7.800677299499512 3.619917154312134 8.893147468566895 3.183917284011841 10.03363704681396 3.183917284011841 C 10.12735748291016 3.183917284011841 10.22228717803955 3.186887264251709 10.31579685211182 3.192757129669189 L 10.73976707458496 3.219347238540649 L 10.98058700561523 2.869397163391113 C 11.89384746551514 1.542297124862671 13.42443752288818 0.7499971985816956 15.07490730285645 0.7499971985816956 C 17.02555656433105 0.7499971985816956 18.79139709472656 1.862407207489014 19.57358741760254 3.583997249603271 L 19.79397773742676 4.069067001342773 L 20.3245677947998 4.020657062530518 C 20.47972679138184 4.006497383117676 20.63778686523438 3.999317169189453 20.79434776306152 3.999317169189453 C 23.50044822692871 3.999317169189453 25.7020263671875 6.119467258453369 25.7020263671875 8.72547721862793 C 25.7020263671875 9.739296913146973 25.37356758117676 10.70572757720947 24.75215721130371 11.52028751373291 L 24.40509796142578 11.97521686553955 L 24.75218772888184 12.43012714385986 C 25.37357711791992 13.24453735351562 25.7020263671875 14.21088695526123 25.7020263671875 15.22468757629395 L 25.70209693908691 15.43660736083984 C 25.7028865814209 17.00846672058105 25.7047176361084 20.68948745727539 25.43786811828613 24.33399772644043 C 25.01243782043457 30.14422798156738 24.18143653869629 31.91396713256836 23.72395706176758 32.45175552368164 L 23.52220726013184 32.68893814086914 L 23.54775810241699 32.999267578125 C 23.5499382019043 33.02569580078125 23.5510368347168 33.05083847045898 23.5510368347168 33.0739860534668 C 23.5510368347168 33.20979690551758 23.5510368347168 33.46259689331055 22.95013809204102 33.67985534667969 C 22.44109725952148 33.86389541625977 21.65185737609863 33.95721817016602 20.60434722900391 33.95721817016602 Z" stroke="none"/>
          <path d="M 20.60434722900391 33.20721817016602 C 22.00231170654297 33.20721817016602 22.57990646362305 33.03219223022461 22.79012870788574 32.93745422363281 L 22.74917793273926 32.44015884399414 L 23.15269660949707 31.96579742431641 C 23.40279769897461 31.67179679870605 24.25278663635254 30.24860763549805 24.68986701965332 24.27922630310059 C 24.95470809936523 20.66224670410156 24.95287704467773 17.00057792663574 24.95209693908691 15.43697738647461 L 24.9520263671875 15.22468757629395 C 24.9520263671875 14.37668704986572 24.67673683166504 13.56766700744629 24.15592765808105 12.88507747650146 L 23.46173667907715 11.97525691986084 L 24.1558666229248 11.06538677215576 C 24.67671775817871 10.38263702392578 24.9520263671875 9.573516845703125 24.9520263671875 8.72547721862793 C 24.9520263671875 6.533017158508301 23.0868968963623 4.749317169189453 20.79434776306152 4.749317169189453 C 20.66044807434082 4.749317169189453 20.52531814575195 4.755447387695312 20.39272689819336 4.767547130584717 L 19.33154678344727 4.864377021789551 L 18.89076805114746 3.894237279891968 C 18.22994804382324 2.439787149429321 16.73213768005371 1.499997138977051 15.07490730285645 1.499997138977051 C 13.67133712768555 1.499997138977051 12.37171745300293 2.170867204666138 11.59842777252197 3.294577121734619 L 11.11678695678711 3.994467258453369 L 10.26884746551514 3.941287279129028 C 10.19089698791504 3.936397075653076 10.11176776885986 3.933917284011841 10.03363704681396 3.933917284011841 C 9.084607124328613 3.933917284011841 8.174457550048828 4.297747135162354 7.470827102661133 4.958377361297607 C 6.761167526245117 5.624687194824219 6.319427490234375 6.533177375793457 6.226987361907959 7.516487121582031 L 6.112997531890869 8.728977203369141 L 4.902957439422607 8.866507530212402 C 2.962947368621826 9.086987495422363 1.49999725818634 10.7861270904541 1.49999725818634 12.81884670257568 C 1.49999725818634 14.51357746124268 2.534707307815552 16.02407646179199 4.074727535247803 16.57753753662109 L 6.05321741104126 17.28857803344727 L 4.737187385559082 18.9281063079834 C 4.361227512359619 19.39647674560547 4.1625075340271 19.92816734313965 4.1625075340271 20.46570777893066 C 4.1625075340271 21.39941787719727 4.774867534637451 22.30609703063965 5.800567150115967 22.89107704162598 L 7.001257419586182 23.57585716247559 L 6.416717529296875 24.82840728759766 C 6.245757102966309 25.19474792480469 6.159067153930664 25.58334732055664 6.159067153930664 25.98340797424316 C 6.159067153930664 27.67239761352539 7.72573709487915 29.04648780822754 9.651437759399414 29.04648780822754 C 9.839537620544434 29.04648780822754 10.02816772460938 29.03326797485352 10.21209716796875 29.00718688964844 L 11.69103717803955 28.79747772216797 L 11.90693759918213 30.27552795410156 C 12.12933731079102 31.79808807373047 13.61850738525391 32.94624710083008 15.37088775634766 32.94624710083008 C 16.02770805358887 32.94624710083008 16.82909774780273 33.00368881225586 17.67753791809082 33.06449890136719 C 18.65645790100098 33.13466644287109 19.6687068939209 33.20721817016602 20.60434722900391 33.20721817016602 M 20.60434722900391 34.70721817016602 C 18.77614784240723 34.70721817016602 16.68531799316406 34.44624710083008 15.37088775634766 34.44624710083008 C 12.83995723724365 34.44624710083008 10.74873733520508 32.72450637817383 10.42268753051758 30.4923267364502 C 10.17126750946045 30.52797698974609 9.913786888122559 30.54648780822754 9.651437759399414 30.54648780822754 C 6.894347190856934 30.54648780822754 4.659067153930664 28.5033073425293 4.659067153930664 25.98340797424316 C 4.659067153930664 25.34835624694824 4.8010573387146 24.74345779418945 5.05744743347168 24.19406700134277 C 3.608667373657227 23.3677978515625 2.662507295608521 22.00593757629395 2.662507295608521 20.46570777893066 C 2.662507295608521 19.55267715454102 2.994907379150391 18.7023868560791 3.56741738319397 17.9891471862793 C 1.490037322044373 17.24256706237793 -2.698364369280171e-06 15.20968723297119 -2.698364369280171e-06 12.81884670257568 C -2.698364369280171e-06 9.99981689453125 2.070927381515503 7.678707122802734 4.733567237854004 7.376097202301025 C 4.994327068328857 4.602307319641113 7.267547130584717 2.433917284011841 10.03363704681396 2.433917284011841 C 10.14419746398926 2.433917284011841 10.25385761260986 2.437397241592407 10.36274719238281 2.44422721862793 C 11.37672710418701 0.9707671999931335 13.1087474822998 -2.822265514623723e-06 15.07490730285645 -2.822265514623723e-06 C 17.39004707336426 -2.822265514623723e-06 19.38054656982422 1.345987200737 20.25641822814941 3.273757219314575 C 20.43340682983398 3.257607221603394 20.61298751831055 3.249317169189453 20.79434776306152 3.249317169189453 C 23.91884803771973 3.249317169189453 26.4520263671875 5.701367378234863 26.4520263671875 8.72547721862793 C 26.4520263671875 9.94202709197998 26.04191780090332 11.06617736816406 25.34844779968262 11.97518730163574 C 26.04191780090332 12.88406753540039 26.4520263671875 14.00813674926758 26.4520263671875 15.22468757629395 C 26.4520263671875 17.92779731750488 26.51287651062012 30.33076667785645 24.29522705078125 32.93771743774414 C 24.29903793334961 32.98398590087891 24.3010368347168 33.02938842773438 24.3010368347168 33.0739860534668 C 24.3010368347168 34.39283752441406 22.61088752746582 34.70721817016602 20.60434722900391 34.70721817016602 Z" stroke="none" fill="#111"/>
        </g>
        <g id="Group_112" data-name="Group 112" transform="translate(16.727 12.129)">
          <path id="Path_80" data-name="Path 80" d="M2233.859,1110.339a58.856,58.856,0,0,1,3.911,7.047,65.885,65.885,0,0,1,2.9,7.817" transform="translate(-2230.899 -1110.339)" fill="#fff" stroke="#111" stroke-linecap="round" stroke-width="1.5"/>
          <path id="Path_81" data-name="Path 81" d="M2235.552,1110.339a7.784,7.784,0,0,0-3.277,4.93c-.544,3.242,1.1,8.036,1.1,8.036" transform="translate(-2223.61 -1108.44)" fill="#fff" stroke="#111" stroke-linecap="round" stroke-width="1.5"/>
          <path id="Path_82" data-name="Path 82" d="M2232.166,1110.24a9.989,9.989,0,0,1,3.832,0,8.328,8.328,0,0,1,3.14,1.636" transform="translate(-2232.166 -1104.444)" fill="#fff" stroke="#111" stroke-linecap="round" stroke-width="1.5"/>
          <path id="Path_83" data-name="Path 83" d="M2232.166,1110.24a9.989,9.989,0,0,1,3.832,0,11.407,11.407,0,0,1,3.676,1.882" transform="translate(-2230.021 -1097.295)" fill="#fff" stroke="#111" stroke-linecap="round" stroke-width="1.5"/>
        </g>
      </g>
      <g id="Path_88" data-name="Path 88" transform="translate(38.606 11.258)" fill="#fff">
        <path d="M 3.574607372283936 12.24855899810791 C 1.738997340202332 12.24855899810791 1.464917421340942 10.68245887756348 1.464917421340942 9.748919486999512 L 1.464917421340942 9.707789421081543 L 1.46041738986969 9.666909217834473 L 0.7503222227096558 3.211491107940674 C 0.7733808755874634 1.850650072097778 2.031461715698242 0.7499990463256836 3.574607372283936 0.7499990463256836 C 5.117753028869629 0.7499990463256836 6.375833988189697 1.850650072097778 6.398892402648926 3.211491107940674 L 5.688797473907471 9.666909217834473 L 5.684297561645508 9.707789421081543 L 5.684297561645508 9.748919486999512 C 5.684297561645508 10.68245887756348 5.41021728515625 12.24855899810791 3.574607372283936 12.24855899810791 Z" stroke="none"/>
        <path d="M 3.574607372283936 1.499999046325684 C 2.457757949829102 1.499999046325684 1.544193744659424 2.248225212097168 1.501551151275635 3.181480407714844 L 2.20592737197876 9.584909439086914 L 2.214917182922363 9.666668891906738 L 2.214917182922363 9.748918533325195 C 2.214917182922363 10.33414936065674 2.343857288360596 10.8184289932251 2.577987194061279 11.11252880096436 C 2.709907531738281 11.27824878692627 2.956747531890869 11.49855899810791 3.574607372283936 11.49855899810791 C 4.19246768951416 11.49855899810791 4.43930721282959 11.27824878692627 4.571227073669434 11.11252880096436 C 4.805357456207275 10.8184289932251 4.934297561645508 10.33414936065674 4.934297561645508 9.748918533325195 L 4.934297561645508 9.666668891906738 L 4.943287372589111 9.584909439086914 L 5.647664070129395 3.181480407714844 C 5.605020999908447 2.248225212097168 4.69145679473877 1.499999046325684 3.574607372283936 1.499999046325684 M 3.574607372283936 -9.5367431640625e-07 C 5.548807144165039 -9.5367431640625e-07 7.14921760559082 1.454909324645996 7.14921760559082 3.249638557434082 L 6.434297561645508 9.748918533325195 C 6.434297561645508 11.54363918304443 5.548807144165039 12.99855899810791 3.574607372283936 12.99855899810791 C 1.600407600402832 12.99855899810791 0.7149171829223633 11.54363918304443 0.7149171829223633 9.748918533325195 L -2.86102294921875e-06 3.249638557434082 C -2.86102294921875e-06 1.454909324645996 1.600407600402832 -9.5367431640625e-07 3.574607372283936 -9.5367431640625e-07 Z" stroke="none" fill="#111"/>
      </g>
      <g id="Path_90" data-name="Path 90" transform="translate(0 45.794) rotate(-90)" fill="#fff">
        <path d="M 2.64461612701416 13.54843521118164 C 2.388836145401001 13.54843521118164 2.01266622543335 13.48095512390137 1.700246095657349 12.89744472503662 C 1.428556084632874 12.39000511169434 1.278926134109497 11.61806488037109 1.278926134109497 10.7238245010376 L 1.278926134109497 10.6961145401001 L 1.276886105537415 10.66848468780518 L 0.7500835657119751 3.548020124435425 C 0.7600631713867188 2.028582334518433 1.623580932617188 0.750004768371582 2.64461612701416 0.750004768371582 C 3.665651321411133 0.750004768371582 4.529169082641602 2.028582334518433 4.539148807525635 3.548020124435425 L 4.012346267700195 10.66848468780518 L 4.010306358337402 10.6961145401001 L 4.010306358337402 10.7238245010376 C 4.010306358337402 11.61806488037109 3.860676050186157 12.39000511169434 3.588986158370972 12.89744472503662 C 3.276566028594971 13.48095512390137 2.900396108627319 13.54843521118164 2.64461612701416 13.54843521118164 Z" stroke="none"/>
        <path d="M 2.64461612701416 1.499994277954102 C 2.184154272079468 1.499994277954102 1.518081426620483 2.286746978759766 1.500357389450073 3.524100303649902 L 2.02483606338501 10.61315441131592 L 2.028926134109497 10.66841506958008 L 2.028926134109497 10.7238245010376 C 2.028926134109497 11.48553466796875 2.150116205215454 12.14875507354736 2.361436128616333 12.54341506958008 C 2.497966051101685 12.79842472076416 2.575876235961914 12.79842472076416 2.64461612701416 12.79842472076416 C 2.713356018066406 12.79842472076416 2.791266202926636 12.79842472076416 2.927796125411987 12.54341506958008 C 3.139116048812866 12.14875507354736 3.260306119918823 11.48553466796875 3.260306119918823 10.7238245010376 L 3.260306119918823 10.66841506958008 L 3.264396190643311 10.61315441131592 L 3.788874864578247 3.524100303649902 C 3.771150588989258 2.286746978759766 3.105077981948853 1.499994277954102 2.64461612701416 1.499994277954102 M 2.64461612701416 -5.7220458984375e-06 C 4.105195999145508 -5.7220458984375e-06 5.289236068725586 1.600404739379883 5.289236068725586 3.574604988098145 L 4.760306358337402 10.7238245010376 C 4.760306358337402 12.69802474975586 4.105195999145508 14.29842472076416 2.64461612701416 14.29842472076416 C 1.184036254882812 14.29842472076416 0.528925895690918 12.69802474975586 0.528925895690918 10.7238245010376 L -3.814697265625e-06 3.574604988098145 C -3.814697265625e-06 1.600404739379883 1.184036254882812 -5.7220458984375e-06 2.64461612701416 -5.7220458984375e-06 Z" stroke="none" fill="#111"/>
      </g>
      <g id="Path_91" data-name="Path 91" transform="matrix(-0.259, -0.966, 0.966, -0.259, 3.141, 49.986)" fill="#fff">
        <path d="M 2.287484407424927 13.39586067199707 C 2.025244474411011 13.39586067199707 1.822014451026917 13.31289100646973 1.647894501686096 13.13474082946777 C 1.234394431114197 12.71168041229248 1.012294411659241 11.81056118011475 1.038544416427612 10.66244125366211 L 1.039194464683533 10.63431072235107 L 1.037724494934082 10.60622119903564 L 0.6692618131637573 3.543049335479736 C 0.7145365476608276 2.016282796859741 1.631489872932434 0.7097171545028687 2.680954456329346 0.68365079164505 C 2.691604375839233 0.6833807826042175 2.702234506607056 0.6832507848739624 2.712834358215332 0.6832507848739624 C 3.174934387207031 0.6832507848739624 3.520234346389771 0.9372907876968384 3.728524446487427 1.15039074420929 C 4.223234176635742 1.656546115875244 4.508518218994141 2.48717188835144 4.49414587020874 3.376718044281006 L 3.802024364471436 10.46664047241211 L 3.799304485321045 10.49444103240967 L 3.798674345016479 10.52236080169678 C 3.787834405899048 10.99627113342285 3.665554523468018 13.36202049255371 2.318744421005249 13.39547061920166 C 2.308284521102905 13.39573097229004 2.29781436920166 13.39586067199707 2.287484407424927 13.39586067199707 Z" stroke="none"/>
        <path d="M 2.712834358215332 1.433250427246094 L 2.69957447052002 1.43342113494873 C 2.137650966644287 1.447379112243652 1.465131521224976 2.364804267883301 1.41992712020874 3.536284446716309 L 1.786704540252686 10.56715106964111 L 1.789634466171265 10.62333106994629 L 1.788354396820068 10.67958068847656 C 1.761434555053711 11.8565502166748 2.024544477462769 12.44711112976074 2.18425440788269 12.61051082611084 C 2.211484432220459 12.63837051391602 2.218804359436035 12.64586067199707 2.287484407424927 12.64586067199707 L 2.300124406814575 12.64570045471191 C 2.37822437286377 12.64376068115234 2.496264457702637 12.64083099365234 2.667424440383911 12.3339204788208 C 2.892484426498413 11.93033027648926 3.031524419784546 11.26379108428955 3.048864364624023 10.50522041320801 L 3.05014443397522 10.44937133789062 L 3.055574417114258 10.39377021789551 L 3.744588613510132 3.335665702819824 C 3.750773906707764 2.535239219665527 3.465521097183228 1.954305648803711 3.192164421081543 1.674631118774414 C 3.035624504089355 1.514460563659668 2.874354362487793 1.433250427246094 2.712834358215332 1.433250427246094 M 2.712830543518066 -0.06674671173095703 C 4.15906286239624 -0.06674671173095703 5.287779808044434 1.480945587158203 5.243424415588379 3.420600891113281 L 4.548474311828613 10.53951072692871 C 4.503604412078857 12.50168037414551 3.807734489440918 14.10872077941895 2.337364435195923 14.14524078369141 C 2.320672035217285 14.14565563201904 2.303960084915161 14.14586353302002 2.287485599517822 14.14586353302002 C 0.8528037071228027 14.14586353302002 0.2443838119506836 12.58519554138184 0.2887444496154785 10.64529037475586 L -0.08124542236328125 3.552841186523438 C -0.03637552261352539 1.59066104888916 1.191964626312256 -0.02959918975830078 2.662334442138672 -0.06611919403076172 C 2.679206371307373 -0.06653785705566406 2.696043014526367 -0.06674671173095703 2.712830543518066 -0.06674671173095703 Z" stroke="none" fill="#111"/>
      </g>
      <g id="Path_92" data-name="Path 92" transform="matrix(-0.259, 0.966, -0.966, -0.259, 16.952, 39.028)" fill="#fff">
        <path d="M 3.037795782089233 13.5280818939209 C 3.027195930480957 13.5280818939209 3.016565799713135 13.52795219421387 3.005915880203247 13.52768230438232 C 1.956451296806335 13.50161552429199 1.039507865905762 12.19505977630615 0.994233250617981 10.66829299926758 L 1.362685918807983 3.605122089385986 L 1.364155888557434 3.577032089233398 L 1.363505840301514 3.548902034759521 C 1.337255835533142 2.400792121887207 1.559355854988098 1.499672055244446 1.972855925559998 1.076611995697021 C 2.146975755691528 0.8984619975090027 2.350205898284912 0.8154920339584351 2.612445831298828 0.8154920339584351 C 2.622775793075562 0.8154920339584351 2.633245944976807 0.8156220316886902 2.64370584487915 0.8158820271492004 C 3.990505933761597 0.8493320345878601 4.112785816192627 3.215081930160522 4.123625755310059 3.688992023468018 L 4.124255657196045 3.716912031173706 L 4.126976013183594 3.744712114334106 L 4.81909704208374 10.83462429046631 C 4.833469867706299 11.72417068481445 4.548185348510742 12.55479717254639 4.053475856781006 13.06095218658447 C 3.84518575668335 13.27405166625977 3.499895811080933 13.5280818939209 3.037795782089233 13.5280818939209 Z" stroke="none"/>
        <path d="M 3.037795782089233 12.7780818939209 C 3.199315786361694 12.7780818939209 3.360575914382935 12.69687175750732 3.517125844955444 12.53671169281006 C 3.790472745895386 12.25703716278076 4.075725555419922 11.67610359191895 4.069540023803711 10.87566661834717 L 3.380525827407837 3.817582130432129 L 3.375095844268799 3.761981964111328 L 3.373815774917603 3.706131935119629 C 3.356475830078125 2.947561979293823 3.217435836791992 2.281022071838379 2.99237585067749 1.877431988716125 C 2.821215867996216 1.57052206993103 2.703185796737671 1.567592024803162 2.625485897064209 1.565662026405334 L 2.612445831298828 1.565492033958435 C 2.543765783309937 1.565492033958435 2.53644585609436 1.5729820728302 2.509215831756592 1.600841999053955 C 2.34950590133667 1.764242053031921 2.086395978927612 2.354802131652832 2.11331582069397 3.53176212310791 L 2.114595890045166 3.588011980056763 L 2.111665964126587 3.644191980361938 L 1.744898438453674 10.67505741119385 C 1.79010272026062 11.84652805328369 2.462613582611084 12.76395320892334 3.024625778198242 12.77791213989258 L 3.037795782089233 12.7780818939209 M 3.037792205810547 14.27807998657227 C 3.021004676818848 14.27807998657227 3.004167795181274 14.27787113189697 2.987295866012573 14.27745246887207 C 1.5169358253479 14.24093246459961 0.2885958850383759 12.62067222595215 0.2437258660793304 10.65850162506104 L 0.6137058734893799 3.566051959991455 C 0.569345235824585 1.626157641410828 1.177774906158447 0.06548959761857986 2.612447500228882 0.06548959761857986 C 2.628921747207642 0.06548959761857986 2.645633459091187 0.06569753587245941 2.662325859069824 0.06611201912164688 C 4.132685661315918 0.1026320159435272 4.828556060791016 1.709671974182129 4.873425960540771 3.671842098236084 L 5.568376064300537 10.79073238372803 C 5.612730979919434 12.73039722442627 4.484024047851562 14.27808475494385 3.037792205810547 14.27807998657227 Z" stroke="none" fill="#111"/>
      </g>
      <g id="Path_84" data-name="Path 84" transform="translate(26.913 18.703)" fill="#fff">
        <path d="M 7.402819156646729 21.33414077758789 C 5.762908935546875 21.33414077758789 4.094659328460693 20.34066963195801 2.825798988342285 18.60847091674805 C 1.506599068641663 16.80754089355469 0.7499991059303284 14.39194011688232 0.7499991059303284 11.98106002807617 C 0.7499991059303284 9.4722900390625 1.541879057884216 6.619510173797607 2.868288993835449 4.349890232086182 C 4.205298900604248 2.062110424041748 5.858078956604004 0.7500004172325134 7.402819156646729 0.7500004172325134 C 8.929328918457031 0.7500004172325134 10.53308868408203 2.057220458984375 11.80289936065674 4.336470603942871 C 13.0546989440918 6.583410263061523 13.80203914642334 9.441200256347656 13.80203914642334 11.98106002807617 C 13.80203914642334 14.418869972229 13.088059425354 16.83950042724609 11.84316921234131 18.62228012084961 C 10.62201881408691 20.37104988098145 9.045068740844727 21.33414077758789 7.402819156646729 21.33414077758789 Z" stroke="none"/>
        <path d="M 7.402819156646729 20.58414077758789 C 10.41221904754639 20.58414077758789 13.05203914642334 16.56401062011719 13.05203914642334 11.98106002807617 C 13.05203914642334 6.985410213470459 10.09543895721436 1.500000357627869 7.402819156646729 1.500000357627869 C 4.644489288330078 1.500000357627869 1.499999046325684 7.083370208740234 1.499999046325684 11.98106002807617 C 1.499999046325684 14.23604011535645 2.203769207000732 16.4901008605957 3.430839061737061 18.16526985168457 C 4.556869029998779 19.70250129699707 6.004599094390869 20.58414077758789 7.402819156646729 20.58414077758789 M 7.402819156646729 22.08414077758789 C 3.454419136047363 22.08414077758789 -9.036255050887121e-07 17.3652400970459 -9.036255050887121e-07 11.98106002807617 C -9.036255050887121e-07 6.596880435943604 3.454419136047363 3.887939499236381e-07 7.402819156646729 3.887939499236381e-07 C 11.35122871398926 3.887939499236381e-07 14.55203914642334 6.596880435943604 14.55203914642334 11.98106002807617 C 14.55203914642334 17.3652400970459 11.35122871398926 22.08414077758789 7.402819156646729 22.08414077758789 Z" stroke="none" fill="#111"/>
      </g>
      <g id="Path_85" data-name="Path 85" transform="translate(44.071 18.703)" fill="#fff">
        <path d="M 7.402819156646729 21.33414077758789 C 5.762908935546875 21.33414077758789 4.094659328460693 20.34066963195801 2.825798988342285 18.60847091674805 C 1.506599068641663 16.80754089355469 0.7499991059303284 14.39194011688232 0.7499991059303284 11.98106002807617 C 0.7499991059303284 9.4722900390625 1.541879057884216 6.619510173797607 2.868288993835449 4.349890232086182 C 4.205298900604248 2.062110424041748 5.858078956604004 0.7500004172325134 7.402819156646729 0.7500004172325134 C 8.929328918457031 0.7500004172325134 10.53308868408203 2.057220458984375 11.80289936065674 4.336470603942871 C 13.0546989440918 6.583410263061523 13.80203914642334 9.441200256347656 13.80203914642334 11.98106002807617 C 13.80203914642334 14.418869972229 13.088059425354 16.83950042724609 11.84316921234131 18.62228012084961 C 10.62201881408691 20.37104988098145 9.045068740844727 21.33414077758789 7.402819156646729 21.33414077758789 Z" stroke="none"/>
        <path d="M 7.402819156646729 20.58414077758789 C 10.41221904754639 20.58414077758789 13.05203914642334 16.56401062011719 13.05203914642334 11.98106002807617 C 13.05203914642334 6.985410213470459 10.09543895721436 1.500000357627869 7.402819156646729 1.500000357627869 C 4.644489288330078 1.500000357627869 1.499999046325684 7.083370208740234 1.499999046325684 11.98106002807617 C 1.499999046325684 14.23604011535645 2.203769207000732 16.4901008605957 3.430839061737061 18.16526985168457 C 4.556869029998779 19.70250129699707 6.004599094390869 20.58414077758789 7.402819156646729 20.58414077758789 M 7.402819156646729 22.08414077758789 C 3.454419136047363 22.08414077758789 -9.036255050887121e-07 17.3652400970459 -9.036255050887121e-07 11.98106002807617 C -9.036255050887121e-07 6.596880435943604 3.454419136047363 3.887939499236381e-07 7.402819156646729 3.887939499236381e-07 C 11.35122871398926 3.887939499236381e-07 14.55203914642334 6.596880435943604 14.55203914642334 11.98106002807617 C 14.55203914642334 17.3652400970459 11.35122871398926 22.08414077758789 7.402819156646729 22.08414077758789 Z" stroke="none" fill="#111"/>
      </g>
      <g id="Path_86" data-name="Path 86" transform="translate(31.203 18.703)" fill="#fff">
        <path d="M 7.402819156646729 21.33414077758789 C 5.762908935546875 21.33414077758789 4.094659328460693 20.34066963195801 2.825798988342285 18.60847091674805 C 1.506599068641663 16.80754089355469 0.7499991059303284 14.39194011688232 0.7499991059303284 11.98106002807617 C 0.7499991059303284 9.4722900390625 1.541879057884216 6.619510173797607 2.868288993835449 4.349890232086182 C 4.205298900604248 2.062110424041748 5.858078956604004 0.7500004172325134 7.402819156646729 0.7500004172325134 C 8.929328918457031 0.7500004172325134 10.53308868408203 2.057220458984375 11.80289936065674 4.336470603942871 C 13.0546989440918 6.583410263061523 13.80203914642334 9.441200256347656 13.80203914642334 11.98106002807617 C 13.80203914642334 14.418869972229 13.088059425354 16.83950042724609 11.84316921234131 18.62228012084961 C 10.62201881408691 20.37104988098145 9.045068740844727 21.33414077758789 7.402819156646729 21.33414077758789 Z" stroke="none"/>
        <path d="M 7.402819156646729 20.58414077758789 C 10.41221904754639 20.58414077758789 13.05203914642334 16.56401062011719 13.05203914642334 11.98106002807617 C 13.05203914642334 6.985410213470459 10.09543895721436 1.500000357627869 7.402819156646729 1.500000357627869 C 4.644489288330078 1.500000357627869 1.499999046325684 7.083370208740234 1.499999046325684 11.98106002807617 C 1.499999046325684 14.23604011535645 2.203769207000732 16.4901008605957 3.430839061737061 18.16526985168457 C 4.556869029998779 19.70250129699707 6.004599094390869 20.58414077758789 7.402819156646729 20.58414077758789 M 7.402819156646729 22.08414077758789 C 3.454419136047363 22.08414077758789 -9.036255050887121e-07 17.3652400970459 -9.036255050887121e-07 11.98106002807617 C -9.036255050887121e-07 6.596880435943604 3.454419136047363 3.887939499236381e-07 7.402819156646729 3.887939499236381e-07 C 11.35122871398926 3.887939499236381e-07 14.55203914642334 6.596880435943604 14.55203914642334 11.98106002807617 C 14.55203914642334 17.3652400970459 11.35122871398926 22.08414077758789 7.402819156646729 22.08414077758789 Z" stroke="none" fill="#111"/>
      </g>
      <g id="Path_87" data-name="Path 87" transform="translate(37.637 18.703)" fill="#fff">
        <path d="M 7.402819156646729 21.33414077758789 C 5.762908935546875 21.33414077758789 4.094659328460693 20.34066963195801 2.825798988342285 18.60847091674805 C 1.506599068641663 16.80754089355469 0.7499991059303284 14.39194011688232 0.7499991059303284 11.98106002807617 C 0.7499991059303284 9.4722900390625 1.541879057884216 6.619510173797607 2.868288993835449 4.349890232086182 C 4.205298900604248 2.062110424041748 5.858078956604004 0.7500004172325134 7.402819156646729 0.7500004172325134 C 8.929328918457031 0.7500004172325134 10.53308868408203 2.057220458984375 11.80289936065674 4.336470603942871 C 13.0546989440918 6.583410263061523 13.80203914642334 9.441200256347656 13.80203914642334 11.98106002807617 C 13.80203914642334 14.418869972229 13.088059425354 16.83950042724609 11.84316921234131 18.62228012084961 C 10.62201881408691 20.37104988098145 9.045068740844727 21.33414077758789 7.402819156646729 21.33414077758789 Z" stroke="none"/>
        <path d="M 7.402819156646729 20.58414077758789 C 10.41221904754639 20.58414077758789 13.05203914642334 16.56401062011719 13.05203914642334 11.98106002807617 C 13.05203914642334 6.985410213470459 10.09543895721436 1.500000357627869 7.402819156646729 1.500000357627869 C 4.644489288330078 1.500000357627869 1.499999046325684 7.083370208740234 1.499999046325684 11.98106002807617 C 1.499999046325684 14.23604011535645 2.203769207000732 16.4901008605957 3.430839061737061 18.16526985168457 C 4.556869029998779 19.70250129699707 6.004599094390869 20.58414077758789 7.402819156646729 20.58414077758789 M 7.402819156646729 22.08414077758789 C 3.454419136047363 22.08414077758789 -9.036255050887121e-07 17.3652400970459 -9.036255050887121e-07 11.98106002807617 C -9.036255050887121e-07 6.596880435943604 3.454419136047363 3.887939499236381e-07 7.402819156646729 3.887939499236381e-07 C 11.35122871398926 3.887939499236381e-07 14.55203914642334 6.596880435943604 14.55203914642334 11.98106002807617 C 14.55203914642334 17.3652400970459 11.35122871398926 22.08414077758789 7.402819156646729 22.08414077758789 Z" stroke="none" fill="#111"/>
      </g>
      <g id="Path_89" data-name="Path 89" transform="translate(9.459 52.204) rotate(-90)" fill="#fff">
        <path d="M 9.405349731445312 48.41411590576172 C 7.232589721679688 48.41411590576172 5.532199859619141 47.3330078125 4.351409912109375 45.2008056640625 C 3.225949764251709 43.16854476928711 2.631069660186768 40.28886795043945 2.631069660186768 36.87308502197266 L 2.631069660186768 36.84443664550781 L 2.62887978553772 36.81586456298828 L 0.7500253915786743 12.26276111602783 C 0.7613776326179504 5.911822319030762 4.639760971069336 0.7500060200691223 9.405349731445312 0.7500060200691223 C 14.17093849182129 0.7500060200691223 18.0493221282959 5.911822319030762 18.0606746673584 12.26276111602783 L 16.18181991577148 36.81586456298828 L 16.17963027954102 36.84443664550781 L 16.17963027954102 36.87308502197266 C 16.17963027954102 40.28886795043945 15.58475017547607 43.16854476928711 14.45928955078125 45.2008056640625 C 13.27849960327148 47.3330078125 11.57810974121094 48.41411590576172 9.405349731445312 48.41411590576172 Z" stroke="none"/>
        <path d="M 9.405349731445312 1.499996185302734 C 7.37090015411377 1.499996185302734 5.432069778442383 2.569507598876953 3.946000099182129 4.511516571044922 C 2.378585815429688 6.559837341308594 1.510951995849609 9.300636291503906 1.500104904174805 12.23505020141602 L 3.376699447631836 36.75863647460938 L 3.381070137023926 36.81577682495117 L 3.381070137023926 36.87308502197266 C 3.381070137023926 40.16207504272461 3.943490028381348 42.91610717773438 5.007519721984863 44.83745574951172 C 6.060850143432617 46.73949432373047 7.49940013885498 47.66410446166992 9.405349731445312 47.66410446166992 C 11.31130027770996 47.66410446166992 12.74984931945801 46.73949432373047 13.80317974090576 44.83745574951172 C 14.86720943450928 42.91610717773438 15.42963027954102 40.16207504272461 15.42963027954102 36.87308502197266 L 15.42963027954102 36.81577682495117 L 15.43400001525879 36.75863647460938 L 17.31059455871582 12.23505020141602 C 17.29974746704102 9.300636291503906 16.43211364746094 6.559837341308594 14.86470031738281 4.511516571044922 C 13.37862968444824 2.569507598876953 11.43980026245117 1.499996185302734 9.405349731445312 1.499996185302734 M 9.405349731445312 -3.814697265625e-06 C 14.59977912902832 -3.814697265625e-06 18.81069946289062 5.502876281738281 18.81069946289062 12.2910270690918 L 16.92963027954102 36.87308502197266 C 16.92963027954102 43.66123580932617 14.59977912902832 49.16410446166992 9.405349731445312 49.16410446166992 C 4.210919380187988 49.16410446166992 1.881069183349609 43.66123580932617 1.881069183349609 36.87308502197266 L 0 12.2910270690918 C 0 5.502876281738281 4.210919380187988 -3.814697265625e-06 9.405349731445312 -3.814697265625e-06 Z" stroke="none" fill="#111"/>
      </g>
      <line id="Line_8" data-name="Line 8" y2="8.449" transform="translate(21.09 38.88)" fill="none" stroke="#111" stroke-linecap="round" stroke-width="1.5"/>
      <line id="Line_9" data-name="Line 9" y2="6.499" transform="translate(28.239 39.53)" fill="none" stroke="#111" stroke-linecap="round" stroke-width="1.5"/>
      <line id="Line_10" data-name="Line 10" y2="5.199" transform="translate(35.389 40.18)" fill="none" stroke="#111" stroke-linecap="round" stroke-width="1.5"/>
      <line id="Line_11" data-name="Line 11" y2="3.25" transform="translate(42.538 41.48)" fill="none" stroke="#111" stroke-linecap="round" stroke-width="1.5"/>
      <line id="Line_12" data-name="Line 12" y2="1.95" transform="translate(49.687 42.13)" fill="none" stroke="#111" stroke-linecap="round" stroke-width="1.5"/>
    </g>
  </g>
</svg>
