<svg xmlns="http://www.w3.org/2000/svg" width="78.373" height="70.535" viewBox="0 0 78.373 70.535">
  <g id="Group_181" data-name="Group 181" transform="translate(0.764 0.785)">
    <path id="Path_160" data-name="Path 160" d="M-1439.982,2266.478c-19.176-3.4-21.838-39.57-13.258-55.362s41.739-12.3,52.589-7.8c11.625,4.819,16.515,12.433,18.874,26.25s-1.227,29.345-10.235,34.659C-1403.068,2270.745-1429.148,2268.4-1439.982,2266.478Z" transform="translate(1457.892 -2199.517)" fill="#fff" stroke="#111" stroke-width="1.5"/>
    <g id="Group_144" data-name="Group 144" transform="translate(12.458 9)">
      <g id="Group_139" data-name="Group 139" transform="translate(2.192 13.471)">
        <g id="Ellipse_39" data-name="Ellipse 39" transform="matrix(0.788, 0.616, -0.616, 0.788, 10.193, 0)" fill="#fff" stroke="#111" stroke-width="1.5">
          <circle cx="8.278" cy="8.278" r="8.278" stroke="none"/>
          <circle cx="8.278" cy="8.278" r="7.528" fill="none"/>
        </g>
        <g id="Ellipse_38" data-name="Ellipse 38" transform="matrix(0.788, 0.616, -0.616, 0.788, 10.601, 3.911)" fill="#fff" stroke="#111" stroke-width="1.5">
          <circle cx="5.617" cy="5.617" r="5.617" stroke="none"/>
          <circle cx="5.617" cy="5.617" r="4.867" fill="none"/>
        </g>
      </g>
      <g id="Path_128" data-name="Path 128" transform="translate(7.025 5.245)" fill="#fff">
        <path d="M 1.079910516738892 11.46353912353516 C 1.060730457305908 11.46353912353516 1.041500449180603 11.46308898925781 1.021930456161499 11.46219921112061 C 0.7259804606437683 11.44874954223633 -0.2538195550441742 11.32624912261963 -0.4362395405769348 10.31476974487305 C -0.5180095434188843 9.872029304504395 -0.3963495492935181 9.577838897705078 -0.1559595465660095 9.053309440612793 C 0.1497704535722733 8.386198997497559 0.5302704572677612 7.555949211120605 0.2368904650211334 6.24061918258667 C -0.1519628018140793 4.49720287322998 -0.383362352848053 2.666657686233521 -0.4231884479522705 2.339823961257935 C -0.3816928565502167 1.687585353851318 0.7855348587036133 0.7499992847442627 1.574400424957275 0.7499992847442627 C 1.8097904920578 0.7499992847442627 1.875710487365723 0.7953892946243286 1.876310467720032 0.7958492636680603 C 1.978840470314026 0.9097392559051514 1.978840470314026 1.561749219894409 1.978840470314026 1.912029266357422 L 1.978840470314026 2.056579351425171 L 2.032570362091064 2.190779209136963 C 2.040900468826294 2.211649179458618 2.877950429916382 4.322649478912354 3.050790548324585 6.129499435424805 C 3.185150384902954 7.534199237823486 2.879080533981323 10.02162933349609 1.954930424690247 11.0383996963501 C 1.691310405731201 11.32843971252441 1.413260459899902 11.46353912353516 1.079910516738892 11.46353912353516 Z" stroke="none"/>
        <path d="M 1.227331638336182 1.601053237915039 C 1.106287837028503 1.65501594543457 0.9651267528533936 1.733617782592773 0.8176004886627197 1.843879699707031 C 0.5327825546264648 2.056751251220703 0.3829054832458496 2.270966529846191 0.3367218971252441 2.372993469238281 C 0.4028406143188477 2.89472770690918 0.6224002838134766 4.523789405822754 0.9689104557037354 6.077349185943604 C 1.317220449447632 7.638989448547363 0.8409804105758667 8.678138732910156 0.5258505344390869 9.365769386291504 C 0.3094005584716797 9.838059425354004 0.2626605033874512 9.969399452209473 0.3007204532623291 10.17542934417725 L 0.3012905120849609 10.17853927612305 L 0.3018605709075928 10.18165969848633 C 0.340740442276001 10.39723968505859 0.4313905239105225 10.48736953735352 0.5149505138397217 10.54708957672119 C 0.6490904092788696 10.64297962188721 0.8462904691696167 10.70344924926758 1.055890440940857 10.71296882629395 C 1.064000487327576 10.71333885192871 1.07196044921875 10.71353912353516 1.079910516738892 10.71353912353516 C 1.142340421676636 10.71353912353516 1.236690402030945 10.71353912353516 1.399920463562012 10.53394889831543 C 2.082820415496826 9.782608985900879 2.44057035446167 7.62662935256958 2.304200410842896 6.200919151306152 C 2.142010450363159 4.505449295043945 1.343940496444702 2.488709449768066 1.33629047870636 2.469539642333984 L 1.228840470314026 2.201139450073242 L 1.228840470314026 1.912029266357422 C 1.228840470314026 1.822640419006348 1.228840589523315 1.712367057800293 1.227331638336182 1.601053237915039 M 1.574400424957275 -9.5367431640625e-07 C 2.717370510101318 -9.5367431640625e-07 2.728840351104736 0.7690591812133789 2.728840351104736 1.912029266357422 C 2.728840351104736 1.912029266357422 3.611730575561523 4.117319107055664 3.797380447387695 6.058079242706299 C 3.980663776397705 7.974190711975098 3.448175191879272 12.21353530883789 1.079909324645996 12.21353530883789 C 1.049456834793091 12.21353530883789 1.018932461738586 12.21284103393555 0.987870454788208 12.21142959594727 C 0.0654604434967041 12.16949939727783 -0.9562594890594482 11.65705966949463 -1.174329519271851 10.44787979125977 C -1.453199625015259 8.938089370727539 -0.05424952507019043 8.380518913269043 -0.495119571685791 6.403889179229736 C -0.9359896183013916 4.42725944519043 -1.174329519271851 2.375199317932129 -1.174329519271851 2.375199317932129 C -1.174329519271851 1.232239723205566 0.4314305782318115 -9.5367431640625e-07 1.574400424957275 -9.5367431640625e-07 Z" stroke="none" fill="#111"/>
      </g>
      <g id="Path_130" data-name="Path 130" transform="translate(14.724 4.654)" fill="#fff">
        <path d="M 2.276635408401489 13.53739643096924 C 1.894871234893799 13.47379302978516 1.453909635543823 13.37989902496338 1.041130065917969 13.25285530090332 C 0.0364200547337532 12.9436149597168 -0.2103899419307709 12.62481498718262 -0.2214899510145187 12.55637550354004 C -0.2834999561309814 12.18291473388672 -0.1424399465322495 11.59872531890869 0.0209000539034605 10.92229557037354 C 0.1401500552892685 10.4284553527832 0.2753100395202637 9.868724822998047 0.3637200593948364 9.258665084838867 C 0.4538900554180145 8.641304969787598 0.2105000615119934 7.842795372009277 -0.0471799448132515 6.997395038604736 C -0.2192499488592148 6.432855129241943 -0.3971799314022064 5.849085330963135 -0.4426799416542053 5.411575317382812 C -0.554629921913147 4.335124969482422 -0.4412099421024323 2.439835071563721 -0.440049946308136 2.420815229415894 L -0.4386599361896515 2.398035049438477 L -0.4386599361896515 2.375205039978027 C -0.4386599361896515 1.673695087432861 0.6439600586891174 0.7500051259994507 1.282520055770874 0.7500051259994507 C 1.881891250610352 0.7500051259994507 2.305209636688232 1.22377610206604 2.326867818832397 1.909160733222961 C 2.263620376586914 2.333387613296509 2.079046010971069 4.166957855224609 2.984380006790161 7.249475002288818 C 3.486030101776123 8.957494735717773 3.09893012046814 10.23862552642822 2.724570035934448 11.47756481170654 C 2.52311110496521 12.14429187774658 2.316943883895874 12.82663249969482 2.276635408401489 13.53739643096924 Z" stroke="none"/>
        <path d="M 1.289639472961426 1.50007438659668 C 1.207828044891357 1.510671615600586 0.9511044025421143 1.612186431884766 0.6830301284790039 1.857515335083008 C 0.4271667003631592 2.091669082641602 0.3217923641204834 2.312603950500488 0.3113400936126709 2.381595611572266 L 0.3113400936126709 2.420865058898926 L 0.3085601329803467 2.466435432434082 C 0.2773799896240234 2.978255271911621 0.2156400680541992 4.491154670715332 0.3032901287078857 5.333985328674316 C 0.3413200378417969 5.6995849609375 0.5085301399230957 6.248185157775879 0.6702401638031006 6.778725147247314 C 0.9531199932098389 7.706795215606689 1.220299959182739 8.583395004272461 1.105960130691528 9.366225242614746 C 1.012550115585327 10.01083564758301 0.8730399608612061 10.58859539031982 0.7499501705169678 11.09834480285645 C 0.6567652225494385 11.48424530029297 0.5458383560180664 11.943603515625 0.5185699462890625 12.23192405700684 C 0.6911191940307617 12.33260536193848 1.037275791168213 12.48869800567627 1.620780110359192 12.63613510131836 C 1.626543760299683 12.63759136199951 1.632341504096985 12.6390495300293 1.638103246688843 12.64049243927002 C 1.732624292373657 12.16745662689209 1.870613932609558 11.71074962615967 2.006619930267334 11.26063537597656 C 2.364980220794678 10.07466506958008 2.703459978103638 8.95445442199707 2.264780044555664 7.460824966430664 C 1.366581678390503 4.402605056762695 1.491230249404907 2.500889778137207 1.573901057243347 1.876145362854004 C 1.5603266954422 1.722034454345703 1.503206610679626 1.504790306091309 1.289639472961426 1.50007438659668 M 1.282520055770874 -4.76837158203125e-06 C 2.310080051422119 -4.76837158203125e-06 3.077739953994751 0.8216848373413086 3.077739953994751 1.964645385742188 C 3.077739953994751 1.964645385742188 2.726180076599121 3.708854675292969 3.70398998260498 7.038125038146973 C 4.68179988861084 10.36739540100098 2.65504002571106 12.27032470703125 3.077739953994751 14.38748550415039 C 2.248470067977905 14.34555530548096 -0.7657697200775146 13.88559532165527 -0.9618198871612549 12.67640495300293 C -1.103729963302612 11.82187461853027 -0.5923199653625488 10.62643527984619 -0.3785300254821777 9.151104927062988 C -0.2600698471069336 8.340044975280762 -1.069010019302368 6.639554977416992 -1.188659906387329 5.489165306091309 C -1.308299779891968 4.338765144348145 -1.188659906387329 2.375205039978027 -1.188659906387329 2.375205039978027 C -1.188659906387329 1.232234954833984 0.2549700736999512 -4.76837158203125e-06 1.282520055770874 -4.76837158203125e-06 Z" stroke="none" fill="#111"/>
      </g>
      <g id="Path_131" data-name="Path 131" transform="translate(18.039 5.245)" fill="#fff">
        <path d="M 1.88676655292511 15.35226249694824 C 1.35491418838501 15.30532455444336 0.8584057092666626 15.24160957336426 0.4216484725475311 15.16371440887451 C -0.9916205406188965 14.91164779663086 -1.315238952636719 14.60006141662598 -1.366263508796692 14.53943634033203 C -1.413101196289062 14.09524059295654 -1.026150226593018 12.35243892669678 -0.793081521987915 11.3026647567749 C -0.600681483745575 10.43607425689697 -0.4189515113830566 9.617554664611816 -0.3359715044498444 9.044944763183594 C -0.2499615103006363 8.456025123596191 -0.421251505613327 7.774074554443359 -0.638121485710144 6.910704612731934 C -0.792481541633606 6.296204566955566 -0.9674314856529236 5.599714756011963 -1.053731560707092 4.877834796905518 C -1.215097665786743 3.528173923492432 -0.9043282866477966 2.776576042175293 -0.8748195767402649 2.70917272567749 L -0.7864115238189697 2.546464681625366 L -0.796551525592804 2.375204563140869 C -0.796551525592804 1.673694610595703 0.2860684990882874 0.7500046491622925 0.9246284961700439 0.7500046491622925 C 1.51844048500061 0.7500046491622925 1.939448595046997 1.214980006217957 1.968268156051636 1.890096664428711 C 1.873349666595459 2.362442493438721 1.630195379257202 4.14132022857666 2.518768548965454 7.166754722595215 C 2.869868516921997 8.362184524536133 2.679868459701538 9.004324913024902 2.392268419265747 9.976334571838379 C 2.248208522796631 10.46322441101074 2.08491849899292 11.0150842666626 1.978708505630493 11.70002460479736 C 1.864466428756714 12.43467426300049 1.823932528495789 14.1590404510498 1.88676655292511 15.35226249694824 Z" stroke="none"/>
        <path d="M 0.9317471981048584 1.500083923339844 C 0.8499264717102051 1.51068115234375 0.5932128429412842 1.612186431884766 0.3251384496688843 1.857514381408691 C 0.07274258136749268 2.088495254516602 -0.03321516513824463 2.306611061096191 -0.04607367515563965 2.378704071044922 L -0.002051472663879395 2.701164245605469 L -0.1976140737533569 3.034538269042969 C -0.2431600093841553 3.155733108520508 -0.4340605735778809 3.743093490600586 -0.3090415000915527 4.78880500793457 C -0.2284015417098999 5.463284492492676 -0.05963146686553955 6.135174751281738 0.0892784595489502 6.727974891662598 C 0.3169784545898438 7.634504318237305 0.5136384963989258 8.417414665222168 0.4062584638595581 9.152503967285156 C 0.3192684650421143 9.752804756164551 0.1345984935760498 10.58462524414062 -0.06092154979705811 11.46527481079102 C -0.2361061573028564 12.25431156158447 -0.5070440769195557 13.47464942932129 -0.5918495655059814 14.1333122253418 C -0.2755541801452637 14.25621795654297 0.2921167612075806 14.40009117126465 1.111734390258789 14.51173686981201 C 1.096083998680115 13.40738964080811 1.143207192420959 12.19188117980957 1.237558484077454 11.58510398864746 C 1.351478457450867 10.85048484802246 1.522338509559631 10.27301406860352 1.673088431358337 9.763525009155273 C 1.940598487854004 8.859415054321289 2.087958574295044 8.361394882202148 1.799168467521667 7.378114700317383 C 0.9228497743606567 4.394404411315918 1.091901779174805 2.534963607788086 1.213008403778076 1.847265243530273 C 1.194872975349426 1.696294784545898 1.132271409034729 1.504511833190918 0.9317471981048584 1.500083923339844 M 0.9246284961700439 3.814697265625e-06 C 1.952178478240967 3.814697265625e-06 2.7198486328125 0.8216848373413086 2.7198486328125 1.964644432067871 C 2.7198486328125 1.964644432067871 2.260568618774414 3.626144409179688 3.238378524780273 6.955414772033691 C 3.848528385162354 9.032854080200195 3.025338649749756 9.844844818115234 2.7198486328125 11.81495475769043 C 2.580008506774902 12.71421432495117 2.560908555984497 15.36530494689941 2.7198486328125 16.1613655090332 C 1.890568494796753 16.11943435668945 -1.907121419906616 15.89427471160889 -2.103171586990356 14.68508434295654 C -2.245071411132812 13.8305549621582 -1.292021512985229 10.4127140045166 -1.078231573104858 8.937384605407715 C -0.9597616195678711 8.126324653625488 -1.595901489257812 6.660844802856445 -1.798431396484375 4.966875076293945 C -2.000961542129517 3.272894859313965 -1.546551465988159 2.375205039978027 -1.546551465988159 2.375205039978027 C -1.546551465988159 1.232234954833984 -0.1029314994812012 3.814697265625e-06 0.9246284961700439 3.814697265625e-06 Z" stroke="none" fill="#111"/>
      </g>
      <g id="Path_132" data-name="Path 132" transform="translate(20.663 5.245)" fill="#fff">
        <path d="M 0.2350602298974991 17.21451377868652 C 0.09572385996580124 17.21451377868652 -0.01701912097632885 17.20694160461426 -0.1069819182157516 17.19611358642578 C -0.2448184490203857 16.68728828430176 -0.2882712483406067 15.30739688873291 -0.3209097683429718 14.27107429504395 C -0.3338897526264191 13.85877418518066 -0.3473197519779205 13.43242454528809 -0.3654297590255737 12.99953460693359 C -0.4253897666931152 11.56614398956299 -0.2032197713851929 10.86871433258057 0.03200023248791695 10.13034439086914 C 0.1703502386808395 9.696023941040039 0.3134202361106873 9.246913909912109 0.3974802196025848 8.666864395141602 C 0.4845602214336395 8.070693969726562 0.272470235824585 7.532004356384277 0.04792023450136185 6.961674213409424 C -0.1517797708511353 6.45445442199707 -0.378129780292511 5.87956428527832 -0.4694197773933411 5.115954399108887 C -0.654329776763916 3.569374322891235 -0.4772397577762604 2.515434265136719 -0.4754297733306885 2.504974365234375 L -0.4644597768783569 2.441524267196655 L -0.4641197621822357 2.37520432472229 C -0.4641197621822357 1.673694252967834 0.6185002326965332 0.7500042915344238 1.257060289382935 0.7500042915344238 C 1.815526723861694 0.7500042915344238 2.221156597137451 1.161378860473633 2.291439533233643 1.771940469741821 C 1.98253333568573 2.358271837234497 1.503419160842896 3.845400810241699 2.332670211791992 6.668864250183105 C 2.738720178604126 8.05135440826416 2.497880220413208 9.18476390838623 2.219010353088379 10.4971342086792 C 2.121850252151489 10.95438385009766 2.021380186080933 11.42721462249756 1.942740201950073 11.93439388275146 C 1.844468832015991 12.56631088256836 2.042205095291138 14.05014514923096 2.601879835128784 16.85592651367188 C 2.540024757385254 16.86853981018066 2.474816799163818 16.8819580078125 2.405970335006714 16.8961238861084 C 2.110380172729492 16.95694351196289 1.77534019947052 17.0258846282959 1.39762020111084 17.0936336517334 C 0.9626802206039429 17.1728343963623 0.5613502264022827 17.21451377868652 0.2350602298974991 17.21451377868652 Z" stroke="none"/>
        <path d="M 1.264178991317749 1.500083923339844 C 1.182358264923096 1.51068115234375 0.9256446361541748 1.612186431884766 0.6575702428817749 1.857513427734375 C 0.4027043581008911 2.090755462646484 0.2971571683883667 2.310874938964844 0.2860076427459717 2.380775451660156 L 0.2887402772903442 2.500314712524414 L 0.263282299041748 2.634866714477539 C 0.25234055519104 2.704566955566406 0.1110086441040039 3.653010368347168 0.2752702236175537 5.026924133300781 C 0.3551102876663208 5.69465446472168 0.5537102222442627 6.199094772338867 0.7457802295684814 6.686923980712891 C 0.9963802099227905 7.323433876037598 1.255520224571228 7.981624603271484 1.13972020149231 8.77442455291748 C 1.046800255775452 9.415654182434082 0.8873202800750732 9.916294097900391 0.7466102838516235 10.35799407958984 C 0.5228002071380615 11.06058406829834 0.3295001983642578 11.6673641204834 0.3839201927185059 12.96818447113037 C 0.4021902084350586 13.40495491027832 0.4156802892684937 13.83326435089111 0.428720235824585 14.24747467041016 C 0.4511128664016724 14.95844841003418 0.4792321920394897 15.85139465332031 0.5366358757019043 16.45240020751953 C 0.7553189992904663 16.43607521057129 1.001630544662476 16.40341186523438 1.265220165252686 16.35541343688965 C 1.424795269966125 16.32679557800293 1.577198147773743 16.29782295227051 1.722362637519836 16.2693042755127 C 1.243449687957764 13.78420639038086 1.096279978752136 12.49673271179199 1.201590180397034 11.8194637298584 C 1.283430218696594 11.29170417785645 1.386100292205811 10.80851364135742 1.485390186309814 10.34124374389648 C 1.753740191459656 9.078364372253418 1.965700268745422 8.080863952636719 1.613070249557495 6.880214691162109 C 1.142350196838379 5.277483940124512 1.005900263786316 3.873444557189941 1.207520246505737 2.707094192504883 C 1.280987024307251 2.28211784362793 1.390560507774353 1.942310333251953 1.503893852233887 1.678253173828125 C 1.463980317115784 1.582090377807617 1.392175197601318 1.502910614013672 1.264178991317749 1.500083923339844 M 1.257060289382935 3.814697265625e-06 C 2.284610271453857 3.814697265625e-06 3.052280187606812 0.8216838836669922 3.052280187606812 1.964643478393555 C 3.052280187606812 1.964643478393555 2.074470281600952 3.128244400024414 3.052280187606812 6.457514762878418 C 3.662430286407471 8.534964561462402 2.989370346069336 10.07921409606934 2.68388032913208 12.04931449890137 C 2.544040203094482 12.94858360290527 3.33335018157959 16.68084335327148 3.492280244827271 17.47690391540527 C 3.484520673751831 17.47651100158691 3.476248264312744 17.476318359375 3.467555046081543 17.476318359375 C 3.19914436340332 17.476318359375 2.488836288452148 17.65988349914551 1.530030250549316 17.83185386657715 C 1.15590226650238 17.89998626708984 0.6813288927078247 17.96451568603516 0.2350616455078125 17.96451568603516 C -0.03563928604125977 17.96451568603516 -0.2958436012268066 17.9407958984375 -0.51712965965271 17.8797435760498 C -1.05731987953186 17.7354850769043 -1.013719797134399 15.446364402771 -1.114769697189331 13.0308837890625 C -1.215819835662842 10.61540412902832 -0.5585596561431885 10.03463459014893 -0.3447697162628174 8.559304237365723 C -0.2263097763061523 7.74825382232666 -1.011589765548706 6.898963928222656 -1.214119672775269 5.204994201660156 C -1.41664981842041 3.511013984680176 -1.214119672775269 2.375204086303711 -1.214119672775269 2.375204086303711 C -1.214119672775269 1.232234954833984 0.2295002937316895 3.814697265625e-06 1.257060289382935 3.814697265625e-06 Z" stroke="none" fill="#111"/>
      </g>
      <g id="Path_129" data-name="Path 129" transform="translate(9.39 2.263)" fill="#fff">
        <path d="M 1.54001522064209 9.715485572814941 C 1.539773225784302 9.715485572814941 1.539532780647278 9.715485572814941 1.53929078578949 9.715485572814941 C 1.134720683097839 9.715445518493652 0.8090207576751709 9.561965942382812 0.5142807364463806 9.232455253601074 C -0.3281692564487457 8.29062557220459 -0.5489592552185059 6.313745498657227 -0.4329092800617218 5.274235725402832 C -0.2635892629623413 3.757495641708374 0.5616007447242737 1.973355770111084 0.5699207186698914 1.955515742301941 L 0.6401107311248779 1.804895758628845 L 0.6402707099914551 1.638375759124756 C 0.6402707099914551 1.366319537162781 0.640272319316864 0.9153338670730591 0.7052520513534546 0.7951110005378723 C 0.7292888760566711 0.783776581287384 0.8198312520980835 0.7499957084655762 1.044720768928528 0.7499957084655762 C 1.89966607093811 0.7499957084655762 2.982410430908203 1.574221014976501 3.040983915328979 2.000274658203125 C 2.99343729019165 2.33111310005188 2.765257358551025 3.85078763961792 2.388450622558594 5.298405647277832 C 2.076100826263428 6.498355865478516 2.491930723190308 7.275835514068604 2.795560836791992 7.843535900115967 C 3.02168083190918 8.266295433044434 3.127390623092651 8.483325958251953 3.060310840606689 8.794486045837402 C 2.885970830917358 9.622805595397949 1.814990758895874 9.705955505371094 1.602060675621033 9.714255332946777 C 1.581117749214172 9.715065956115723 1.560534715652466 9.715485572814941 1.54001522064209 9.715485572814941 Z" stroke="none"/>
        <path d="M 1.390306353569031 1.568193435668945 C 1.390270709991455 1.59294319152832 1.390270709991455 1.616518974304199 1.390270709991455 1.638375282287598 L 1.389610767364502 1.971305847167969 L 1.249900698661804 2.271945953369141 C 1.242090702056885 2.288745880126953 0.4676306247711182 3.967455863952637 0.3124606609344482 5.35744571685791 C 0.1939506530761719 6.419065952301025 0.4772708415985107 8.066286087036133 1.073310732841492 8.732565879821777 C 1.246240735054016 8.925875663757324 1.384630680084229 8.965485572814941 1.539210677146912 8.965485572814941 C 1.55034077167511 8.965485572814941 1.561500787734985 8.965265274047852 1.57287073135376 8.964825630187988 C 1.859720706939697 8.953645706176758 2.282900810241699 8.84660530090332 2.325630664825439 8.643606185913086 L 2.326380729675293 8.640026092529297 L 2.327150821685791 8.636445999145508 C 2.330143928527832 8.622580528259277 2.330529928207397 8.615950584411621 2.330627918243408 8.615950584411621 C 2.330628156661987 8.615950584411621 2.330628395080566 8.615950584411621 2.330628395080566 8.615951538085938 C 2.32316780090332 8.550537109375 2.209477186203003 8.337958335876465 2.134210586547852 8.197256088256836 C 1.813370704650879 7.597375869750977 1.276380777359009 6.593355655670166 1.662630677223206 5.109485626220703 C 1.973152160644531 3.916537284851074 2.180617809295654 2.668781757354736 2.264772415161133 2.12065601348877 C 2.107966661453247 1.934432983398438 1.733062028884888 1.686379432678223 1.390306353569031 1.568193435668945 M 1.044720768928528 -3.814697265625e-06 C 2.187690734863281 -3.814697265625e-06 3.793470859527588 1.055875778198242 3.793470859527588 2.035255432128906 C 3.793470859527588 2.035255432128906 3.55513072013855 3.793615818023682 3.114260673522949 5.487335681915283 C 2.673380851745605 7.181065559387207 4.07235050201416 7.658835411071777 3.793470859527588 8.952535629272461 C 3.575400829315186 9.988656044006348 2.553670644760132 10.42775535583496 1.631250739097595 10.46368598937988 C 1.600188493728638 10.46489524841309 1.569664239883423 10.46549034118652 1.539211511611938 10.46549034118652 C -0.8290739059448242 10.46549034118652 -1.361572504043579 6.832893371582031 -1.178279161453247 5.191025733947754 C -0.9926292896270752 3.528035640716553 -0.1097292900085449 1.638375282287598 -0.1097292900085449 1.638375282287598 C -0.1097292900085449 0.6589860916137695 -0.09825921058654785 -3.814697265625e-06 1.044720768928528 -3.814697265625e-06 Z" stroke="none" fill="#111"/>
      </g>
      <line id="Line_45" data-name="Line 45" y1="4.139" transform="translate(13.921 20.323)" fill="none" stroke="#111" stroke-width="1.5"/>
      <line id="Line_46" data-name="Line 46" y1="1.774" x2="3.548" transform="translate(14.512 22.688)" fill="none" stroke="#111" stroke-width="1.5"/>
      <g id="Path_121" data-name="Path 121" transform="translate(1.48 3.548) rotate(1)" fill="#fff">
        <path d="M 47.89397048950195 4.362883567810059 L 1.210965037345886 3.639695644378662 L 1.20515501499176 3.639605522155762 L 1.199344992637634 3.639605522155762 C 0.9948473572731018 3.639605522155762 0.7670015096664429 3.357052087783813 0.7509106397628784 2.972180128097534 L 0.8770549893379211 2.032785654067993 L 0.8837249875068665 1.983095645904541 L 0.8837249875068665 1.932965636253357 C 0.8837249875068665 1.657225608825684 1.369935035705566 1.47428560256958 1.691534996032715 1.47428560256958 L 1.697414994239807 1.47428560256958 L 1.703294992446899 1.474195599555969 L 47.89407348632812 0.750029444694519 C 48.10519409179688 0.753673791885376 48.33955383300781 1.056453943252563 48.33955383300781 1.460835576057434 L 48.33955383300781 3.652075529098511 C 48.33955383300781 4.056507110595703 48.10511016845703 4.359312534332275 47.89397048950195 4.362883567810059 Z" stroke="none"/>
        <path d="M 47.58954620361328 1.504897832870483 L 1.715045928955078 2.224105596542358 L 1.703296661376953 2.22428560256958 L 1.691535949707031 2.22428560256958 C 1.666297912597656 2.22428560256958 1.636211395263672 2.228643894195557 1.6065673828125 2.235426902770996 L 1.518081665039062 2.894363641738892 L 47.58954620361328 3.608078002929688 L 47.58954620361328 1.504897832870483 M 47.89020538330078 -4.291534423828125e-06 C 48.55258560180664 -4.291534423828125e-06 49.08954620361328 0.6540355682373047 49.08954620361328 1.460835695266724 L 49.08954620361328 3.65207576751709 C 49.08954620361328 4.45887565612793 48.55258560180664 5.112915515899658 47.89020538330078 5.112915515899658 L 1.199333190917969 4.389605522155762 C 0.5369644165039062 4.389605522155762 -3.814697265625e-06 3.735565662384033 -3.814697265625e-06 2.928775548934937 L 0.1337165832519531 1.932965517044067 C 0.1337165832519531 1.126165628433228 1.029155731201172 0.7242856025695801 1.691535949707031 0.7242856025695801 L 47.89020538330078 -4.291534423828125e-06 Z" stroke="none" fill="#111"/>
      </g>
      <g id="Path_122" data-name="Path 122" transform="matrix(1, -0.017, 0.017, 1, 1.391, 0.857)" fill="#fff">
        <path d="M 47.89401626586914 4.362881660461426 L 1.703296422958374 3.638715505599976 L 1.697416424751282 3.638625621795654 L 1.691536426544189 3.638625621795654 C 1.369936347007751 3.638625621795654 0.8837264180183411 3.455685615539551 0.8837264180183411 3.179945707321167 L 0.8837264180183411 3.129815578460693 L 0.8770564198493958 3.080125570297241 L 0.7509021759033203 2.140727996826172 C 0.7669937014579773 1.755856156349182 0.9948487281799316 1.473305583000183 1.199346423149109 1.473305583000183 L 1.205156445503235 1.473305583000183 L 1.210966348648071 1.473215579986572 L 47.89391326904297 0.7500274181365967 C 48.10505294799805 0.7535987496376038 48.33949661254883 1.056404232978821 48.33949661254883 1.460835576057434 L 48.33949661254883 3.652075529098511 C 48.33949661254883 4.05645751953125 48.10513687133789 4.359237670898438 47.89401626586914 4.362881660461426 Z" stroke="none"/>
        <path d="M 47.58949661254883 3.608013391494751 L 47.58949661254883 1.504833102226257 L 1.518079280853271 2.218547821044922 L 1.606569528579712 2.877484083175659 C 1.636211276054382 2.88426685333252 1.66629946231842 2.888625621795654 1.691536426544189 2.888625621795654 L 1.703296422958374 2.888625621795654 L 1.715046405792236 2.888805627822876 L 47.58949661254883 3.608013391494751 M 47.89015579223633 5.112915515899658 L 1.691536426544189 4.388625621795654 C 1.029156446456909 4.388625621795654 0.1337264031171799 3.986745595932007 0.1337264031171799 3.179945707321167 L -3.601074240577873e-06 2.184135675430298 C -3.601074240577873e-06 1.377345561981201 0.5369663834571838 0.7233055830001831 1.199346423149109 0.7233055830001831 L 47.89015579223633 -4.387817170936614e-06 C 48.55253601074219 -4.387817170936614e-06 49.08949661254883 0.6540356278419495 49.08949661254883 1.460835576057434 L 49.08949661254883 3.652075529098511 C 49.08949661254883 4.45887565612793 48.55253601074219 5.112915515899658 47.89015579223633 5.112915515899658 Z" stroke="none" fill="#111"/>
      </g>
      <g id="Path_133" data-name="Path 133" transform="translate(16.612 34.896) rotate(-137)" fill="#fff">
        <path d="M 0.78947913646698 6.762979507446289 C 0.8331143856048584 6.488510608673096 0.9024844169616699 6.159454345703125 0.9524692296981812 5.922356605529785 C 1.041075944900513 5.502010345458984 1.125703096389771 5.100558757781982 1.154388427734375 4.769344329833984 C 2.066764116287231 3.183964729309082 2.671233892440796 2.194520473480225 3.106619119644165 1.573096394538879 C 3.574321985244751 0.9055408239364624 3.775660514831543 0.7737528085708618 3.82241415977478 0.7500810027122498 L 21.62215995788574 0.8470864295959473 C 21.71431541442871 0.8470950126647949 21.90047645568848 1.0520099401474 21.95107460021973 1.399664640426636 C 21.16429328918457 2.704992532730103 20.19828224182129 3.646926164627075 19.07717895507812 4.201376438140869 C 18.2374324798584 4.616685390472412 17.6041259765625 4.65447998046875 17.55266571044922 4.656877040863037 L 17.50669860839844 4.656606674194336 L 17.47122001647949 4.662716388702393 L 0.78947913646698 6.762979507446289 Z" stroke="none"/>
        <path d="M 4.100833892822266 1.501622676849365 C 3.588619232177734 2.071920394897461 2.448074340820312 4.025827407836914 1.883255004882812 5.006330490112305 C 1.848970413208008 5.282692432403564 1.790285110473633 5.580141067504883 1.725811004638672 5.889179229736328 L 17.37753868103027 3.918596506118774 L 17.43325805664062 3.90398645401001 L 17.53467178344727 3.906635522842407 C 17.72807502746582 3.892213344573975 19.4067268371582 3.707241535186768 20.92630767822266 1.593307018280029 L 4.100833892822266 1.501622676849365 M 3.806900024414062 -3.337860107421875e-06 L 21.62624931335449 0.09709644317626953 C 22.22700881958008 0.09709644317626953 22.71401977539062 0.7618265151977539 22.71401977539062 1.581816673278809 C 20.53847885131836 5.371256351470947 17.56490898132324 5.406846523284912 17.56490898132324 5.406846523284912 L 0.2254600524902344 7.589916229248047 C -0.3753013610839844 7.589916229248047 0.4146690368652344 5.371256351470947 0.4146690368652344 4.551266670227051 C 2.590219497680664 0.7618265151977539 3.206138610839844 -3.337860107421875e-06 3.806900024414062 -3.337860107421875e-06 Z" stroke="none" fill="#111"/>
      </g>
      <g id="Group_140" data-name="Group 140" transform="translate(34.67 13.317)">
        <path id="Path_64" data-name="Path 64" d="M3.525,4.759A4.246,4.246,0,0,1,2.173,6.42,2.876,2.876,0,0,1,.2,6.756,3.98,3.98,0,0,1,.928,4.528,4.451,4.451,0,0,1,2.893,3.446,4.311,4.311,0,0,1,.932,2.374,4.917,4.917,0,0,1,0,.019,3.415,3.415,0,0,1,2,.477,5.63,5.63,0,0,1,3.57,2.154" transform="translate(17.055 1.533) rotate(103)" fill="#fff" stroke="#111" stroke-width="1.5"/>
        <path id="Path_58" data-name="Path 58" d="M5.965,13.707a5.511,5.511,0,0,0,4.565-2.5c1.618-2.593,1.43-6.322.257-7.918A6.956,6.956,0,0,0,6.952.773C6.284.7,1.177-.222.911.05S0,.77,0,1.487A1.784,1.784,0,0,0,.917,2.919c.239.058,4.3,1.013,5.025,1.186s1.085.927,1.022,1.868A1.525,1.525,0,0,1,5.488,7.307a10.377,10.377,0,0,1-1.126.15c-.708.057-3.656.838-3.126,3.913S5.965,13.707,5.965,13.707Z" transform="matrix(-0.017, 1, -1, -0.017, 13.987, 3.61)" fill="#fff" stroke="#111" stroke-width="1.5"/>
        <path id="Path_60" data-name="Path 60" d="M2.567,5.694a7.553,7.553,0,0,0-.8-3.417A15.176,15.176,0,0,0,0,0" transform="matrix(-0.017, 1, -1, -0.017, 6.485, 8.773)" fill="#fff" stroke="#111" stroke-linecap="round" stroke-width="1.5"/>
        <path id="Path_61" data-name="Path 61" d="M4.46,2.03A6.463,6.463,0,0,0,2.354.327,5.114,5.114,0,0,0,0,.03" transform="matrix(-0.017, 1, -1, -0.017, 8.335, 10.548)" fill="#fff" stroke="#111" stroke-linecap="round" stroke-width="1.5"/>
        <path id="Path_62" data-name="Path 62" d="M3.233.859A5.726,5.726,0,0,0,1.538.05,3.617,3.617,0,0,0,0,.138" transform="matrix(0.921, 0.391, -0.391, 0.921, 10.053, 9.329)" fill="#fff" stroke="#111" stroke-linecap="round" stroke-width="1.5"/>
        <path id="Path_63" data-name="Path 63" d="M2.756.339A2.741,2.741,0,0,0,1.37.008,3.923,3.923,0,0,0,0,.506" transform="matrix(0.921, 0.391, -0.391, 0.921, 11.166, 5.854)" fill="#fff" stroke="#111" stroke-linecap="round" stroke-width="1.5"/>
      </g>
      <g id="Group_143" data-name="Group 143" transform="translate(24.045 22.998) rotate(-17)">
        <g id="Path_135" data-name="Path 135" transform="matrix(0.999, -0.052, 0.052, 0.999, 0, 0.625)" fill="#fff">
          <path d="M 5.91638708114624 7.178840160369873 C 4.811557292938232 7.178840160369873 3.517707109451294 6.686420440673828 2.366597175598145 5.827850341796875 C 1.305212616920471 5.036208629608154 0.7898267507553101 4.253232479095459 0.7510769367218018 4.012282848358154 C 0.7928444147109985 3.765161514282227 1.312022686004639 2.96088695526123 2.36942720413208 2.145070314407349 C 3.044727087020874 1.624050259590149 4.403507232666016 0.7500002980232239 5.91638708114624 0.7500002980232239 C 7.013637065887451 0.7500002980232239 8.320457458496094 1.254380345344543 9.501757621765137 2.13381028175354 C 10.58348083496094 2.939115762710571 11.13122367858887 3.733368873596191 11.18988227844238 3.98849892616272 C 11.13001823425293 4.241265296936035 10.58205223083496 5.025085926055908 9.504607200622559 5.816210269927979 C 8.325226783752441 6.682180404663086 7.017367362976074 7.178840160369873 5.91638708114624 7.178840160369873 Z" stroke="none"/>
          <path d="M 5.91638708114624 1.500000476837158 C 5.022686958312988 1.500000476837158 3.9881272315979 1.893290519714355 3.003276824951172 2.607430458068848 C 2.241812705993652 3.159586429595947 1.782849311828613 3.706976890563965 1.58415412902832 4.009336948394775 C 1.782855987548828 4.302149295806885 2.241331100463867 4.830728530883789 3.002437591552734 5.361910343170166 C 3.988267421722412 6.049930572509766 5.02312707901001 6.428840160369873 5.91638708114624 6.428840160369873 C 6.812597274780273 6.428840160369873 7.865597248077393 6.0419602394104 8.881406784057617 5.339460372924805 C 9.64401912689209 4.812068939208984 10.11858654022217 4.288834571838379 10.33814144134521 3.985435009002686 C 10.11913681030273 3.677815914154053 9.643351554870605 3.145260810852051 8.875826835632324 2.606690406799316 C 7.858777046203613 1.893030166625977 6.807767391204834 1.500000476837158 5.91638708114624 1.500000476837158 M 5.91638708114624 4.76837158203125e-07 C 8.899077415466309 4.76837158203125e-07 11.94984722137451 2.958490371704102 11.94248676300049 3.992900371551514 C 11.9351167678833 5.027310371398926 8.899077415466309 7.928840160369873 5.91638708114624 7.928840160369873 C 2.933687210083008 7.928840160369873 -0.03335285186767578 5.057940483093262 0.0002870559692382812 3.992900371551514 C 0.03391742706298828 2.927860260009766 2.933687210083008 4.76837158203125e-07 5.91638708114624 4.76837158203125e-07 Z" stroke="none" fill="#111"/>
        </g>
        <line id="Line_48" data-name="Line 48" x2="5.913" transform="translate(0.723 4.638)" fill="none" stroke="#111" stroke-linecap="round" stroke-width="1.5"/>
      </g>
      <g id="Group_142" data-name="Group 142" transform="translate(17.781 17.58)">
        <g id="Path_134" data-name="Path 134" transform="translate(0 9.013) rotate(-49)" fill="#fff">
          <path d="M 5.91638708114624 7.178840160369873 C 4.811557292938232 7.178840160369873 3.517707109451294 6.686420440673828 2.366597175598145 5.827850341796875 C 1.305212616920471 5.036208629608154 0.7898267507553101 4.253232479095459 0.7510769367218018 4.012282848358154 C 0.7928444147109985 3.765161514282227 1.312022686004639 2.96088695526123 2.36942720413208 2.145070314407349 C 3.044727087020874 1.624050259590149 4.403507232666016 0.7500002980232239 5.91638708114624 0.7500002980232239 C 7.013637065887451 0.7500002980232239 8.320457458496094 1.254380345344543 9.501757621765137 2.13381028175354 C 10.58348083496094 2.939115762710571 11.13122367858887 3.733368873596191 11.18988227844238 3.98849892616272 C 11.13001823425293 4.241265296936035 10.58205223083496 5.025085926055908 9.504607200622559 5.816210269927979 C 8.325226783752441 6.682180404663086 7.017367362976074 7.178840160369873 5.91638708114624 7.178840160369873 Z" stroke="none"/>
          <path d="M 5.91638708114624 1.500000476837158 C 5.022686958312988 1.500000476837158 3.9881272315979 1.893290519714355 3.003276824951172 2.607430458068848 C 2.241812705993652 3.159586429595947 1.782849311828613 3.706976890563965 1.58415412902832 4.009336948394775 C 1.782855987548828 4.302149295806885 2.241331100463867 4.830728530883789 3.002437591552734 5.361910343170166 C 3.988267421722412 6.049930572509766 5.02312707901001 6.428840160369873 5.91638708114624 6.428840160369873 C 6.812597274780273 6.428840160369873 7.865597248077393 6.0419602394104 8.881406784057617 5.339460372924805 C 9.64401912689209 4.812068939208984 10.11858654022217 4.288834571838379 10.33814144134521 3.985435009002686 C 10.11913681030273 3.677815914154053 9.643351554870605 3.145260810852051 8.875826835632324 2.606690406799316 C 7.858777046203613 1.893030166625977 6.807767391204834 1.500000476837158 5.91638708114624 1.500000476837158 M 5.91638708114624 4.76837158203125e-07 C 8.899077415466309 4.76837158203125e-07 11.94984722137451 2.958490371704102 11.94248676300049 3.992900371551514 C 11.9351167678833 5.027310371398926 8.899077415466309 7.928840160369873 5.91638708114624 7.928840160369873 C 2.933687210083008 7.928840160369873 -0.03335285186767578 5.057940483093262 0.0002870559692382812 3.992900371551514 C 0.03391742706298828 2.927860260009766 2.933687210083008 4.76837158203125e-07 5.91638708114624 4.76837158203125e-07 Z" stroke="none" fill="#111"/>
        </g>
        <line id="Line_47" data-name="Line 47" y1="4.139" x2="2.956" transform="translate(3.827 6.883)" fill="none" stroke="#111" stroke-linecap="round" stroke-width="1.5"/>
      </g>
      <g id="Group_141" data-name="Group 141" transform="translate(3.288 27.152)">
        <g id="Union_14" data-name="Union 14" fill="#fff">
          <path d="M 38.11196899414062 25.56960105895996 L 7.279538631439209 25.56960105895996 L 2.804630279541016 4.332200527191162 L 2.688820362091064 3.78260064125061 L 2.128830194473267 3.739090442657471 C 1.355650305747986 3.679030418395996 0.7500002980232239 3.02375054359436 0.7500002980232239 2.247300624847412 C 0.7500002980232239 1.421690583229065 1.421690225601196 0.750000536441803 2.247300386428833 0.750000536441803 L 42.69150161743164 0.750000536441803 C 43.51662063598633 0.750000536441803 44.18790054321289 1.421690583229065 44.18790054321289 2.247300624847412 C 44.18790054321289 2.902530431747437 43.75038909912109 3.491870641708374 43.12395095825195 3.680440425872803 L 42.69799041748047 3.808670520782471 L 42.60625839233398 4.243950366973877 L 38.11196899414062 25.56960105895996 Z" stroke="none"/>
          <path d="M 37.50355529785156 24.81960105895996 L 41.87237930297852 4.089290618896484 L 42.05585098266602 3.218730449676514 L 42.90776062011719 2.962280511856079 C 43.21990203857422 2.868310451507568 43.43790054321289 2.574300527572632 43.43790054321289 2.247300624847412 C 43.43790054321289 1.835240483283997 43.10306930541992 1.500000476837158 42.69150161743164 1.500000476837158 L 2.247300386428833 1.500000476837158 C 1.835240244865417 1.500000476837158 1.500000238418579 1.835240483283997 1.500000238418579 2.247300624847412 C 1.500000238418579 2.634600639343262 1.801730275154114 2.96142053604126 2.186920166015625 2.991350412368774 L 3.306900262832642 3.07835054397583 L 3.538510322570801 4.177570343017578 L 7.88796854019165 24.81960105895996 L 37.50355529785156 24.81960105895996 M 38.25180053710938 26.31960105895996 L 7.139700412750244 26.31960105895996 C 6.813000202178955 26.31960105895996 6.548400402069092 26.05860137939453 6.548400402069092 25.73730087280273 L 2.070740222930908 4.486840724945068 C 0.9121202826499939 4.396830558776855 2.716064386731887e-07 3.428150415420532 2.716064386731887e-07 2.247300624847412 C 2.716064386731887e-07 1.006200551986694 1.006200313568115 5.29479962096957e-07 2.247300386428833 5.29479962096957e-07 L 42.69150161743164 5.29479962096957e-07 C 43.93260192871094 5.29479962096957e-07 44.93790054321289 1.006200551986694 44.93790054321289 2.247300624847412 C 44.93790054321289 3.262150526046753 44.26482009887695 4.120250701904297 43.34014129638672 4.398610591888428 L 38.84310150146484 25.73730087280273 C 38.84310150146484 26.05860137939453 38.57849884033203 26.31960105895996 38.25180053710938 26.31960105895996 Z" stroke="none" fill="#111"/>
        </g>
        <line id="Line_44" data-name="Line 44" x1="39.5" transform="translate(3.08 3.814)" fill="none" stroke="#111" stroke-width="1.5"/>
      </g>
    </g>
  </g>
</svg>
