<svg xmlns="http://www.w3.org/2000/svg" width="77.553" height="70.546" viewBox="0 0 77.553 70.546">
  <g id="Group_409" data-name="Group 409" transform="translate(-1751.213 1104.768)">
    <path id="Path_40" data-name="Path 40" d="M-1397.052,2203.516c19.891,3.563,23.121,36.969,12.724,53.01-4.548,7.017-23.047,17.186-44.845,13.943s-22.326-12.491-24.774-26.963,2.928-30.412,12.272-35.979C-1430.207,2200.694-1408.292,2201.5-1397.052,2203.516Z" transform="translate(3206.537 -3306.09)" fill="#fff" stroke="#111" stroke-width="1.5"/>
    <g id="Group_102" data-name="Group 102" transform="translate(1760.062 -1089)">
      <path id="Path_67" data-name="Path 67" d="M2709.665,1220.235v-19.58s.823-6.255,6.841-7.85,32.284-.192,34.949-.758a6.748,6.748,0,0,0,4.334-2.521c1.154-1.144,1.425-2.223,4.387-2.46s3.335,1.765,6.332,3.51,4.753,2.329,5.482,3.129.956,4.7,0,5.292-10.616-.366-11.1,0,.631,4.309-.884,9.14-6.282,6.17-6.977,6.986-.306,7.451,0,8.176,1.788,2.809,1.364,3.314-12.034.56-12.63,0,0-9.134,0-9.134l-1.744-2.357v-4.476" transform="translate(-2709.659 -1184.341)" fill="none" stroke="#111" stroke-linecap="round" stroke-width="1.5"/>
      <path id="Path_68" data-name="Path 68" d="M2709.656,1216.853a12.876,12.876,0,0,0,2.439,3.549c.8.766,2.208,1.63,2.569,2.124a7.527,7.527,0,0,1,1.411,3.355c.053.753-.439,8.253,0,8.813s11.863.53,12.388,0-1.541-2.49-1.875-2.833-.446-7.689,0-7.808,13.4,0,13.4,0" transform="translate(-2709.656 -1192.251)" fill="none" stroke="#111" stroke-linecap="round" stroke-width="1.5"/>
      <path id="Path_69" data-name="Path 69" d="M2728.558,1219.265a10.9,10.9,0,0,1-.453,4.9c-.864,1.9-2.612,2.089-3,2.707s-.236,5.917,0,6.185,2.079,2.415,2.079,2.415" transform="translate(-2713.39 -1193.125)" fill="none" stroke="#111" stroke-linecap="round" stroke-width="1.5"/>
      <path id="Path_70" data-name="Path 70" d="M2728.558,1219.265a10.9,10.9,0,0,1-.453,4.9c-.864,1.9-2.612,2.089-3,2.707s-.236,5.917,0,6.185,2.079,2.415,2.079,2.415" transform="translate(-2687.736 -1193.125)" fill="none" stroke="#111" stroke-linecap="round" stroke-width="1.5"/>
      <path id="Path_71" data-name="Path 71" d="M2778.932,1185.44a6.028,6.028,0,0,1,2.656-1.95,14.918,14.918,0,0,1,2.87-.257c.773-.086,1.156-.635,1.425-.35a4.5,4.5,0,0,1-.311,3.5,5.091,5.091,0,0,1-2.313,2.1" transform="translate(-2726.661 -1182.801)" fill="none" stroke="#111" stroke-linecap="round" stroke-width="1.5"/>
      <path id="Path_72" data-name="Path 72" d="M2786.1,1185.44a6.026,6.026,0,0,0-2.656-1.95,14.924,14.924,0,0,0-2.87-.257c-.772-.086-1.155-.635-1.425-.35a4.5,4.5,0,0,0,.311,3.5,5.092,5.092,0,0,0,2.313,2.1" transform="translate(-2737.224 -1182.801)" fill="none" stroke="#111" stroke-linecap="round" stroke-width="1.5"/>
      <ellipse id="Ellipse_8" data-name="Ellipse 8" cx="1.224" cy="1.034" rx="1.224" ry="1.034" transform="translate(51.815 7.976)" fill="#111"/>
      <path id="Path_73" data-name="Path 73" d="M2741.243,1194.571s-.033.662,0,1.657c.045,1.293.084,3.461-.625,4.022-1.086.859-2.749.152-3.685,1.287s-.16,1.464-1.005,2.7-9.177.444-10.041.2a4.107,4.107,0,0,1-1.665-1.314c-.673-.714-.772-1.217-1.324-1.555-1.555-.952-2.5.132-3.322-.971s-.343-5.526-.343-5.526" transform="translate(-2711.973 -1186.335)" fill="none" stroke="#111" stroke-width="1.5"/>
      <path id="Path_74" data-name="Path 74" d="M2709.761,1211.011a6.578,6.578,0,0,1,6.95,3.031c2.554,4.111-1.48,6.512-1.48,6.512" transform="translate(-2709.682 -1191.271)" fill="none" stroke="#111" stroke-width="1.5"/>
      <path id="Path_75" data-name="Path 75" d="M2760.545,1202.556c.433-.419,2.448-.261,4.043-.281,1.112-.017,3.61-.19,5.036.811a12.714,12.714,0,0,1,2.085,1.434c.643.757.175,3.514,0,5.218,0,0-2.476-.031-4.488.094-3.664.229-10.169,0-10.169,0a2.2,2.2,0,0,1-1.813-2.311c.16-1.943,2.545-1.518,3.776-2.1S2759.685,1203.388,2760.545,1202.556Z" transform="translate(-2720.843 -1188.741)" fill="none" stroke="#111" stroke-width="1.5"/>
    </g>
  </g>
</svg>
