<svg xmlns="http://www.w3.org/2000/svg" width="118.511" height="85.348" viewBox="0 0 118.511 85.348">
  <g id="Group_175" data-name="Group 175" transform="translate(0.777)">
    <path id="Path_119" data-name="Path 119" d="M-1420.033,2201.44c-31.092,3.6-36.082,41.217-19.831,57.426,11.928,11.9,78.144,12.571,90.388,5.142s18.79-12.638,17.346-26.5-6.824-26.79-21.429-32.415C-1371.484,2198.189-1402.466,2199.405-1420.033,2201.44Z" transform="translate(1448.933 -2197.85)" fill="#fff" stroke="#111" stroke-width="1.5"/>
    <g id="Group_169" data-name="Group 169" transform="translate(8.663)">
      <g id="Group_117" data-name="Group 117" transform="translate(25.7 0)">
        <g id="Subtraction_2" data-name="Subtraction 2" transform="translate(19.883 13.16)" fill="#fff">
          <path d="M 2.99077033996582 51.55599975585938 L 2.990760326385498 51.55599975585938 C 2.264410257339478 51.55606842041016 1.575230240821838 51.18735885620117 1.147210240364075 50.56969833374023 C 0.7263802886009216 49.96241760253906 0.636020302772522 49.21158981323242 0.8993202447891235 48.50972747802734 L 2.500512838363647 44.2398567199707 C 3.748589992523193 45.28599548339844 5.329094409942627 45.86880111694336 6.985800266265869 45.86880111694336 C 10.83795070648193 45.86880111694336 13.97189998626709 42.73484802246094 13.97189998626709 38.88269805908203 C 13.97189998626709 35.07779312133789 10.91547298431396 31.97348785400391 7.128994464874268 31.89714622497559 L 11.69405364990234 19.72358131408691 C 12.98638153076172 20.6784725189209 14.5439338684082 21.19439888000488 16.18020057678223 21.19439888000488 C 20.35342979431152 21.19439888000488 23.74860000610352 17.79922866821289 23.74860000610352 13.62599945068359 C 23.74860000610352 9.664911270141602 20.68898010253906 6.404857635498047 16.8087329864502 6.084347724914551 L 18.26124954223633 2.210939407348633 C 18.59402084350586 1.323289275169373 19.4244499206543 0.7497693300247192 20.37689971923828 0.7497693300247192 C 20.97153091430664 0.7497693300247192 21.53334999084473 0.9841092824935913 21.95886993408203 1.409629344940186 L 50.89567184448242 30.3464298248291 C 51.43898010253906 30.88973999023438 51.66619110107422 31.66253852844238 51.50345993041992 32.41365051269531 C 51.3407096862793 33.16479110717773 50.81396865844727 33.7742805480957 50.09442901611328 34.04402923583984 L 3.796550273895264 51.40594863891602 C 3.531110286712646 51.50548934936523 3.260010242462158 51.55598068237305 2.99077033996582 51.55599975585938 Z" stroke="none"/>
          <path d="M 2.990700244903564 50.80599975585938 C 3.16972017288208 50.80598831176758 3.352250337600708 50.77156829833984 3.533210277557373 50.70370864868164 L 49.83115005493164 33.34175872802734 C 50.31082153320312 33.16193008422852 50.66197204589844 32.75560760498047 50.77046203613281 32.25484085083008 C 50.87895202636719 31.75409889221191 50.72750854492188 31.23892974853516 50.36534118652344 30.87675857543945 L 21.42854118347168 1.939959287643433 C 21.14468002319336 1.656099319458008 20.77120018005371 1.499769330024719 20.37689971923828 1.499769330024719 C 19.73043060302734 1.499769330024719 19.1888599395752 1.87312924861908 18.9634895324707 2.474279403686523 L 17.83841705322266 5.47449254989624 C 21.63333511352539 6.245240211486816 24.49860000610352 9.607397079467773 24.49860000610352 13.62599945068359 C 24.49860000610352 18.2127799987793 20.76698112487793 21.94439888000488 16.18020057678223 21.94439888000488 C 14.71534729003906 21.94439888000488 13.30771923065186 21.56806945800781 12.06839847564697 20.8613166809082 L 8.177413940429688 31.23733329772949 C 11.8794469833374 31.8121337890625 14.72189998626709 35.02166366577148 14.72189998626709 38.88269805908203 C 14.72189998626709 43.14839935302734 11.25150012969971 46.61880111694336 6.985800266265869 46.61880111694336 C 5.504611015319824 46.61880111694336 4.078375339508057 46.19807052612305 2.856574535369873 45.42634201049805 L 1.601530313491821 48.77314758300781 C 1.423330307006836 49.2481803894043 1.480910301208496 49.73448944091797 1.763660311698914 50.14252090454102 C 2.051590204238892 50.55801010131836 2.510290384292603 50.80603790283203 2.990690231323242 50.80599975585938 L 2.990700244903564 50.80599975585938 M 2.990830183029175 52.30599975585938 C 2.018520355224609 52.30608749389648 1.098870277404785 51.81669998168945 0.5307602882385254 50.99689102172852 C -0.03225972503423691 50.18442916870117 -0.1538697332143784 49.18188095092773 0.1971002668142319 48.24629974365234 L 2.206060171127319 42.8890495300293 C 3.395340204238892 44.30598068237305 5.136870384216309 45.11880111694336 6.985800266265869 45.11880111694336 C 10.42440032958984 45.11880111694336 13.22189998626709 42.3213005065918 13.22189998626709 38.88269805908203 C 13.22189998626709 35.44361114501953 10.42440032958984 32.64569854736328 6.985800266265869 32.64569854736328 C 6.661980152130127 32.64569854736328 6.336820125579834 32.67074966430664 6.019360065460205 32.72016906738281 L 11.3681001663208 18.45677947998047 C 12.6546106338501 19.73838996887207 14.36299991607666 20.44439888000488 16.18020057678223 20.44439888000488 C 19.93988037109375 20.44439888000488 22.99860000610352 17.38567924499512 22.99860000610352 13.62599945068359 C 22.99860000610352 9.866819381713867 19.93988037109375 6.808499336242676 16.18020057678223 6.808499336242676 C 16.03073120117188 6.808499336242676 15.87950038909912 6.813409328460693 15.73070049285889 6.823099136352539 L 17.55900001525879 1.947599291801453 C 18.00259017944336 0.7643393278121948 19.10868072509766 -0.0002306939713889733 20.37689971923828 -0.0002306939713889733 C 21.17187118530273 -0.0002306939713889733 21.92202949523926 0.3121293187141418 22.48920059204102 0.8792992830276489 L 51.42599868774414 29.81609916687012 C 52.15045928955078 30.54055976867676 52.45343017578125 31.57098007202148 52.2364501953125 32.57246017456055 C 52.01945877075195 33.57397079467773 51.31713104248047 34.38661956787109 50.35770034790039 34.74629974365234 L 4.059900283813477 52.10820007324219 C 3.709980249404907 52.23941802978516 3.350290298461914 52.30596923828125 2.990830183029175 52.30599975585938 Z" stroke="none" fill="#111"/>
        </g>
        <g id="Ellipse_27" data-name="Ellipse 27" transform="translate(39.848 38.967)" fill="none" stroke="#111" stroke-width="1.5">
          <ellipse cx="7.544" cy="7.544" rx="7.544" ry="7.544" stroke="none"/>
          <ellipse cx="7.544" cy="7.544" rx="6.794" ry="6.794" fill="none"/>
        </g>
        <path id="Path_96" data-name="Path 96" d="M2394.4,962.69c-.474-.2-2.651,1.294-3.43,2.89s.458,4.192.894,4.507,2.994-1.293,3.435-2.805S2394.869,962.891,2394.4,962.69Z" transform="translate(-2345.167 -935.045)" fill="none" stroke="#111" stroke-linecap="round" stroke-width="1.5"/>
        <path id="Path_97" data-name="Path 97" d="M3.682.018c-.474-.2-2.652,1.294-3.431,2.89S.71,7.1,1.146,7.416,4.14,6.123,4.581,4.61,4.156.219,3.682.018Z" transform="translate(30.758 40.132) rotate(-41)" fill="none" stroke="#111" stroke-linecap="round" stroke-width="1.5"/>
        <path id="Path_98" data-name="Path 98" d="M3.682.018c-.474-.2-2.652,1.294-3.431,2.89S.71,7.1,1.146,7.416,4.14,6.123,4.581,4.61,4.156.219,3.682.018Z" transform="matrix(0.602, -0.799, 0.799, 0.602, 53.553, 39.602)" fill="none" stroke="#111" stroke-linecap="round" stroke-width="1.5"/>
        <g id="Polygon_2" data-name="Polygon 2" transform="translate(35.525 85.348) rotate(-135)" fill="none">
          <path d="M22.389,6.008a3,3,0,0,1,5.462,0L48.313,51.023a3,3,0,0,1-2.731,4.241H4.659a3,3,0,0,1-2.731-4.241Z" stroke="none"/>
          <path d="M 25.12020683288574 5.749824523925781 C 24.89362716674805 5.749824523925781 24.12550735473633 5.813236236572266 23.75465774536133 6.629116058349609 L 3.293468475341797 51.64374542236328 C 3.078296661376953 52.11711502075195 3.116348266601562 52.63933563232422 3.397846221923828 53.0765266418457 C 3.679355621337891 53.51370620727539 4.1390380859375 53.76444625854492 4.659008026123047 53.76444625854492 L 45.58139801025391 53.76444625854492 C 46.10137557983398 53.76444625854492 46.5610466003418 53.51370620727539 46.84255599975586 53.0765266418457 C 47.12406539916992 52.63933563232422 47.16211700439453 52.11710357666016 46.94694519042969 51.64373397827148 L 26.48575592041016 6.629123687744141 C 26.11489677429199 5.813236236572266 25.34678649902344 5.749824523925781 25.12020683288574 5.749824523925781 M 25.12020301818848 4.249820709228516 C 26.21929931640625 4.249820709228516 27.31839752197266 4.836021423339844 27.8513069152832 6.008415222167969 L 48.31249618530273 51.02303314208984 C 49.21535491943359 53.00932312011719 47.76326751708984 55.26444625854492 45.58139801025391 55.26444625854492 L 4.659008026123047 55.26444625854492 C 2.477146148681641 55.26444625854492 1.025047302246094 53.00932312011719 1.92791748046875 51.02303314208984 L 22.38910675048828 6.008415222167969 C 22.92201232910156 4.836021423339844 24.0211067199707 4.249820709228516 25.12020301818848 4.249820709228516 Z" stroke="none" fill="#111"/>
        </g>
        <g id="Path_95" data-name="Path 95" transform="matrix(0.788, -0.616, 0.616, 0.788, 33.017, 10.872)" fill="#fff">
          <path d="M 11.153395652771 55.61871337890625 C 9.75660514831543 55.61871337890625 8.55986499786377 55.12224197387695 7.692535400390625 54.1829719543457 C 6.655946731567383 53.06040573120117 6.188437461853027 51.41901779174805 6.339579105377197 49.43417739868164 C 6.40510368347168 49.06833267211914 6.872313499450684 46.38632202148438 7.197844982147217 42.53550338745117 C 7.514985084533691 38.78395080566406 7.746025085449219 33.19009017944336 7.045745372772217 27.84562110900879 C 6.659224987030029 24.89573097229004 5.721595287322998 20.05173110961914 3.449725151062012 13.72705173492432 C 2.228626728057861 10.32763481140137 1.154876708984375 7.976336479187012 0.9153010249137878 7.462116241455078 C 0.5499462485313416 4.971293449401855 0.7993322014808655 3.166352510452271 1.656955242156982 2.09624171257019 C 2.301635265350342 1.291831612586975 3.303505182266235 0.8537415862083435 4.719785213470459 0.7569316029548645 C 4.787135124206543 0.7523316144943237 4.855255126953125 0.7500016093254089 4.922275066375732 0.7500016093254089 C 6.857405185699463 0.7500016093254089 8.438924789428711 2.716021537780762 9.424904823303223 4.365321636199951 C 10.55728530883789 6.259511470794678 11.17442512512207 8.170321464538574 11.1805248260498 8.189401626586914 L 11.19362545013428 8.230371475219727 L 11.21132564544678 8.26958179473877 C 11.24836540222168 8.351701736450195 14.93620491027832 16.60976219177246 16.24401473999023 26.59082221984863 C 17.55634498596191 36.60638046264648 16.51387596130371 48.64590072631836 16.50319480895996 48.76634216308594 L 16.5002555847168 48.79941177368164 L 16.5002555847168 48.8326416015625 C 16.5002555847168 52.57449340820312 14.10166549682617 55.61871337890625 11.153395652771 55.61871337890625 Z" stroke="none"/>
          <path d="M 4.922285079956055 1.5 C 4.872235298156738 1.5 4.821305274963379 1.501750946044922 4.770925521850586 1.505191802978516 C 3.575554847717285 1.586891174316406 2.748405456542969 1.933650970458984 2.242195129394531 2.565273284912109 C 1.531082153320312 3.45257568359375 1.329395294189453 5.02691650390625 1.642000198364258 7.246559143066406 C 1.958464622497559 7.932788848876953 2.992477416992188 10.23557662963867 4.15556526184082 13.47350311279297 C 6.450005531311035 19.86102294921875 7.398085594177246 24.76175117492676 7.789395332336426 27.74818229675293 C 8.498345375061035 33.15885925292969 8.265415191650391 38.81040191650391 7.945175170898438 42.59868240356445 C 7.626914024353027 46.36363983154297 7.172787666320801 49.02983093261719 7.084687232971191 49.52783966064453 C 6.958096504211426 51.28269577026367 7.358193397521973 52.71536254882812 8.243545532226562 53.67415237426758 C 8.965175628662109 54.45563125610352 9.97137451171875 54.86870193481445 11.15339469909668 54.86870193481445 C 12.32027530670166 54.86870193481445 13.43718528747559 54.282470703125 14.29837512969971 53.21800231933594 C 15.23463535308838 52.06072998046875 15.7502555847168 50.50331115722656 15.7502555847168 48.8326416015625 L 15.75026512145996 48.76618194580078 L 15.75612545013428 48.70011138916016 C 15.76672554016113 48.58044052124023 16.80150604248047 36.61835098266602 15.50036525726318 26.68826103210449 C 14.20826530456543 16.82707214355469 10.56418514251709 8.659042358398438 10.52775573730469 8.578189849853516 L 10.49250507354736 8.499710083007812 L 10.46659469604492 8.419219970703125 C 10.46057510375977 8.400520324707031 9.85191535949707 6.528270721435547 8.75600528717041 4.708221435546875 C 7.159365653991699 2.056602478027344 5.789935111999512 1.5 4.922285079956055 1.5 M 4.922285079956055 0 C 9.349108695983887 0 11.89487457275391 7.960952758789062 11.89487457275391 7.960952758789062 C 11.89487457275391 7.960952758789062 15.6488151550293 16.27546310424805 16.98765563964844 26.49338150024414 C 18.32650566101074 36.7113037109375 17.2502555847168 48.8326416015625 17.2502555847168 48.8326416015625 C 17.2502555847168 52.99470138549805 14.52059555053711 56.36870193481445 11.15339469909668 56.36870193481445 C 7.786205291748047 56.36870193481445 5.242885589599609 53.74951171875 5.594785690307617 49.33815002441406 C 5.594785690307617 49.33815002441406 7.640945434570312 38.16099166870117 6.302104949951172 27.94306182861328 C 4.963254928588867 17.72514343261719 0.1897850036621094 7.681552886962891 0.1897850036621094 7.681552886962891 C -0.3707752227783203 4.0054931640625 0.08592605590820312 0.3219032287597656 4.668644905090332 0.0086822509765625 C 4.753676414489746 0.00286865234375 4.838594436645508 0 4.922285079956055 0 Z" stroke="none" fill="#111"/>
        </g>
      </g>
      <g id="Group_119" data-name="Group 119" transform="translate(0 15.105)">
        <path id="Path_100" data-name="Path 100" d="M2349.977,1113.315s-.711,8.663-.428,9.67,2.962,15.251,25.606,11.808,25.3-18.11,25.491-19.353.129-11.046-.48-11.214S2349.977,1113.315,2349.977,1113.315Z" transform="translate(-2349.482 -1097.086)" fill="#fff" stroke="#111" stroke-width="1.5"/>
        <path id="Path_99" data-name="Path 99" d="M2373.923,1098.279c-6.43,1.643-12.037-.91-18.063,1.179s-7.234,8.053-5.623,12.6,8.93,11.56,21.835,10.235a40.235,40.235,0,0,0,23.73-10.235c3.98-3.39,8.483-14.431,0-18S2380.353,1096.636,2373.923,1098.279Z" transform="translate(-2349.521 -1092.961)" fill="#fff" stroke="#111" stroke-width="1.5"/>
        <line id="Line_19" data-name="Line 19" x2="18.694" y2="12.04" transform="translate(13.636 10.481)" fill="none" stroke="#111" stroke-linecap="round" stroke-width="1.5"/>
        <line id="Line_20" data-name="Line 20" x2="14.892" y2="9.505" transform="translate(23.141 9.847)" fill="none" stroke="#111" stroke-linecap="round" stroke-width="1.5"/>
        <line id="Line_21" data-name="Line 21" x2="12.357" y2="8.238" transform="translate(30.745 7.312)" fill="none" stroke="#111" stroke-linecap="round" stroke-width="1.5"/>
        <line id="Line_22" data-name="Line 22" x2="17.427" y2="11.406" transform="translate(5.398 13.016)" fill="none" stroke="#111" stroke-linecap="round" stroke-width="1.5"/>
        <line id="Line_23" data-name="Line 23" x1="33.586" y2="12.04" transform="translate(11.418 10.481)" fill="none" stroke="#111" stroke-linecap="round" stroke-width="1.5"/>
        <line id="Line_24" data-name="Line 24" x1="36.754" y2="13.308" transform="translate(6.982 5.411)" fill="none" stroke="#111" stroke-linecap="round" stroke-width="1.5"/>
        <line id="Line_25" data-name="Line 25" x1="6.971" y2="2.535" transform="translate(27.26 19.986)" fill="none" stroke="#111" stroke-linecap="round" stroke-width="1.5"/>
        <path id="Path_101" data-name="Path 101" d="M11.406,0A22.373,22.373,0,0,1,5.769.838,24.1,24.1,0,0,1,0,0" transform="translate(15.22 33.928)" fill="none" stroke="#111" stroke-linecap="round" stroke-width="1.5"/>
        <path id="Path_102" data-name="Path 102" d="M3.933-2.092a9.5,9.5,0,0,1-1.912.886A14.563,14.563,0,0,1,0-.766" transform="translate(29.795 34.06)" fill="none" stroke="#111" stroke-linecap="round" stroke-width="1.5"/>
      </g>
    </g>
  </g>
</svg>
