<svg xmlns="http://www.w3.org/2000/svg" width="118.507" height="70.536" viewBox="0 0 118.507 70.536">
  <g id="Group_174" data-name="Group 174" transform="translate(-5.269 -241.253)">
    <path id="Path_38" data-name="Path 38" d="M-1362.065,2201.431c30.9,3.62,36.868,41.434,20.72,57.728-11.853,11.96-79.678,12.636-91.845,5.169s-17.658-12.705-16.222-26.64,4.753-25.881,19.266-31.535C-1412.334,2199.213-1379.521,2199.386-1362.065,2201.431Z" transform="translate(1455.635 -1958.164)" fill="#fff" stroke="#111" stroke-width="1.5"/>
    <g id="Group_164" data-name="Group 164" transform="translate(-31.294 11.674)">
      <g id="Group_161" data-name="Group 161" transform="translate(-2147.175 -1003.334)">
        <g id="Path_154" data-name="Path 154" transform="translate(2206.199 1283.335)" fill="#fff">
          <path d="M 10.13680744171143 7.062742710113525 C 8.191327095031738 7.062742710113525 5.704147338867188 6.769712448120117 3.48359751701355 6.278882503509521 C 1.263595700263977 5.788177013397217 0.07132942974567413 5.268462657928467 -0.2500024735927582 5.008617877960205 L -0.2500024735927582 -0.06354745477437973 C -0.2500024735927582 -0.7177574634552002 0.2822375297546387 -1.249997496604919 0.9364475607872009 -1.249997496604919 L 19.65541839599609 -1.249997496604919 C 20.30963706970215 -1.249997496604919 20.84187698364258 -0.7177574634552002 20.84187698364258 -0.06354745477437973 L 20.84187698364258 4.998105049133301 C 20.50161933898926 5.260115146636963 19.25576782226562 5.781898975372314 16.94117736816406 6.276722431182861 C 14.63895797729492 6.768902778625488 12.0952672958374 7.062742710113525 10.13680744171143 7.062742710113525 Z" stroke="none"/>
          <path d="M 0.9364566802978516 -0.499997615814209 C 0.6957969665527344 -0.499997615814209 0.4999980926513672 -0.3042073249816895 0.4999980926513672 -0.06354761123657227 L 0.4999980926513672 4.578473091125488 C 0.979827880859375 4.810536861419678 2.039876937866211 5.208266735076904 3.919467926025391 5.605812549591064 C 6.043587684631348 6.055072784423828 8.309717178344727 6.312742710113525 10.13680744171143 6.312742710113525 C 11.98116779327393 6.312742710113525 14.30491733551025 6.053062438964844 16.51223754882812 5.600282669067383 C 18.48185729980469 5.196269512176514 19.59012603759766 4.794366359710693 20.09187698364258 4.559752464294434 L 20.09187698364258 -0.06354761123657227 C 20.09187698364258 -0.3042073249816895 19.89607810974121 -0.499997615814209 19.65541839599609 -0.499997615814209 L 0.9364566802978516 -0.499997615814209 M 0.9364566802978516 -1.999997615814209 L 19.65541839599609 -1.999997615814209 C 20.72489738464355 -1.999997615814209 21.59187698364258 -1.133017539978027 21.59187698364258 -0.06354761123657227 L 21.59187698364258 5.173822402954102 C 21.59187698364258 6.243302345275879 14.81654739379883 7.812742710113525 10.13680744171143 7.812742710113525 C 5.457067489624023 7.812742710113525 -1.000001907348633 6.243302345275879 -1.000001907348633 5.173822402954102 L -1.000001907348633 -0.06354761123657227 C -1.000001907348633 -1.133017539978027 -0.1330223083496094 -1.999997615814209 0.9364566802978516 -1.999997615814209 Z" stroke="none" fill="#111"/>
        </g>
        <g id="Path_158" data-name="Path 158" transform="translate(2189.686 1254.535)" fill="#fff">
          <path d="M 26.73614311218262 17.53860092163086 L 26.55438423156738 17.53838157653809 C 20.08218383789062 17.52273178100586 14.38297367095947 16.71609115600586 9.615074157714844 15.14087200164795 C 6.055153846740723 13.96475219726562 3.13814377784729 12.35721206665039 1.611983776092529 10.7304515838623 C 0.9525337219238281 10.02754211425781 0.7358437180519104 9.496841430664062 0.7506437301635742 9.255951881408691 C 0.7822837233543396 8.741071701049805 2.500393629074097 6.630661964416504 7.75218391418457 4.386881828308105 C 10.25851345062256 3.316071748733521 13.02277374267578 2.460121870040894 15.96817398071289 1.84279191493988 C 19.38841438293457 1.125951886177063 22.95009422302246 0.758331835269928 26.55427360534668 0.7501418590545654 L 26.67417335510254 0.750001847743988 C 33.88571548461914 0.750001847743988 39.66326522827148 2.224941968917847 43.24015426635742 3.462261915206909 C 47.94362258911133 5.089282035827637 50.94679260253906 7.003911972045898 52.1889533996582 8.253191947937012 C 52.83051300048828 8.898422241210938 52.84685516357422 9.196762084960938 52.84683227539062 9.199591636657715 C 52.84344482421875 9.444392204284668 52.55039215087891 10.11405181884766 51.4735221862793 11.07105159759521 C 50.67727279663086 11.77867221832275 49.21032333374023 12.8536319732666 46.74358367919922 13.9562816619873 C 43.08761215209961 15.59052181243896 36.6488037109375 17.53860092163086 26.73614311218262 17.53860092163086 Z" stroke="none"/>
          <path d="M 26.67417335510254 1.500001907348633 L 26.55598449707031 1.500141143798828 C 23.1304931640625 1.50792121887207 19.74058532714844 1.845382690429688 16.48040390014648 2.503141403198242 C 13.66149520874023 3.071871757507324 10.99910354614258 3.864511489868164 8.567203521728516 4.859051704406738 C 3.883934020996094 6.774300575256348 1.84527587890625 8.70588493347168 1.518711090087891 9.320133209228516 C 1.701622009277344 9.823599815368652 3.034934997558594 11.63630867004395 7.34228515625 13.48356246948242 C 10.82797241210938 14.97843170166016 16.99089431762695 16.76525115966797 26.55619430541992 16.78838157653809 L 26.73614311218262 16.78860092163086 C 36.22612380981445 16.78860092163086 42.45683288574219 14.97701168060303 46.01265335083008 13.45727157592773 C 48.40372467041016 12.43534183502197 49.8699951171875 11.42828178405762 50.67900466918945 10.7634220123291 C 51.56499099731445 10.03529834747314 51.93778991699219 9.498181343078613 52.05788040161133 9.248360633850098 C 51.6414794921875 8.595356941223145 49.4859733581543 6.700442314147949 44.73053359985352 4.814372062683105 C 42.23969268798828 3.826461791992188 39.53683471679688 3.040401458740234 36.6970329284668 2.478021621704102 C 33.42001342773438 1.829051971435547 30.0478343963623 1.500001907348633 26.67417335510254 1.500001907348633 M 26.6741771697998 3.814697265625e-06 C 42.28256607055664 3.814697265625e-06 53.62973022460938 6.830158233642578 53.59676361083984 9.209951400756836 C 53.56383514404297 11.58784294128418 45.12423706054688 18.28860473632812 26.73613929748535 18.28860473632812 C 26.67420387268066 18.28860473632812 26.6147346496582 18.28853225708008 26.55257415771484 18.28838157653809 C 8.035255432128906 18.24359130859375 -0.1489067077636719 11.66651153564453 0.002044677734375 9.209951400756836 C 0.1529922485351562 6.753392219543457 10.88216400146484 0.0357513427734375 26.55257415771484 0.000141143798828125 C 26.59274482727051 5.14984130859375e-05 26.63406181335449 3.814697265625e-06 26.6741771697998 3.814697265625e-06 Z" stroke="none" fill="#111"/>
        </g>
        <g id="Group_159" data-name="Group 159" transform="translate(2204.021 1249.231)">
          <g id="Ellipse_49" data-name="Ellipse 49" fill="#fff" stroke="#111" stroke-width="1.5">
            <ellipse cx="12.91" cy="13.555" rx="12.91" ry="13.555" stroke="none"/>
            <ellipse cx="12.91" cy="13.555" rx="12.16" ry="12.805" fill="none"/>
          </g>
          <g id="Ellipse_48" data-name="Ellipse 48" transform="translate(4.518 4.518)" fill="#fff" stroke="#111" stroke-width="1.5">
            <ellipse cx="8.714" cy="9.037" rx="8.714" ry="9.037" stroke="none"/>
            <ellipse cx="8.714" cy="9.037" rx="7.964" ry="8.287" fill="none"/>
          </g>
          <g id="Ellipse_47" data-name="Ellipse 47" transform="translate(9.477 8.342)" fill="#fff" stroke="#111" stroke-width="1.5">
            <circle cx="3.873" cy="3.873" r="3.873" stroke="none"/>
            <circle cx="3.873" cy="3.873" r="3.123" fill="none"/>
          </g>
        </g>
        <g id="Group_160" data-name="Group 160" transform="translate(2189.175 1253.104)">
          <g id="Ellipse_49-2" data-name="Ellipse 49" transform="translate(0 0)" fill="#fff" stroke="#111" stroke-width="1.5">
            <ellipse cx="9.846" cy="10.338" rx="9.846" ry="10.338" stroke="none"/>
            <ellipse cx="9.846" cy="10.338" rx="9.096" ry="9.588" fill="none"/>
          </g>
          <g id="Ellipse_48-2" data-name="Ellipse 48" transform="translate(3.446 3.446)" fill="#fff" stroke="#111" stroke-width="1.5">
            <ellipse cx="6.646" cy="6.892" rx="6.646" ry="6.892" stroke="none"/>
            <ellipse cx="6.646" cy="6.892" rx="5.896" ry="6.142" fill="none"/>
          </g>
        </g>
        <g id="Group_158" data-name="Group 158" transform="translate(2193.048 1257.622)">
          <g id="Ellipse_49-3" data-name="Ellipse 49" transform="translate(0 0)" fill="#fff" stroke="#111" stroke-width="1.5">
            <ellipse cx="12.91" cy="13.555" rx="12.91" ry="13.555" stroke="none"/>
            <ellipse cx="12.91" cy="13.555" rx="12.16" ry="12.805" fill="none"/>
          </g>
          <g id="Ellipse_48-3" data-name="Ellipse 48" transform="translate(4.518 4.518)" fill="#fff" stroke="#111" stroke-width="1.5">
            <ellipse cx="8.714" cy="9.037" rx="8.714" ry="9.037" stroke="none"/>
            <ellipse cx="8.714" cy="9.037" rx="7.964" ry="8.287" fill="none"/>
          </g>
          <g id="Ellipse_47-2" data-name="Ellipse 47" transform="translate(9.477 8.342)" fill="#fff" stroke="#111" stroke-width="1.5">
            <circle cx="3.873" cy="3.873" r="3.873" stroke="none"/>
            <circle cx="3.873" cy="3.873" r="3.123" fill="none"/>
          </g>
        </g>
        <g id="Group_156" data-name="Group 156" transform="translate(2227.189 1245.191)">
          <g id="Group_155" data-name="Group 155" transform="translate(0 0)">
            <g id="Path_156" data-name="Path 156" transform="matrix(-0.208, -0.978, 0.978, -0.208, 7.59, 9.354)" fill="#fff">
              <path d="M 4.264045238494873 3.748597860336304 C 2.673117160797119 3.748597860336304 1.218911647796631 2.731852769851685 0.8213186860084534 2.274544239044189 C 1.219363689422607 1.802395105361938 2.676677465438843 0.7499978542327881 4.264045238494873 0.7499978542327881 C 5.002045154571533 0.7499978542327881 5.851345062255859 0.9946678280830383 6.655505180358887 1.438927888870239 C 7.232564449310303 1.757725358009338 7.595550060272217 2.074930667877197 7.768688201904297 2.263861894607544 C 7.329526424407959 2.738240242004395 5.845350742340088 3.748597860336304 4.264045238494873 3.748597860336304 Z" stroke="none"/>
              <path d="M 4.264045238494873 1.499997854232788 C 3.421385288238525 1.499997854232788 2.564252376556396 1.894362688064575 1.997989177703857 2.264411211013794 C 2.564907550811768 2.620456457138062 3.420944690704346 2.998597860336304 4.264045238494873 2.998597860336304 C 5.108692646026611 2.998597860336304 5.977946758270264 2.619392871856689 6.566109657287598 2.256160497665405 C 5.97850513458252 1.886605501174927 5.108668804168701 1.499997854232788 4.264045238494873 1.499997854232788 M 4.264045238494873 -1.9073486328125e-06 C 6.413724899291992 -1.9073486328125e-06 8.612464904785156 1.678567886352539 8.607165336608887 2.26545786857605 C 8.601855278015137 2.852347850799561 6.413724899291992 4.498597621917725 4.264045238494873 4.498597621917725 C 2.114355087280273 4.498597621917725 -0.02403450012207031 2.869727849960327 0.0002050399780273438 2.26545786857605 C 0.02444553375244141 1.661187887191772 2.114355087280273 -1.9073486328125e-06 4.264045238494873 -1.9073486328125e-06 Z" stroke="none" fill="#111"/>
            </g>
            <g id="Path_157" data-name="Path 157" transform="translate(8.731 9.267) rotate(-56)" fill="#fff">
              <path d="M 4.894761562347412 3.748597860336304 C 4.018861293792725 3.748597860336304 3.030351400375366 3.507657766342163 2.111331462860107 3.070167779922485 C 1.481516242027283 2.770350933074951 1.071724414825439 2.467694997787476 0.865348756313324 2.274038553237915 C 1.07096254825592 2.075293064117432 1.478900671005249 1.764113187789917 2.104981422424316 1.454577803611755 C 3.023991346359253 1.000227808952332 4.014751434326172 0.7499978542327881 4.894761562347412 0.7499978542327881 C 6.710848808288574 0.7499978542327881 8.434203147888184 1.755697131156921 8.996317863464355 2.259926080703735 C 8.775845527648926 2.457026720046997 8.355925559997559 2.75693154335022 7.723921298980713 3.055737972259521 C 6.778911590576172 3.502537965774536 5.774161338806152 3.748597860336304 4.894761562347412 3.748597860336304 Z" stroke="none"/>
              <path d="M 4.894761562347412 1.499997854232788 C 3.857160568237305 1.499997854232788 2.858783721923828 1.887948751449585 2.179094314575195 2.263676881790161 C 2.85919713973999 2.625840902328491 3.856367588043213 2.998597860336304 4.894761562347412 2.998597860336304 C 5.933451652526855 2.998597860336304 6.944009304046631 2.625978946685791 7.646556854248047 2.257881641387939 C 6.929197311401367 1.879899740219116 5.901307582855225 1.499997854232788 4.894761562347412 1.499997854232788 M 4.894761562347412 -1.9073486328125e-06 C 7.362411499023438 -1.9073486328125e-06 9.886371612548828 1.678567886352539 9.880281448364258 2.26545786857605 C 9.874191284179688 2.852347850799561 7.362411499023438 4.498597621917725 4.894761562347412 4.498597621917725 C 2.427101612091064 4.498597621917725 -0.02759838104248047 2.869727849960327 0.0002317428588867188 2.26545786857605 C 0.0280609130859375 1.661187887191772 2.427101612091064 -1.9073486328125e-06 4.894761562347412 -1.9073486328125e-06 Z" stroke="none" fill="#111"/>
            </g>
            <g id="Union_15" data-name="Union 15" transform="translate(0 6.175)" fill="#fff">
              <path d="M 7.744414329528809 16.6784610748291 L 7.744404315948486 16.6784610748291 C 7.188024044036865 16.67847061157227 6.661434173583984 16.49684143066406 6.221574306488037 16.15320205688477 C 5.945633888244629 15.93763160705566 5.723124027252197 15.67318153381348 5.560214042663574 15.36719131469727 L 5.384834289550781 15.03778171539307 L 5.016304016113281 14.97901153564453 C 3.502234220504761 14.73756122589111 2.194724082946777 13.83832168579102 1.429034113883972 12.51186180114746 C 0.7270141243934631 11.29616165161133 0.5608240962028503 9.885421752929688 0.9610241055488586 8.539402008056641 L 1.036294102668762 8.286252021789551 L 0.9363241195678711 8.041791915893555 C 0.6000040769577026 7.219321727752686 0.7302740812301636 6.274391651153564 1.276304125785828 5.575731754302979 C 1.63931405544281 5.111071586608887 2.156664133071899 4.790611743927002 2.733154058456421 4.673271656036377 L 3.346434116363525 4.548441410064697 L 3.333404064178467 3.92272162437439 C 3.321413993835449 3.347201585769653 3.502844095230103 2.802651643753052 3.858084201812744 2.347931623458862 C 4.330984115600586 1.74260151386261 5.043454170227051 1.395421504974365 5.812794208526611 1.395421504974365 C 6.093133926391602 1.395421504974365 6.368584156036377 1.442261576652527 6.631504058837891 1.53464150428772 L 7.051494121551514 1.682211518287659 L 7.382194042205811 1.384211540222168 C 7.836044311523438 0.9752315878868103 8.424903869628906 0.7500015497207642 9.040284156799316 0.7500015497207642 C 9.596673965454102 0.7500015497207642 10.12326431274414 0.9316415786743164 10.56313419342041 1.275281548500061 C 11.42484378814697 1.948471546173096 11.74307441711426 3.086691617965698 11.35499382019043 4.107601642608643 L 11.13770389556885 4.679231643676758 L 11.65389442443848 5.00715160369873 C 11.7224645614624 5.050711631774902 11.78979396820068 5.098231792449951 11.85399436950684 5.148391723632812 C 12.93049430847168 5.989381790161133 13.12215423583984 7.549331665039062 12.28121376037598 8.625771522521973 C 12.24609375 8.670722007751465 12.20890426635742 8.715121269226074 12.17067432403564 8.757721900939941 L 11.8743839263916 9.087881088256836 L 12.02102375030518 9.506561279296875 C 12.30173397064209 10.30801200866699 12.15772438049316 11.18535137176514 11.63579368591309 11.8534517288208 C 11.36110401153564 12.20507144927979 10.99759387969971 12.47580146789551 10.58457374572754 12.63637161254883 L 9.952303886413574 12.88218116760254 L 10.13362407684326 13.53586196899414 C 10.34620380401611 14.3022518157959 10.18780422210693 15.10047149658203 9.699044227600098 15.72585201263428 C 9.22606372833252 16.33129119873047 8.513653755187988 16.6784610748291 7.744414329528809 16.6784610748291 Z" stroke="none"/>
              <path d="M 7.744414329528809 15.92846202850342 C 8.281173706054688 15.92846202850342 8.778163909912109 15.68636131286621 9.108114242553711 15.26401138305664 C 9.448894500732422 14.82798194885254 9.559253692626953 14.27116203308105 9.410903930664062 13.73633193969727 L 9.048274040222168 12.42895126342773 L 10.31280422210693 11.93734169006348 C 10.60004425048828 11.82567119598389 10.85316371917725 11.63699150085449 11.04476451873779 11.39173126220703 C 11.40873432159424 10.92583179473877 11.50908374786377 10.31377124786377 11.31318378448486 9.754491806030273 L 11.01990413665771 8.917131423950195 L 11.61248397827148 8.256801605224609 C 11.63937377929688 8.226831436157227 11.66553401947021 8.195611953735352 11.69019412994385 8.16405200958252 C 12.27653408050537 7.413501739501953 12.14287376403809 6.325811386108398 11.39229393005371 5.739431381225586 C 11.34716415405273 5.704181671142578 11.2998743057251 5.670791625976562 11.25173377990723 5.640211582183838 L 10.21935367584229 4.984381675720215 L 10.65393447875977 3.841111660003662 C 10.92446422576904 3.129441499710083 10.70242404937744 2.335831642150879 10.10140419006348 1.866301536560059 C 9.79466438293457 1.626671552658081 9.427734375 1.500001549720764 9.040284156799316 1.500001549720764 C 8.610664367675781 1.500001549720764 8.200114250183105 1.65675151348114 7.88426399230957 1.941371560096741 L 7.222854137420654 2.537381649017334 L 6.382874011993408 2.242231607437134 C 6.20004415512085 2.177991628646851 6.008244037628174 2.145421504974365 5.812794208526611 2.145421504974365 C 5.275924205780029 2.145421504974365 4.778883934020996 2.387521505355835 4.449104309082031 2.809661626815796 C 4.13616418838501 3.210241556167603 4.077414035797119 3.627551555633545 4.083234310150146 3.907101631164551 L 4.109303951263428 5.158541679382324 L 2.882744073867798 5.408201694488525 C 2.598594188690186 5.466041564941406 2.191784143447876 5.62213134765625 1.867234110832214 6.037581443786621 C 1.486514091491699 6.524721622467041 1.395804047584534 7.183921337127686 1.630524158477783 7.757911682128906 L 1.830454111099243 8.246831893920898 L 1.679914116859436 8.753151893615723 C 1.339024066925049 9.899681091308594 1.480564117431641 11.10132122039795 2.07858419418335 12.13691139221191 C 2.730764150619507 13.26672172546387 3.844574213027954 14.03268146514893 5.134414196014404 14.23837184906006 L 5.871484279632568 14.35591125488281 L 6.22223424911499 15.01473140716553 C 6.335494041442871 15.22746181488037 6.49061393737793 15.41164112091064 6.683304309844971 15.56218147277832 C 6.990034103393555 15.80181121826172 7.356954097747803 15.92847156524658 7.744394302368164 15.92846202850342 L 7.744414329528809 15.92846202850342 M 7.744414329528809 17.4284610748291 C 7.049684047698975 17.42847061157227 6.349793910980225 17.20511245727539 5.759844303131104 16.74422073364258 C 5.392384052276611 16.45715141296387 5.104033946990967 16.10628128051758 4.898194313049316 15.719651222229 C 3.229044198989868 15.45347118377686 1.690324068069458 14.46471118927002 0.7794840931892395 12.88681125640869 C -0.05138589441776276 11.44798183441162 -0.1967158913612366 9.801631927490234 0.2421241104602814 8.325661659240723 C -0.1819158941507339 7.288691520690918 -0.05374589562416077 6.059601783752441 0.6853740811347961 5.1138916015625 C 1.177604079246521 4.483811378479004 1.857084155082703 4.086211681365967 2.583564043045044 3.938341617584229 C 2.568634033203125 3.221561670303345 2.791234016418457 2.495281457901001 3.267054080963135 1.886211514472961 C 3.903546333312988 1.071473956108093 4.853330612182617 0.6454219818115234 5.812797069549561 0.6454219818115234 C 6.17255687713623 0.6454219818115234 6.533622264862061 0.705302357673645 6.880124092102051 0.82705157995224 C 7.484506130218506 0.2824308276176453 8.259206771850586 7.412719469357398e-07 9.040285110473633 7.412719469357398e-07 C 9.735067367553711 7.412719469357398e-07 10.43486022949219 0.2233316600322723 11.02486419677734 0.6842615604400635 C 12.16764450073242 1.577021598815918 12.54568386077881 3.086011648178101 12.05605411529541 4.374091625213623 C 12.1445837020874 4.430331707000732 12.23134422302246 4.491451740264893 12.31570434570312 4.557351589202881 C 13.72040367126465 5.654741764068604 13.96962451934814 7.682791709899902 12.87224388122559 9.087491989135742 C 12.82609367370605 9.146561622619629 12.77819442749023 9.203671455383301 12.72886371612549 9.258641242980957 C 13.07999420166016 10.26114177703857 12.92936420440674 11.41588115692139 12.2268238067627 12.31517124176025 C 11.85622406005859 12.78955173492432 11.37944412231445 13.13203144073486 10.85633373260498 13.33540153503418 C 11.12056446075439 14.28800201416016 10.94530391693115 15.34919166564941 10.28998374938965 16.18769073486328 C 9.653473854064941 17.00244140625 8.703873634338379 17.4284610748291 7.744414329528809 17.4284610748291 Z" stroke="none" fill="#111"/>
            </g>
          </g>
          <line id="Line_49" data-name="Line 49" y2="1.291" transform="translate(8.671 10.527)" fill="none" stroke="#111" stroke-width="2"/>
          <line id="Line_50" data-name="Line 50" y2="1.291" transform="translate(6.089 13.109)" fill="none" stroke="#111" stroke-width="2"/>
          <line id="Line_51" data-name="Line 51" y2="1.291" transform="translate(8.671 15.691)" fill="none" stroke="#111" stroke-width="2"/>
        </g>
        <g id="Group_157" data-name="Group 157" transform="translate(2211.767 1257.622)">
          <g id="Ellipse_49-4" data-name="Ellipse 49" transform="translate(0 0)" fill="#fff" stroke="#111" stroke-width="1.5">
            <ellipse cx="12.91" cy="13.555" rx="12.91" ry="13.555" stroke="none"/>
            <ellipse cx="12.91" cy="13.555" rx="12.16" ry="12.805" fill="none"/>
          </g>
          <g id="Ellipse_48-4" data-name="Ellipse 48" transform="translate(4.518 4.518)" fill="#fff" stroke="#111" stroke-width="1.5">
            <ellipse cx="8.714" cy="9.037" rx="8.714" ry="9.037" stroke="none"/>
            <ellipse cx="8.714" cy="9.037" rx="7.964" ry="8.287" fill="none"/>
          </g>
          <g id="Ellipse_47-3" data-name="Ellipse 47" transform="translate(9.477 8.342)" fill="#fff" stroke="#111" stroke-width="1.5">
            <circle cx="3.873" cy="3.873" r="3.873" stroke="none"/>
            <circle cx="3.873" cy="3.873" r="3.123" fill="none"/>
          </g>
        </g>
        <g id="Subtraction_7" data-name="Subtraction 7" transform="translate(2189.707 1263.436)" fill="#fff">
          <path d="M 27.04255676269531 23.13185882568359 C 25.39670753479004 23.13185882568359 23.48910713195801 23.03337860107422 23.47003746032715 23.03237915039062 L 23.45051765441895 23.03137016296387 L 23.43087768554688 23.03135871887207 C 20.36869621276855 23.03135871887207 17.39848709106445 22.43180847167969 14.60275745391846 21.24934959411621 C 11.90201663970947 20.10706901550293 9.476346969604492 18.47164916992188 7.393126964569092 16.38850021362305 C 5.309886932373047 14.30531978607178 3.674396991729736 11.87971973419189 2.532097101211548 9.179079055786133 C 1.637700796127319 7.064580917358398 1.076794385910034 4.850378036499023 0.8565532565116882 2.571921348571777 C 1.084730267524719 2.789523601531982 1.314848303794861 2.988626718521118 1.530567049980164 3.16417932510376 C 2.838597059249878 4.228639602661133 4.62071704864502 5.247459411621094 6.684267044067383 6.110489368438721 C 10.34105682373047 7.639859199523926 16.75239753723145 9.467899322509766 26.52952766418457 9.491518974304199 L 26.71490669250488 9.491518974304199 C 36.48765563964844 9.491209030151367 42.99111557006836 7.615789413452148 46.72595596313477 6.042559623718262 C 49.27621459960938 4.968315601348877 51.39107513427734 3.661050796508789 52.73682403564453 2.379877090454102 C 52.53007507324219 4.725990772247314 51.96305084228516 7.005200386047363 51.04354858398438 9.179079055786133 C 49.90121841430664 11.87973976135254 48.26572799682617 14.30533981323242 46.1825065612793 16.38850021362305 C 44.09928512573242 18.47164916992188 41.67361831665039 20.10706901550293 38.97287750244141 21.24934959411621 C 36.17714691162109 22.43180847167969 33.20693588256836 23.03135871887207 30.14475631713867 23.03135871887207 L 30.1183967590332 23.03135871887207 L 30.09210777282715 23.0332088470459 C 30.07811737060547 23.03418922424316 28.66493606567383 23.13185882568359 27.04255676269531 23.13185882568359 Z" stroke="none"/>
          <path d="M 27.04255676269531 22.38185882568359 C 28.63397789001465 22.38185882568359 30.02602767944336 22.2859992980957 30.03945732116699 22.28505897521973 L 30.0920467376709 22.28135871887207 L 30.14475631713867 22.28135871887207 C 33.10601806640625 22.28135871887207 35.97793579101562 21.70174026489258 38.68072509765625 20.5585994720459 C 41.29205703735352 19.45413017272949 43.63759613037109 17.8726692199707 45.65217590332031 15.85816955566406 C 47.66676712036133 13.8436393737793 49.24827575683594 11.4981689453125 50.35279846191406 8.886909484863281 C 50.9984245300293 7.360520362854004 51.46434020996094 5.779989242553711 51.74758148193359 4.160072326660156 C 50.44846725463867 5.088576793670654 48.83065414428711 5.969818115234375 47.01709747314453 6.733749389648438 C 43.21856689453125 8.333799362182617 36.61290740966797 10.2411994934082 26.71490669250488 10.2415189743042 L 26.52771759033203 10.2415189743042 C 16.62695693969727 10.21759986877441 10.11462688446045 8.358119010925293 6.394876956939697 6.802419185638428 C 4.660435199737549 6.07702112197876 3.113921403884888 5.241060256958008 1.863303542137146 4.356371402740479 C 2.149259567260742 5.90772008895874 2.60331130027771 7.422221183776855 3.222846984863281 8.886909484863281 C 4.32733678817749 11.49814987182617 5.908846855163574 13.84361934661865 7.923447132110596 15.85815906524658 C 9.938036918640137 17.8726692199707 12.28357696533203 19.45413017272949 14.89490699768066 20.5585994720459 C 17.59769630432129 21.70174026489258 20.46961784362793 22.28135871887207 23.43087768554688 22.28135871887207 L 23.47011756896973 22.28137016296387 L 23.50901794433594 22.28339958190918 C 23.52796745300293 22.28437995910645 25.42227745056152 22.38185882568359 27.04255676269531 22.38185882568359 M 27.04255676269531 23.88185882568359 C 25.37964630126953 23.88185882568359 23.45017623901367 23.78236961364746 23.43087768554688 23.78135871887207 C 20.26778793334961 23.78135871887207 17.19926643371582 23.16186904907227 14.31059741973877 21.94010925292969 C 11.52046680450439 20.76001930236816 9.014666557312012 19.07061958312988 6.862806797027588 16.91883850097656 C 4.710947036743164 14.76703929901123 3.021476984024048 12.26131916046143 1.841346979141235 9.471249580383301 C 0.6195170283317566 6.582639217376709 -2.998657237185398e-06 3.514159440994263 -2.998657237185398e-06 0.3510594069957733 C -2.998657237185398e-06 0.2637294232845306 0.009667001664638519 0.1766094118356705 0.02871700190007687 0.0921294093132019 C 0.2171770036220551 0.8144593834877014 0.9182170033454895 1.698879361152649 2.003967046737671 2.582459449768066 C 3.257006883621216 3.602169513702393 4.975487232208252 4.582879543304443 6.973647117614746 5.418569564819336 C 10.56747722625732 6.921609401702881 16.87782669067383 8.718199729919434 26.53133773803711 8.741518974304199 L 26.71490669250488 8.741518974304199 C 36.3624382019043 8.741209030151367 42.76367568969727 6.897769451141357 46.43480682373047 5.35137939453125 C 50.8068962097168 3.509719371795654 53.14472579956055 1.336649417877197 53.52212524414062 -5.871581834071549e-07 C 53.55803680419922 0.1146194115281105 53.57563781738281 0.2327394187450409 53.57563781738281 0.3510594069957733 C 53.57563781738281 3.514159440994263 52.95611572265625 6.582639217376709 51.73429870605469 9.471249580383301 C 50.55414581298828 12.26131916046143 48.86468887329102 14.76703929901123 46.71282577514648 16.91883850097656 C 44.56096649169922 19.07061958312988 42.05516815185547 20.76001930236816 39.26503753662109 21.94010925292969 C 36.37636566162109 23.16186904907227 33.30785751342773 23.78135871887207 30.14475631713867 23.78135871887207 C 30.13054656982422 23.7823600769043 28.70053672790527 23.88185882568359 27.04255676269531 23.88185882568359 Z" stroke="none" fill="#111"/>
        </g>
      </g>
      <g id="Group_163" data-name="Group 163" transform="translate(-2203 -978.974)">
        <g id="Group_162" data-name="Group 162" transform="translate(2295 1246.639)">
          <g id="Rectangle_71" data-name="Rectangle 71" transform="translate(9.236 14.561)" fill="#fff" stroke="#111" stroke-width="1.5">
            <path d="M0,0H37.572a0,0,0,0,1,0,0V1.774a3,3,0,0,1-3,3H3a3,3,0,0,1-3-3V0A0,0,0,0,1,0,0Z" stroke="none"/>
            <path d="M1.5.75H36.072a.75.75,0,0,1,.75.75v.274a2.25,2.25,0,0,1-2.25,2.25H3A2.25,2.25,0,0,1,.75,1.774V1.5A.75.75,0,0,1,1.5.75Z" fill="none"/>
          </g>
          <g id="Path_159" data-name="Path 159" transform="translate(2 0)" fill="#fff">
            <path d="M 46.74637222290039 15.81901741027832 L -0.08837941288948059 15.81901741027832 C -0.5503016710281372 15.81901741027832 -1.216114521026611 14.86913299560547 -1.248749256134033 13.37032318115234 C 0.3779907822608948 8.380505561828613 1.951155304908752 4.771085739135742 3.427880525588989 2.640507698059082 C 4.675040721893311 0.8411377668380737 5.412220478057861 0.7499977350234985 5.547330379486084 0.7499977350234985 L 52.382080078125 0.7499977350234985 C 52.84400177001953 0.7499977350234985 53.50981521606445 1.69988214969635 53.54244995117188 3.198691844940186 C 51.91569900512695 8.188508987426758 50.34253692626953 11.79792976379395 48.86581039428711 13.92850780487061 C 47.61865997314453 15.72787761688232 46.8814811706543 15.81901741027832 46.74637222290039 15.81901741027832 Z" stroke="none"/>
            <path d="M 5.580204010009766 1.499998092651367 C 5.401153564453125 1.559691429138184 3.08770751953125 2.536667823791504 -0.4945220947265625 13.47680950164795 C -0.449432373046875 14.37878131866455 -0.1370658874511719 14.91814231872559 0.01842880249023438 15.06901741027832 L 46.71349716186523 15.06901741027832 C 46.89254760742188 15.0093240737915 49.20598220825195 14.03234672546387 52.78822326660156 3.092195510864258 C 52.74313354492188 2.190231323242188 52.43076324462891 1.650873184204102 52.27526473999023 1.499998092651367 L 5.580204010009766 1.499998092651367 M 5.547328948974609 -1.9073486328125e-06 L 52.382080078125 -1.9073486328125e-06 C 53.43783187866211 -1.9073486328125e-06 54.293701171875 1.483637809753418 54.293701171875 3.313797950744629 C 50.47045135498047 15.08537769317627 47.80213165283203 16.56901741027832 46.74637222290039 16.56901741027832 L -0.08837890625 16.56901741027832 C -1.144138336181641 16.56901741027832 -2 15.08537769317627 -2 13.25520801544189 C 1.8232421875 1.483637809753418 4.491569519042969 -1.9073486328125e-06 5.547328948974609 -1.9073486328125e-06 Z" stroke="none" fill="#111"/>
          </g>
        </g>
        <g id="Group_153" data-name="Group 153" transform="translate(2304.341 1231)">
          <g id="Group_149" data-name="Group 149" transform="translate(1.592)">
            <g id="Path_138" data-name="Path 138" transform="translate(3.608 2.698)" fill="#fff">
              <path d="M 26.90763473510742 16.76400756835938 L 8.967361450195312 11.53100299835205 L 8.86449146270752 11.50100326538086 L 8.757341384887695 11.50100326538086 C 7.821601867675781 11.50100326538086 6.940821647644043 11.54901313781738 6.089041709899902 11.59543323516846 C 5.364821910858154 11.63491344451904 4.680751800537109 11.67219352722168 4.063801765441895 11.67219352722168 C 2.817041635513306 11.67219352722168 2.045691728591919 11.51231288909912 1.562731742858887 11.15378284454346 C 0.8342517018318176 10.61300373077393 0.7500017285346985 9.527103424072266 0.7500017285346985 8.757343292236328 C 0.7500017285346985 6.973183155059814 1.839751720428467 5.844753265380859 4.179511547088623 5.206113338470459 C 6.454211711883545 4.585223197937012 9.423431396484375 4.585223197937012 11.59146213531494 4.585223197937012 L 11.68455219268799 4.585223197937012 L 11.77482128143311 4.562463283538818 L 26.89384841918945 0.7505133748054504 C 31.26724815368652 0.7995898127555847 34.81012344360352 4.372535228729248 34.81012344360352 8.757343292236328 C 34.81012344360352 13.13757038116455 31.27472877502441 16.70762825012207 26.90763473510742 16.76400756835938 Z" stroke="none"/>
              <path d="M 26.9804573059082 1.502147674560547 L 11.95818138122559 5.289703369140625 L 11.77764129638672 5.335223197937012 L 11.59146118164062 5.335223197937012 C 9.465850830078125 5.335223197937012 6.554731369018555 5.335223197937012 4.37700080871582 5.929643630981445 C 3.38580322265625 6.200193405151367 2.645240783691406 6.568413734436035 2.175872802734375 7.024083137512207 C 1.714759826660156 7.471743583679199 1.5 8.022493362426758 1.5 8.757343292236328 C 1.5 9.696803092956543 1.671512603759766 10.3004732131958 2.009773254394531 10.5515832901001 C 2.345710754394531 10.80096340179443 3.017581939697266 10.92219352722168 4.063791275024414 10.92219352722168 C 4.660331726074219 10.92219352722168 5.334482192993164 10.88545322418213 6.048221588134766 10.84654331207275 C 6.910032272338867 10.79957389831543 7.801172256469727 10.75100326538086 8.757341384887695 10.75100326538086 L 8.971641540527344 10.75100326538086 L 9.177371978759766 10.81101322174072 L 27.00733757019043 16.0118408203125 C 30.91487312316895 15.9031867980957 34.06012344360352 12.69066429138184 34.06012344360352 8.757343292236328 C 34.06012344360352 4.814985275268555 30.90046882629395 1.596742630004883 26.9804573059082 1.502147674560547 M 26.80278205871582 3.814697265625e-06 C 31.63932228088379 3.814697265625e-06 35.56012344360352 3.920793533325195 35.56012344360352 8.757343292236328 C 35.56012344360352 13.59389305114746 31.63932228088379 17.51468276977539 26.80278205871582 17.51468276977539 L 8.757341384887695 12.25100326538086 C 7.030719757080078 12.25100326538086 5.420278549194336 12.42219257354736 4.06379508972168 12.42219257354736 C 1.620548248291016 12.42219257354736 0 11.86727142333984 0 8.757343292236328 C 0 3.920793533325195 6.754911422729492 3.835223197937012 11.59146118164062 3.835223197937012 L 26.80278205871582 3.814697265625e-06 Z" stroke="none" fill="#111"/>
            </g>
            <path id="Path_139" data-name="Path 139" d="M2371.638,1268.611a27.993,27.993,0,0,0-15.021,8.787c-2.6,2.85-3.838,4.86-3.287,6.669,1.139,3.737,5.719,2.147,8.476,1.238s6.763-3.73,12.806-5.875,8.2-2.4,11.366-2.7c3.2-.311,6.322.069,6.892-.622C2395.4,1273.045,2385.654,1265.624,2371.638,1268.611Z" transform="translate(-2353.202 -1267.916)" fill="#fff" stroke="#111" stroke-width="1.5"/>
            <path id="Path_140" data-name="Path 140" d="M2367.872,1271.164a27.059,27.059,0,0,0-10.188,5.689,30.826,30.826,0,0,0-5.277,5.945s-.96,1.716-.709,2.01c1.508,1.856,6.585-.862,8.961-1.553,2.582-.752,6.332-3.088,11.991-4.863a40.671,40.671,0,0,1,10.643-2.239c3-.258,7.1-.269,7.632-.841.293-.314-3.152-3.8-8.831-4.846A30.418,30.418,0,0,0,2367.872,1271.164Z" transform="translate(-2351.643 -1269.921)" fill="#fff" stroke="#111" stroke-width="1.5"/>
            <g id="Group_147" data-name="Group 147" transform="translate(9.712 0.159)">
              <path id="Path_142" data-name="Path 142" d="M0,0A6.2,6.2,0,0,1,1.73,1.1a4.1,4.1,0,0,1,.924,1.55" transform="translate(0 3.866)" fill="none" stroke="#111" stroke-width="1.5"/>
              <path id="Path_143" data-name="Path 143" d="M-.641-.622A9.427,9.427,0,0,1,1.918,1.515,7.976,7.976,0,0,1,3.311,4.552" transform="translate(6.139 2.035)" fill="none" stroke="#111" stroke-width="1.5"/>
              <path id="Path_144" data-name="Path 144" d="M.088-.284a11.408,11.408,0,0,1,1.87,1.929,6.417,6.417,0,0,1,1.2,3.112" transform="translate(12.697 0.284)" fill="none" stroke="#111" stroke-width="1.5"/>
            </g>
          </g>
          <g id="Group_146" data-name="Group 146" transform="translate(0 8.492)">
            <g id="Path_141" data-name="Path 141" transform="translate(0.955 2.168)" fill="#fff">
              <path d="M 26.80278778076172 16.76468276977539 L 8.75734806060791 16.76468276977539 C 4.34207820892334 16.76468276977539 0.7499982118606567 13.17260360717773 0.7499982118606567 8.757343292236328 C 0.7499982118606567 4.378194332122803 4.283521175384521 0.8088166117668152 8.649141311645508 0.7507237195968628 L 21.19899749755859 4.534063339233398 L 21.30488777160645 4.565983295440674 L 21.41547775268555 4.565983295440674 C 23.4691276550293 4.565983295440674 26.90630912780762 4.565983295440674 29.59815788269043 5.202813148498535 C 30.94098854064941 5.520493507385254 31.97164726257324 5.965943336486816 32.66152954101562 6.526793479919434 C 33.39311981201172 7.121553421020508 33.74875640869141 7.851173400878906 33.74875640869141 8.757343292236328 C 33.74875640869141 10.99993324279785 33.08795928955078 13.02867317199707 31.88808822631836 14.4698429107666 C 30.63815879821777 15.97114372253418 28.87968826293945 16.76468276977539 26.80278778076172 16.76468276977539 Z" stroke="none"/>
              <path d="M 8.546197891235352 1.503030776977539 C 4.641698837280273 1.615091323852539 1.5 4.826220512390137 1.5 8.757343292236328 C 1.5 12.75905323028564 4.75562858581543 16.01468276977539 8.75733757019043 16.01468276977539 L 26.80278778076172 16.01468276977539 C 28.64974784851074 16.01468276977539 30.20890808105469 15.31454277038574 31.31170845031738 13.98996353149414 C 32.39962005615234 12.68327331542969 32.99875640869141 10.82495307922363 32.99875640869141 8.757343292236328 C 32.99875640869141 8.072793006896973 32.74883651733398 7.564343452453613 32.18841934204102 7.108743667602539 C 31.58697891235352 6.619792938232422 30.65739822387695 6.224102973937988 29.42548751831055 5.932662963867188 C 26.81879806518555 5.315982818603516 23.43639755249023 5.315982818603516 21.41547775268555 5.315982818603516 L 21.19429779052734 5.315982818603516 L 20.98252868652344 5.252142906188965 L 8.546197891235352 1.503030776977539 M 8.75733757019043 3.814697265625e-06 L 21.41547775268555 3.815982818603516 C 26.25202941894531 3.815982818603516 34.49875640869141 3.920793533325195 34.49875640869141 8.757343292236328 C 34.49875640869141 13.59389305114746 31.63932800292969 17.51468276977539 26.80278778076172 17.51468276977539 L 8.75733757019043 17.51468276977539 C 3.920797348022461 17.51468276977539 0 13.59389305114746 0 8.757343292236328 C 0 3.920793533325195 3.920797348022461 3.814697265625e-06 8.75733757019043 3.814697265625e-06 Z" stroke="none" fill="#111"/>
            </g>
            <g id="Group_145" data-name="Group 145" transform="translate(0 0)">
              <path id="Path_136" data-name="Path 136" d="M2374.835,1268.611a27.993,27.993,0,0,1,15.021,8.787c2.6,2.85,3.838,4.86,3.287,6.669-1.14,3.737-5.719,2.147-8.476,1.238s-6.763-3.73-12.806-5.875-8.2-2.4-11.367-2.7c-3.2-.311-6.322.069-6.893-.622C2351.074,1273.045,2360.819,1265.624,2374.835,1268.611Z" transform="translate(-2353.201 -1267.916)" fill="#fff" stroke="#111" stroke-width="1.5"/>
              <path id="Path_137" data-name="Path 137" d="M2374.725,1271.164a27.064,27.064,0,0,1,10.188,5.689,30.826,30.826,0,0,1,5.277,5.945s.96,1.716.709,2.01c-1.508,1.856-6.585-.862-8.961-1.553-2.582-.752-6.332-3.088-11.991-4.863a40.674,40.674,0,0,0-10.643-2.239c-3-.258-7.1-.269-7.632-.841-.293-.314,3.151-3.8,8.831-4.846A30.419,30.419,0,0,1,2374.725,1271.164Z" transform="translate(-2350.883 -1269.921)" fill="#fff" stroke="#111" stroke-width="1.5"/>
            </g>
          </g>
          <g id="Group_148" data-name="Group 148" transform="translate(12.997 8.143)">
            <path id="Path_142-2" data-name="Path 142" d="M0,3.075A4.181,4.181,0,0,0,2.039,1.959,5.473,5.473,0,0,0,3.035,0" transform="translate(21.725 10.121) rotate(166)" fill="#fff" stroke="#111" stroke-width="1.5"/>
            <path id="Path_143-2" data-name="Path 143" d="M0,5.483a8.721,8.721,0,0,0,2.217-1.99A4.99,4.99,0,0,0,2.887,0" transform="translate(15.359 9.393) rotate(-169)" fill="#fff" stroke="#111" stroke-width="1.5"/>
            <path id="Path_144-2" data-name="Path 144" d="M0,6.086A7.926,7.926,0,0,0,2.553,3.461,8.379,8.379,0,0,0,3.2,0" transform="translate(9.425 7.456) rotate(-169)" fill="#fff" stroke="#111" stroke-width="1.5"/>
            <path id="Path_145" data-name="Path 145" d="M0,4.964a6.37,6.37,0,0,0,1.509-2.1A3.87,3.87,0,0,0,1.709,0" transform="translate(1.858 5.234) rotate(-169)" fill="#fff" stroke="#111" stroke-width="1.5"/>
          </g>
          <g id="Group_151" data-name="Group 151" transform="translate(32.146 11.065)">
            <path id="Path_146" data-name="Path 146" d="M.758,1.265,0,0" transform="translate(3.876 2.626) rotate(166)" fill="none" stroke="#111" stroke-width="1.5"/>
            <path id="Path_147" data-name="Path 147" d="M.758,1.265,0,0" transform="translate(3.886 1.023) rotate(-103)" fill="none" stroke="#111" stroke-width="1.5"/>
            <path id="Path_148" data-name="Path 148" d="M.758,1.265,0,0" transform="translate(0.171 1.023) rotate(-103)" fill="none" stroke="#111" stroke-width="1.5"/>
          </g>
          <g id="Group_152" data-name="Group 152" transform="translate(2.936 19.461)">
            <path id="Path_149" data-name="Path 149" d="M.758,1.265,0,0" transform="matrix(-0.848, -0.53, 0.53, -0.848, 11.853, 5.06)" fill="none" stroke="#111" stroke-width="1.5"/>
            <path id="Path_150" data-name="Path 150" d="M.758,1.265,0,0" transform="matrix(-0.848, -0.53, 0.53, -0.848, 8.668, 5.06)" fill="none" stroke="#111" stroke-width="1.5"/>
            <path id="Path_151" data-name="Path 151" d="M7.033,2.364a5.432,5.432,0,0,0-2.9-2.3C2.372-.341,0,1.389,0,1.389" transform="matrix(-0.848, -0.53, 0.53, -0.848, 5.964, 5.732)" fill="none" stroke="#111" stroke-width="1.5"/>
          </g>
        </g>
      </g>
    </g>
  </g>
</svg>
