<svg xmlns="http://www.w3.org/2000/svg" width="96" height="32" viewBox="0 0 96 32">
  <g id="Group_257" data-name="Group 257" transform="translate(-176 -672)">
    <rect id="Rectangle_82" data-name="Rectangle 82" width="96" height="32" rx="5" transform="translate(176 672)" fill="#f3f3f4"/>
    <text id="전화하기" transform="translate(215 692)" fill="#646464" font-size="10" font-family="AppleSDGothicNeo-Bold, Apple SD Gothic Neo" font-weight="700" letter-spacing="0.03em"><tspan x="0" y="0">전화하기</tspan></text>
    <g id="call" transform="translate(197 682)">
      <g id="Group_256" data-name="Group 256">
        <path id="Path_197" data-name="Path 197" d="M11.957,8.533a7.381,7.381,0,0,1-2.318-.369,1.059,1.059,0,0,0-1.03.217l-1.462,1.1A8.078,8.078,0,0,1,3.515,5.853L4.586,4.43a1.051,1.051,0,0,0,.258-1.065,7.392,7.392,0,0,1-.371-2.322A1.044,1.044,0,0,0,3.431,0H1.043A1.044,1.044,0,0,0,0,1.043,11.97,11.97,0,0,0,11.957,13,1.044,1.044,0,0,0,13,11.957V9.576A1.044,1.044,0,0,0,11.957,8.533Z" fill="#646464"/>
      </g>
    </g>
  </g>
</svg>
