<svg xmlns="http://www.w3.org/2000/svg" width="118.747" height="70.468" viewBox="0 0 118.747 70.468">
  <g id="Group_407" data-name="Group 407" transform="translate(-1710.226 1466.758)">
    <g id="Group_171" data-name="Group 171" transform="translate(1711 -1466)">
      <path id="Path_39" data-name="Path 39" d="M91.183,2.544C120.95,7.776,123.09,45.1,107.354,59.686,99.592,66.88,87.554,68.693,72,68.942c-7.133.115-34.532-.455-44-1.942C19.629,65.685,7.665,58.857,2.725,49.516c-6.957-13.158,0-40.623,14.138-45.684C34.22-2.381,82.19.312,91.183,2.544Z" transform="translate(117.033 68.956) rotate(180)" fill="#fff" stroke="#111" stroke-width="1.5"/>
      <g id="Group_167" data-name="Group 167" transform="translate(11.033 2.956)">
        <g id="Group_137" data-name="Group 137" transform="translate(40 7.391)">
          <g id="Group_136" data-name="Group 136" transform="translate(7 16.609)">
            <g id="Union_12" data-name="Union 12" fill="#fff">
              <path d="M 22.12919998168945 12.25050067901611 L 0.8712002635002136 12.25050067901611 C 0.8043702840805054 12.25050067901611 0.7500002980232239 12.19613075256348 0.7500002980232239 12.12930011749268 C 0.7500002980232239 10.49984073638916 1.238770246505737 8.933700561523438 2.163480281829834 7.600180149078369 C 3.067650318145752 6.296260356903076 4.322550296783447 5.300930500030518 5.792510509490967 4.721800327301025 L 5.942240238189697 4.662800312042236 L 6.054590225219727 4.547580242156982 C 6.417280197143555 4.175590515136719 6.753500461578369 3.783530235290527 7.078640460968018 3.404390335083008 C 8.300089836120605 1.980080366134644 9.35496997833252 0.7500003576278687 11.50020027160645 0.7500003576278687 C 13.4551305770874 0.7500003576278687 14.13283061981201 1.542400360107422 15.25561046600342 2.855210304260254 C 15.68837070465088 3.361210346221924 16.17887115478516 3.934730291366577 16.80136108398438 4.509230136871338 L 16.91063117980957 4.610090255737305 L 17.05011940002441 4.661620140075684 C 18.5605411529541 5.219600200653076 19.85349082946777 6.212140560150146 20.78920936584473 7.5319504737854 C 21.74513053894043 8.880249977111816 22.25040054321289 10.46999073028564 22.25040054321289 12.12930011749268 C 22.25040054321289 12.19613075256348 22.19602966308594 12.25050067901611 22.12919998168945 12.25050067901611 Z" stroke="none"/>
              <path d="M 21.47349166870117 11.50050067901611 C 21.36391448974609 10.22638511657715 20.92140579223633 9.01516056060791 20.17737007141113 7.965720176696777 C 19.32948112487793 6.769780158996582 18.1582202911377 5.870510101318359 16.79022026062012 5.365150451660156 L 16.51124000549316 5.26209020614624 L 16.29269027709961 5.060380458831787 C 15.63767051696777 4.455850124359131 15.13189029693604 3.864460229873657 14.68564033508301 3.34268045425415 C 13.60354995727539 2.077460289001465 13.10968017578125 1.500000357627869 11.50020027160645 1.500000357627869 C 9.783420562744141 1.500000357627869 8.958400726318359 2.364550352096558 7.647960186004639 3.892620325088501 C 7.315150260925293 4.280710220336914 6.971000194549561 4.682010173797607 6.591590404510498 5.071150302886963 L 6.366890430450439 5.301610469818115 L 6.06743049621582 5.419590473175049 C 4.735980033874512 5.944160461425781 3.599140167236328 6.845980167388916 2.779800176620483 8.02755069732666 C 2.062179327011108 9.062441825866699 1.634533166885376 10.25220966339111 1.526974320411682 11.50050067901611 L 21.47349166870117 11.50050067901611 M 22.12919998168945 13.00050067901611 L 0.8712002635002136 13.00050067901611 C 0.3897002637386322 13.00050067901611 2.716064386731887e-07 12.60990047454834 2.716064386731887e-07 12.12930011749268 C 2.716064386731887e-07 8.446070671081543 2.286550283432007 5.296970367431641 5.517590045928955 4.02400016784668 C 7.216140270233154 2.281910419464111 8.373220443725586 3.395080625523406e-07 11.50020027160645 3.395080625523406e-07 C 14.67020988464355 3.395080625523406e-07 15.15953063964844 1.973350286483765 17.31002044677734 3.958090305328369 C 20.63223075866699 5.185380458831787 23.00040054321289 8.380610466003418 23.00040054321289 12.12930011749268 C 23.00040054321289 12.60990047454834 22.60980033874512 13.00050067901611 22.12919998168945 13.00050067901611 Z" stroke="none" fill="#111"/>
            </g>
            <line id="Line_41" data-name="Line 41" x1="2.506" y2="6.443" transform="translate(8.534 1.283)" fill="none" stroke="#111" stroke-linecap="round" stroke-width="1.5"/>
            <line id="Line_42" data-name="Line 42" x2="2.148" y2="6.443" transform="translate(11.756 1.283)" fill="none" stroke="#111" stroke-linecap="round" stroke-width="1.5"/>
          </g>
          <g id="Group_135" data-name="Group 135" transform="translate(25 15.609)">
            <g id="Union_12-2" data-name="Union 12" fill="#fff">
              <path d="M 23.06159973144531 13.25040054321289 L 0.9378005266189575 13.25040054321289 C 0.8342505693435669 13.25040054321289 0.750000536441803 13.16615009307861 0.750000536441803 13.06260013580322 C 0.750000536441803 9.627610206604004 2.784950494766235 6.521350383758545 5.93427038192749 5.149030208587646 L 6.069240570068359 5.090210437774658 L 6.171960353851318 4.984730243682861 C 6.60036039352417 4.544840335845947 6.991100311279297 4.074520111083984 7.368980407714844 3.619690179824829 C 8.648290634155273 2.079850196838379 9.753140449523926 0.7500002980232239 11.99970054626465 0.7500002980232239 C 14.04754066467285 0.7500002980232239 14.79865074157715 1.656350255012512 15.93559074401855 3.028270244598389 C 16.421630859375 3.614760160446167 16.97252082824707 4.279510498046875 17.69137001037598 4.942770481109619 L 17.7898006439209 5.033580303192139 L 17.91357040405273 5.084720134735107 C 19.47340965270996 5.729180335998535 20.80224990844727 6.809820175170898 21.75644111633301 8.209820747375488 C 22.73314094543457 9.642840385437012 23.2494010925293 11.32091045379639 23.2494010925293 13.06260013580322 C 23.2494010925293 13.16615009307861 23.1651496887207 13.25040054321289 23.06159973144531 13.25040054321289 Z" stroke="none"/>
              <path d="M 22.47966575622559 12.50040054321289 C 22.38191795349121 11.11256313323975 21.92263031005859 9.785333633422852 21.13669967651367 8.632220268249512 C 20.26508140563965 7.353370189666748 19.05150985717773 6.366360187530518 17.6271800994873 5.777890205383301 L 17.37964057922363 5.675610065460205 L 17.18279075622559 5.493980407714844 C 16.42706108093262 4.796700477600098 15.85916042327881 4.111440181732178 15.35812091827393 3.506840229034424 C 14.25081062316895 2.1706702709198 13.6950101852417 1.500000238418579 11.99970054626465 1.500000238418579 C 10.19309043884277 1.500000238418579 9.32489013671875 2.439110279083252 7.945860385894775 4.098970413208008 C 7.558680534362793 4.565000057220459 7.158320426940918 5.046890258789062 6.709270477294922 5.508000373840332 L 6.503820419311523 5.718950271606445 L 6.233870506286621 5.83659029006958 C 3.5310378074646 7.014354228973389 1.727103590965271 9.590716361999512 1.519968509674072 12.50040054321289 L 22.47966575622559 12.50040054321289 M 23.06159973144531 14.00040054321289 L 0.9378005266189575 14.00040054321289 C 0.4203005433082581 14.00040054321289 5.462646299747576e-07 13.58010005950928 5.462646299747576e-07 13.06260013580322 C 5.462646299747576e-07 9.213700294494629 2.318100452423096 5.906670093536377 5.634660720825195 4.461470127105713 C 7.475110530853271 2.571630239486694 8.661660194396973 2.716064386731887e-07 11.99970054626465 2.716064386731887e-07 C 15.37436008453369 2.716064386731887e-07 15.83779048919678 2.212060213088989 18.19996070861816 4.391550064086914 C 21.60398101806641 5.797950267791748 23.9994010925293 9.150470733642578 23.9994010925293 13.06260013580322 C 23.9994010925293 13.58010005950928 23.57999992370605 14.00040054321289 23.06159973144531 14.00040054321289 Z" stroke="none" fill="#111"/>
            </g>
            <line id="Line_41-2" data-name="Line 41" x1="2.616" y2="6.727" transform="translate(8.853 1.583)" fill="none" stroke="#111" stroke-linecap="round" stroke-width="1.5"/>
            <line id="Line_42-2" data-name="Line 42" x2="2.242" y2="6.727" transform="translate(12.217 1.583)" fill="none" stroke="#111" stroke-linecap="round" stroke-width="1.5"/>
          </g>
          <path id="Path_111" data-name="Path 111" d="M0,0S3.324,2.126,3.691,5.466C4.091,8.98,1.37,10.923.732,12-.147,12.81,0,16.445,0,16.445" transform="translate(26.008)" fill="none" stroke="#111" stroke-linecap="round" stroke-width="1.5"/>
          <path id="Path_112" data-name="Path 112" d="M3.749,6.933c.4,3.514-.29,5.084-1.432,5.988A6.314,6.314,0,0,0,0,18.2" transform="translate(29.747 -1.751)" fill="none" stroke="#111" stroke-linecap="round" stroke-width="1.5"/>
          <g id="Rectangle_66" data-name="Rectangle 66" transform="translate(2 27.609)" fill="#fff" stroke="#111" stroke-width="1.5">
            <rect width="51" height="10" rx="3" stroke="none"/>
            <rect x="0.75" y="0.75" width="49.5" height="8.5" rx="2.25" fill="none"/>
          </g>
          <g id="Rectangle_64" data-name="Rectangle 64" transform="translate(0 31.609)" fill="#fff" stroke="#111" stroke-width="1.5">
            <path d="M2,0H53a2,2,0,0,1,2,2V7a8,8,0,0,1-8,8H8A8,8,0,0,1,0,7V2A2,2,0,0,1,2,0Z" stroke="none"/>
            <path d="M2,.75H53A1.25,1.25,0,0,1,54.25,2V7A7.25,7.25,0,0,1,47,14.25H8A7.25,7.25,0,0,1,.75,7V2A1.25,1.25,0,0,1,2,.75Z" fill="none"/>
          </g>
        </g>
        <g id="Group_138" data-name="Group 138">
          <g id="Path_113" data-name="Path 113" transform="translate(0.803 20.141) rotate(-8)" fill="#fff">
            <path d="M 56.43184280395508 4.178864002227783 L 1.613782286643982 3.481655836105347 L 1.609012246131897 3.481595754623413 L 1.604242205619812 3.481595754623413 C 1.241282224655151 3.481595754623413 0.9459922909736633 3.18630576133728 0.9459922909736633 2.823345899581909 L 0.9459922909736633 2.722795724868774 L 0.9195122718811035 2.625795841217041 L 0.7550801038742065 2.023557424545288 C 0.7955622673034668 1.699143886566162 1.073050379753113 1.447275757789612 1.408252239227295 1.447275757789612 L 1.413002252578735 1.447275757789612 L 1.417752265930176 1.447215795516968 L 56.43180084228516 0.7500074505805969 C 56.79299545288086 0.7520878911018372 57.08620071411133 1.046570658683777 57.08620071411133 1.408245801925659 L 57.08620071411133 3.520625829696655 C 57.08620071411133 3.882278680801392 56.79300689697266 4.176747798919678 56.43184280395508 4.178864002227783 Z" stroke="none"/>
            <path d="M 56.33620071411133 1.501279592514038 L 1.579399108886719 2.195227861404419 L 1.643020629882812 2.428255796432495 L 1.695991516113281 2.622245788574219 L 1.695991516113281 2.732640027999878 L 56.33620071411133 3.427586078643799 L 56.33620071411133 1.501279592514038 M 56.42795181274414 -4.291534423828125e-06 C 57.20571136474609 -4.291534423828125e-06 57.83620071411133 0.6304960250854492 57.83620071411133 1.408245801925659 L 57.83620071411133 3.520625829696655 C 57.83620071411133 4.298376083374023 57.20571136474609 4.928875923156738 56.42795181274414 4.928875923156738 L 1.604240417480469 4.231595993041992 C 0.8264808654785156 4.231595993041992 0.1959915161132812 3.601105690002441 0.1959915161132812 2.823345899581909 L 3.814697265625e-06 2.105525732040405 C 3.814697265625e-06 1.327765703201294 0.6304931640625 0.6972756385803223 1.408252716064453 0.6972756385803223 L 56.42795181274414 -4.291534423828125e-06 Z" stroke="none" fill="#111"/>
          </g>
          <g id="Path_114" data-name="Path 114" transform="translate(0 16.91) rotate(-17)" fill="#fff">
            <path d="M 56.43193817138672 4.178891181945801 L 1.417750954627991 3.481652975082397 L 1.41300094127655 3.481592893600464 L 1.40825092792511 3.481592893600464 C 1.073049068450928 3.481592893600464 0.7955597639083862 3.229715585708618 0.755077600479126 2.905294179916382 L 0.9195109009742737 2.303042888641357 L 0.9459909200668335 2.206053018569946 L 0.9459909200668335 2.105503082275391 C 0.9459909200668335 1.742532968521118 1.241280913352966 1.447242975234985 1.604240894317627 1.447242975234985 L 1.609010934829712 1.447242975234985 L 1.613780975341797 1.447183012962341 L 56.43198394775391 0.7500148415565491 C 56.79314804077148 0.752130925655365 57.08634185791016 1.046600103378296 57.08634185791016 1.408262968063354 L 57.08634185791016 3.520642995834351 C 57.08634185791016 3.882328033447266 56.79313278198242 4.176810741424561 56.43193817138672 4.178891181945801 Z" stroke="none"/>
            <path d="M 56.33634185791016 3.427619218826294 L 56.33634185791016 1.50129246711731 L 1.695990920066833 2.196198701858521 L 1.695990920066833 2.30659294128418 L 1.643020987510681 2.500592947006226 L 1.579391479492188 2.733641147613525 L 56.33634185791016 3.427619218826294 M 56.4280891418457 4.928903102874756 L 1.40825092792511 4.231593132019043 C 0.6305009126663208 4.231593132019043 9.289550462199259e-07 3.601093053817749 9.289550462199259e-07 2.823333024978638 L 0.1959909349679947 2.105503082275391 C 0.1959909349679947 1.32774293422699 0.8264909386634827 0.6972429752349854 1.604240894317627 0.6972429752349854 L 56.4280891418457 2.981948910019128e-06 C 57.20584106445312 2.981948910019128e-06 57.83634185791016 0.6305029988288879 57.83634185791016 1.408262968063354 L 57.83634185791016 3.520642995834351 C 57.83634185791016 4.298402786254883 57.20584106445312 4.928903102874756 56.4280891418457 4.928903102874756 Z" stroke="none" fill="#111"/>
          </g>
          <g id="Path_115" data-name="Path 115" transform="translate(21.664 10.594) rotate(90)" fill="#fff">
            <path d="M 23.89435958862305 7.237049579620361 C 22.70170211791992 6.046411037445068 19.89349174499512 3.724008560180664 16.01715087890625 3.575058460235596 C 15.97960948944092 3.57304573059082 15.94087505340576 3.57201886177063 15.90187931060791 3.57201886177063 C 15.20108890533447 3.57201886177063 14.29125881195068 3.903188943862915 13.13937854766846 4.322468757629395 C 11.54901313781738 4.901358127593994 9.572224617004395 5.62093448638916 7.566433429718018 5.668617248535156 C 4.704646110534668 5.428132057189941 1.727867007255554 4.193723678588867 1.697998881340027 4.181228637695312 L 1.559088826179504 4.123108863830566 L 1.454128861427307 4.123032093048096 L 1.454128861427307 4.076539039611816 L 1.43173885345459 3.986968755722046 L 0.8006613254547119 1.462685704231262 C 1.856338381767273 1.782131671905518 5.200501441955566 2.748678922653198 7.014528751373291 2.748678922653198 C 7.248239994049072 2.748678922653198 7.450979232788086 2.733721733093262 7.632241725921631 2.703035116195679 C 8.264366149902344 2.658773422241211 9.478054046630859 2.326870203018188 11.3726692199707 1.793288826942444 C 12.79340839385986 1.393158912658691 14.26250839233398 0.9794188737869263 15.09038925170898 0.8477888703346252 L 15.10095882415771 0.8460988402366638 L 15.11147880554199 0.8441188931465149 C 15.44296836853027 0.7816688418388367 15.80010890960693 0.7499988675117493 16.17295837402344 0.7499988675117493 C 19.60536956787109 0.7499988675117493 23.4801082611084 3.35473895072937 23.51884841918945 3.381048917770386 L 23.70961952209473 3.510618925094604 L 23.89435958862305 3.510618925094604 L 23.89435958862305 7.237049579620361 Z" stroke="none"/>
            <path d="M 16.17302894592285 1.499999046325684 C 15.84651851654053 1.500019073486328 15.53607845306396 1.527318954467773 15.25033855438232 1.581158638000488 L 15.22929859161377 1.585118770599365 L 15.20815849304199 1.588479042053223 C 14.42359924316406 1.713228702545166 12.91074848175049 2.139288902282715 11.57598876953125 2.515198707580566 C 9.680684089660645 3.048976421356201 8.449747085571289 3.387956619262695 7.722576141357422 3.448230743408203 C 7.509038925170898 3.482138156890869 7.2762451171875 3.498678684234619 7.014528274536133 3.498678684234619 C 5.585243225097656 3.498678684234619 3.358335494995117 2.962263584136963 1.844486236572266 2.545692920684814 L 2.0908203125 3.531037330627441 C 2.627462387084961 3.743990898132324 5.156719207763672 4.705238342285156 7.588800430297852 4.917778968811035 C 9.458633422851562 4.864080429077148 11.35513305664062 4.173794746398926 12.8828592300415 3.617708683013916 C 14.10416889190674 3.173158645629883 15.06882858276367 2.822019100189209 15.90187931060791 2.822019100189209 C 15.95221614837646 2.822019100189209 16.00248336791992 2.823303699493408 16.05157279968262 2.82583475112915 C 19.12973403930664 2.945804119110107 21.5738353729248 4.348659515380859 23.14435958862305 5.579840660095215 L 23.14435958862305 4.033336162567139 L 23.09739875793457 4.001439094543457 C 22.07301902770996 3.305628776550293 18.83213806152344 1.49984884262085 16.17304992675781 1.499999046325684 L 16.17302894592285 1.499999046325684 M 16.1729621887207 -1.9073486328125e-06 C 19.87568473815918 -0.000209808349609375 23.94022941589355 2.760618686676025 23.94022941589355 2.760618686676025 C 24.32910919189453 2.760618686676025 24.64435958862305 3.075869083404541 24.64435958862305 3.464748859405518 L 24.64435958862305 7.689498901367188 C 24.64435958862305 8.078369140625 24.32910919189453 8.393618583679199 23.94022941589355 8.393618583679199 C 23.94022941589355 8.393618583679199 20.81911849975586 4.50700855255127 15.98229885101318 4.324278831481934 C 15.95628070831299 4.322768211364746 15.92932319641113 4.322020530700684 15.90187835693359 4.322020530700684 C 14.46467876434326 4.322020530700684 11.0897159576416 6.349785804748535 7.543729782104492 6.419288635253906 C 4.510198593139648 6.173628807067871 1.408248901367188 4.87299919128418 1.408248901367188 4.87299919128418 C 1.019369125366211 4.87299919128418 0.7041187286376953 4.557748794555664 0.7041187286376953 4.168869018554688 L -1.9073486328125e-06 1.352378845214844 C -1.9073486328125e-06 0.9634990692138672 0.3152484893798828 0.6482486724853516 0.7041187286376953 0.6482486724853516 C 0.7041187286376953 0.6482486724853516 4.978847503662109 1.998682498931885 7.014530181884766 1.998682498931885 C 7.214727401733398 1.998682498931885 7.393032073974609 1.985644340515137 7.543729782104492 1.956968784332275 C 8.647528648376465 1.906768798828125 13.15840911865234 0.3955488204956055 14.97261905670166 0.1070890426635742 C 15.36433410644531 0.03328609466552734 15.766676902771 2.09808349609375e-05 16.1729621887207 -1.9073486328125e-06 Z" stroke="none" fill="#111"/>
          </g>
          <g id="Path_117" data-name="Path 117" transform="translate(15.622 12.706) rotate(90)" fill="#fff">
            <path d="M 23.89435958862305 7.635923862457275 C 22.5623607635498 6.493571281433105 19.08054161071777 3.870238065719604 15.03835296630859 3.714850187301636 C 14.9885139465332 3.712121725082397 14.93622303009033 3.710740327835083 14.88278865814209 3.710740327835083 C 14.20391845703125 3.710740327835083 13.26270866394043 3.932140350341797 12.07108879089355 4.212430000305176 C 10.43931007385254 4.596259593963623 8.410917282104492 5.073378562927246 6.40507173538208 5.118059635162354 C 3.493599414825439 4.87983226776123 1.597986578941345 4.442320823669434 1.57909882068634 4.437910079956055 L 1.494948863983154 4.418260097503662 L 1.454128861427307 4.418227195739746 L 1.454128861427307 4.371730327606201 L 1.43173885345459 4.28216028213501 L 0.7940524816513062 1.731432914733887 C 1.632747411727905 1.912995934486389 4.303235054016113 2.459580183029175 6.055698871612549 2.459580183029175 C 6.410547733306885 2.459580183029175 6.708041667938232 2.437998533248901 6.962916374206543 2.393670797348022 C 7.619574069976807 2.349132299423218 8.594998359680176 2.033348321914673 9.719578742980957 1.669280290603638 C 10.72603893280029 1.34345018863678 11.86678886413574 0.9741502404212952 12.71000862121582 0.8400802612304688 L 12.72057914733887 0.8383902311325073 L 12.73109912872314 0.8364102244377136 C 13.03544902801514 0.779070258140564 13.38103866577148 0.7500002384185791 13.75826930999756 0.7500002384185791 C 17.61751937866211 0.7500002384185791 23.54481887817383 3.696570158004761 23.60423851013184 3.726330280303955 L 23.76278877258301 3.805750131607056 L 23.89435958862305 3.805794715881348 L 23.89435958862305 7.635923862457275 Z" stroke="none"/>
            <path d="M 13.75826930999756 1.5 C 13.4274787902832 1.5 13.12861919403076 1.524710178375244 12.86997890472412 1.573440074920654 L 12.84893894195557 1.577410221099854 L 12.82777881622314 1.580770015716553 C 12.04222869873047 1.705670356750488 10.93099880218506 2.065420150756836 9.950578689575195 2.382820129394531 C 8.625024795532227 2.811954021453857 7.753856658935547 3.084812164306641 7.052106857299805 3.139217376708984 C 6.763713836669922 3.186516284942627 6.43646240234375 3.209580421447754 6.055698394775391 3.209580421447754 C 4.768810272216797 3.209580421447754 3.026107788085938 2.930886745452881 1.809638977050781 2.701488971710205 L 2.078535079956055 3.777079582214355 C 2.727481842041016 3.90744161605835 4.295602798461914 4.191054344177246 6.427087783813477 4.367330551147461 C 8.342370986938477 4.319063186645508 10.31237506866455 3.855650424957275 11.89935874938965 3.482360363006592 C 13.13830852508545 3.190930366516113 14.11689853668213 2.960740089416504 14.88278865814209 2.960740089416504 C 14.94778060913086 2.960740089416504 15.01186466217041 2.962397575378418 15.07353591918945 2.965656757354736 C 18.39285850524902 3.095407009124756 21.34071159362793 4.785825729370117 23.14435958862305 6.093889236450195 L 23.14435958862305 4.335372924804688 C 21.42497253417969 3.489968299865723 16.74436950683594 1.499961376190186 13.75828838348389 1.5 L 13.75826930999756 1.5 M 13.75826454162598 -3.814697265625e-06 C 17.84456253051758 -5.626678466796875e-05 23.94022941589355 3.055810451507568 23.94022941589355 3.055810451507568 C 24.32910919189453 3.055810451507568 24.64435958862305 3.371060371398926 24.64435958862305 3.759940147399902 L 24.64435958862305 7.984690189361572 C 24.64435958862305 8.373559951782227 24.32910919189453 8.688810348510742 23.94022941589355 8.688810348510742 C 23.94022941589355 8.688810348510742 19.84002876281738 4.64680004119873 15.00321865081787 4.464060306549072 C 14.9648265838623 4.461831092834473 14.9245433807373 4.460741996765137 14.88278865814209 4.460741996765137 C 13.41437435150146 4.460741996765137 9.896293640136719 5.799838066101074 6.382499694824219 5.86870002746582 C 3.348978042602539 5.623050212860107 1.408248901367188 5.168190002441406 1.408248901367188 5.168190002441406 C 1.019369125366211 5.168190002441406 0.7041187286376953 4.852940559387207 0.7041187286376953 4.464060306549072 L -1.9073486328125e-06 1.647560119628906 C -1.9073486328125e-06 1.258690357208252 0.3152484893798828 0.9434404373168945 0.7041187286376953 0.9434404373168945 C 0.7041187286376953 0.9434404373168945 4.059816360473633 1.70957612991333 6.055696487426758 1.70957612991333 C 6.367706298828125 1.70957612991333 6.646444320678711 1.69085693359375 6.873979568481445 1.647560119628906 C 7.977788925170898 1.597370147705078 10.77803897857666 0.3878402709960938 12.5922384262085 0.0993800163269043 C 12.9549388885498 0.03104400634765625 13.34644985198975 1.9073486328125e-06 13.75826454162598 -3.814697265625e-06 Z" stroke="none" fill="#111"/>
          </g>
          <g id="Path_118" data-name="Path 118" transform="translate(9.785 14.819) rotate(90)" fill="#fff">
            <path d="M 23.89435958862305 8.266674995422363 C 22.64638519287109 7.478885173797607 19.08238220214844 5.359372615814209 15.21080875396729 4.244223594665527 L 15.19922924041748 4.240893363952637 L 15.18755912780762 4.23793363571167 L 15.05026912689209 4.20305347442627 C 14.11716842651367 3.965763568878174 13.05957889556885 3.696813583374023 11.87522888183594 3.696813583374023 C 11.45056915283203 3.696813583374023 11.0247688293457 3.731723546981812 10.60964870452881 3.800593614578247 C 9.869258880615234 3.922643661499023 9.110838890075684 4.160463333129883 8.307888984680176 4.4122633934021 C 7.164824962615967 4.770702838897705 5.983200073242188 5.141226768493652 4.829176902770996 5.171054363250732 C 2.22492504119873 4.960330963134766 1.591530203819275 4.925862789154053 1.454128861427307 4.920235633850098 L 1.454128861427307 4.872593402862549 L 1.43173885345459 4.783023357391357 L 0.8081002235412598 2.288486957550049 C 1.464961171150208 2.527748584747314 2.827728271484375 2.960443496704102 4.092228889465332 2.960443496704102 C 4.378298282623291 2.960443496704102 4.649046421051025 2.938202857971191 4.897892951965332 2.894316911697388 C 5.559359550476074 2.846330165863037 6.371657371520996 2.482516527175903 7.308068752288818 2.063113451004028 C 8.207788467407227 1.660133600234985 9.2275390625 1.20340359210968 10.07401847839355 1.068813562393188 L 10.10089874267578 1.064533591270447 L 10.12739849090576 1.058323502540588 C 10.97568893432617 0.8595035672187805 11.97050857543945 0.7500035762786865 12.9285888671875 0.7500035762786865 C 13.61296081542969 0.7500035762786865 14.2487154006958 0.8049070239067078 14.81914234161377 0.9132500886917114 C 19.17476272583008 2.285031795501709 23.59382629394531 4.223634243011475 23.63808822631836 4.24311351776123 L 23.78246879577637 4.306663513183594 L 23.89435958862305 4.306670665740967 L 23.89435958862305 8.266674995422363 Z" stroke="none"/>
            <path d="M 12.92861843109131 1.499993324279785 L 12.92862892150879 1.499993324279785 C 12.02640914916992 1.50001335144043 11.09235858917236 1.602483749389648 10.29853916168213 1.788533687591553 L 10.24554920196533 1.800953388214111 L 10.19178867340088 1.809503555297852 C 9.443438529968262 1.928493499755859 8.47184944152832 2.363653659820557 7.614648818969727 2.747593402862549 C 6.630483627319336 3.188387870788574 5.774112701416016 3.571924209594727 4.991535186767578 3.639224052429199 C 4.710075378417969 3.686507225036621 4.408073425292969 3.710443496704102 4.092227935791016 3.710443496704102 C 3.319950103759766 3.710443496704102 2.530002593994141 3.568954467773438 1.858695983886719 3.398583889007568 L 2.060518264770508 4.205877304077148 C 2.542587280273438 4.238998413085938 3.38343620300293 4.301712989807129 4.848493576049805 4.420161247253418 C 5.886920928955078 4.385424613952637 7.003175735473633 4.035377979278564 8.083478927612305 3.6966233253479 C 8.875848770141602 3.448143482208252 9.695199012756348 3.191213607788086 10.48689842224121 3.060713768005371 C 10.94243907928467 2.985133647918701 11.40953922271729 2.946813583374023 11.87522888183594 2.946813583374023 C 13.15344905853271 2.946813583374023 14.25937843322754 3.228053569793701 15.2351188659668 3.476183414459229 L 15.37189865112305 3.510933399200439 L 15.39524841308594 3.516853332519531 L 15.41838836669922 3.523523330688477 C 18.5136604309082 4.415072441101074 21.41422271728516 5.931871891021729 23.14435958862305 6.937312126159668 L 23.14435958862305 4.846383571624756 C 22.25664710998535 4.463449954986572 18.42964363098145 2.839828968048096 14.63683319091797 1.64216423034668 C 14.12315654754639 1.547794342041016 13.5489616394043 1.499984264373779 12.92861843109131 1.499993324279785 M 12.92859745025635 -2.86102294921875e-06 C 13.63533687591553 -1.1444091796875e-05 14.3453369140625 0.05636978149414062 15.00321865081787 0.1849231719970703 C 19.46501922607422 1.586633682250977 23.94022941589355 3.556673526763916 23.94022941589355 3.556673526763916 C 24.32910919189453 3.556673526763916 24.64435958862305 3.871923446655273 24.64435958862305 4.260793685913086 L 24.64435958862305 8.485543251037598 C 24.64435958862305 8.874423980712891 24.32910919189453 9.189663887023926 23.94022941589355 9.189663887023926 C 23.94022941589355 9.189663887023926 19.65660858154297 6.305263519287109 15.00321865081787 4.96492338180542 C 14.03419017791748 4.719212532043457 13.01983642578125 4.446808815002441 11.87522506713867 4.446808815002441 C 11.50856971740723 4.446808815002441 11.12859153747559 4.474754333496094 10.73239898681641 4.540483474731445 C 8.98224925994873 4.828973770141602 6.906988143920898 5.880593299865723 4.807418823242188 5.921743392944336 C 1.773889541625977 5.676093578338623 1.408248901367188 5.66904354095459 1.408248901367188 5.66904354095459 C 1.019369125366211 5.66904354095459 0.7041187286376953 5.353803634643555 0.7041187286376953 4.96492338180542 L -1.9073486328125e-06 2.148423671722412 C -1.9073486328125e-06 1.759543418884277 0.3152484893798828 1.444303512573242 0.7041187286376953 1.444303512573242 C 0.7041187286376953 1.444303512573242 2.514244079589844 2.210439205169678 4.092226028442383 2.210439205169678 C 4.338909149169922 2.210439205169678 4.579883575439453 2.191720485687256 4.807418823242188 2.148423671722412 C 5.911228179931641 2.098223686218262 8.142038345336914 0.6165733337402344 9.956249237060547 0.3281135559082031 C 10.81345558166504 0.1271991729736328 11.8672456741333 1.049041748046875e-05 12.92859745025635 -2.86102294921875e-06 Z" stroke="none" fill="#111"/>
          </g>
          <g id="Path_116" data-name="Path 116" transform="translate(27.645 8.739) rotate(90)" fill="#fff">
            <path d="M 25.74941635131836 7.06867504119873 C 24.58628463745117 6.15418815612793 21.4831657409668 4.076113700866699 17.1436710357666 3.922749042510986 C 17.10459518432617 3.920782804489136 17.06418991088867 3.919786691665649 17.02346801757812 3.919786691665649 C 16.2846565246582 3.919786691665649 15.30667686462402 4.24821662902832 14.06849765777588 4.664026737213135 C 12.3354024887085 5.246035575866699 10.1808967590332 5.969612598419189 7.985443592071533 6.016487121582031 C 4.929123401641846 5.775903701782227 1.729677319526672 3.891325235366821 1.697587251663208 3.872246503829956 L 1.520397186279297 3.766866683959961 L 1.313857197761536 3.76664662361145 C 1.308802127838135 3.76664662361145 1.304419159889221 3.766243934631348 1.3006671667099 3.765624284744263 L 1.3006671667099 3.746596574783325 L 1.289167165756226 3.681686639785767 L 0.7862119674682617 0.8426341414451599 C 2.001875400543213 1.416345357894897 5.696387767791748 3.081826686859131 7.615907192230225 3.081826686859131 C 7.768707752227783 3.081826686859131 7.912665843963623 3.071627616882324 8.044635772705078 3.051491498947144 C 8.768580436706543 3.006094694137573 10.30724048614502 2.606300592422485 12.08247756958008 2.145046710968018 C 13.62552738189697 1.744106650352478 15.22110748291016 1.329526662826538 16.12508773803711 1.196926593780518 L 16.13490676879883 1.195486664772034 L 16.14467811584473 1.19378662109375 C 16.60104751586914 1.114456653594971 17.09781646728516 1.074236631393433 17.62118721008301 1.074236631393433 C 21.33079719543457 1.074236631393433 25.36221694946289 3.055916547775269 25.40249633789062 3.075936555862427 L 25.56016731262207 3.154266595840454 L 25.7362174987793 3.154266595840454 C 25.74127769470215 3.154266595840454 25.74566268920898 3.154670000076294 25.74941635131836 3.155290842056274 L 25.74941635131836 7.06867504119873 Z" stroke="none"/>
            <path d="M 17.62119674682617 1.824226379394531 C 17.14069747924805 1.824236392974854 16.68713760375977 1.860726833343506 16.27311706542969 1.93269681930542 L 16.25357818603516 1.936096668243408 L 16.23394775390625 1.938976764678955 C 15.3702974319458 2.065666675567627 13.7238073348999 2.493476390838623 12.27113723754883 2.870926380157471 C 10.21498107910156 3.405186176300049 8.886493682861328 3.742813110351562 8.12446403503418 3.797800302505493 C 7.964550018310547 3.820400714874268 7.793970108032227 3.831826686859131 7.615907669067383 3.831826686859131 C 6.547737121582031 3.831826686859131 4.989616394042969 3.415196418762207 2.852506637573242 2.558126449584961 C 2.468818664550781 2.404250144958496 2.103551864624023 2.25084114074707 1.771965026855469 2.107516288757324 L 1.957338333129883 3.153920650482178 L 2.082057952880859 3.228286743164062 C 2.112405776977539 3.246383190155029 5.125772476196289 5.02605676651001 8.007013320922852 5.265789985656738 C 10.0757999420166 5.213684558868408 12.15524196624756 4.515375137329102 13.82973766326904 3.953046560287476 C 15.13282680511475 3.51543664932251 16.16208648681641 3.16978645324707 17.02346801757812 3.16978645324707 C 17.07433128356934 3.16978645324707 17.12508010864258 3.170988082885742 17.17455673217773 3.173368453979492 C 20.63341903686523 3.296594619750977 23.3523120880127 4.590408325195312 24.99941635131836 5.629707813262939 L 24.99941635131836 3.714149951934814 C 24.46117210388184 3.458108425140381 20.89627647399902 1.824143409729004 17.62119674682617 1.824226379394531 M 0.7631969451904297 -3.337860107421875e-06 C 0.7631969451904297 -3.337860107421875e-06 5.539361953735352 2.331827163696289 7.615903854370117 2.331827163696289 C 7.742576599121094 2.331827163696289 7.859201431274414 2.323150157928467 7.964086532592773 2.304736614227295 C 9.160497665405273 2.254536628723145 14.04982757568359 0.743316650390625 16.01623725891113 0.4548563957214355 C 16.5383129119873 0.3641066551208496 17.07741165161133 0.3242402076721191 17.62116622924805 0.324225902557373 C 21.54973983764648 0.3241229057312012 25.7362174987793 2.404266834259033 25.7362174987793 2.404266834259033 C 26.15771675109863 2.404266834259033 26.49941635131836 2.719516754150391 26.49941635131836 3.108396530151367 L 26.49941635131836 7.333136558532715 C 26.49941635131836 7.72201681137085 26.15771675109863 8.037266731262207 25.7362174987793 8.037266731262207 C 25.7362174987793 8.037266731262207 22.35324668884277 4.854776382446289 17.11063766479492 4.672046661376953 C 17.08243560791016 4.670536041259766 17.0532169342041 4.669788360595703 17.02346992492676 4.669788360595703 C 15.46568965911865 4.669788360595703 11.80758380889893 6.697553634643555 7.964086532592773 6.767056465148926 C 4.676046371459961 6.521406650543213 1.313858032226562 4.516646385192871 1.313858032226562 4.516646385192871 C 0.8923568725585938 4.516646385192871 0.5506572723388672 4.201396942138672 0.5506572723388672 3.812516689300537 L -1.9073486328125e-06 0.7041268348693848 C -1.9073486328125e-06 0.31524658203125 0.3416976928710938 -3.337860107421875e-06 0.7631969451904297 -3.337860107421875e-06 Z" stroke="none" fill="#111"/>
          </g>
          <g id="Union_13" data-name="Union 13" transform="translate(0 33.186)" fill="#fff">
            <path d="M 36.1233024597168 25.25010108947754 L 14.87700080871582 25.25010108947754 C 13.63601112365723 25.25010108947754 12.6264009475708 24.24089050292969 12.6264009475708 23.00040054321289 L 12.6264009475708 21.40969085693359 L 12.6264009475708 20.96244049072266 L 12.23290061950684 20.74983978271484 C 5.149990558624268 16.9230899810791 0.7500006556510925 9.549850463867188 0.7500006556510925 1.507500529289246 C 0.7500006556510925 1.089810490608215 1.089810729026794 0.750000536441803 1.507500648498535 0.750000536441803 L 49.49280166625977 0.750000536441803 C 49.91049194335938 0.750000536441803 50.25030136108398 1.089810490608215 50.25030136108398 1.507500529289246 C 50.25030136108398 9.550710678100586 45.84999084472656 16.92411994934082 38.76655960083008 20.75028038024902 L 38.37300109863281 20.96286964416504 L 38.37300109863281 21.41016960144043 L 38.37300109863281 23.00040054321289 C 38.37300109863281 24.24089050292969 37.36379241943359 25.25010108947754 36.1233024597168 25.25010108947754 Z" stroke="none"/>
            <path d="M 36.1233024597168 24.50010108947754 C 36.95024108886719 24.50010108947754 37.62300109863281 23.82734107971191 37.62300109863281 23.00040054321289 L 37.62300109863281 21.41016960144043 L 37.62300109863281 20.51556968688965 L 38.41012191772461 20.09040069580078 C 45.25078964233398 16.39536094665527 49.50030136108398 9.274810791015625 49.50035095214844 1.505140542984009 C 49.49961090087891 1.50355052947998 49.49674987792969 1.500690579414368 49.49280166625977 1.500000596046448 L 1.505140662193298 1.499950528144836 C 1.50355064868927 1.500690579414368 1.500690698623657 1.50355052947998 1.500000715255737 1.507500529289246 C 1.500000715255737 9.273980140686035 5.749210834503174 16.39437103271484 12.58941078186035 20.08999061584473 L 13.3764009475708 20.51518058776855 L 13.3764009475708 21.40969085693359 L 13.3764009475708 23.00040054321289 C 13.3764009475708 23.82734107971191 14.04957103729248 24.50010108947754 14.87700080871582 24.50010108947754 L 36.1233024597168 24.50010108947754 M 36.1233024597168 26.00010108947754 L 14.87700080871582 26.00010108947754 C 13.22010040283203 26.00010108947754 11.8764009475708 24.65730094909668 11.8764009475708 23.00040054321289 L 11.8764009475708 21.40969085693359 C 4.804520606994629 17.58889961242676 6.805419729971618e-07 10.10909080505371 6.805419729971618e-07 1.507500529289246 C 6.805419729971618e-07 0.6750005483627319 0.6750006675720215 5.447387820822769e-07 1.507500648498535 5.447387820822769e-07 L 49.49280166625977 5.447387820822769e-07 C 50.32530212402344 5.447387820822769e-07 51.00030136108398 0.6750005483627319 51.00030136108398 1.507500529289246 C 51.00030136108398 10.10985088348389 46.19589996337891 17.58969116210938 39.12300109863281 21.41016960144043 L 39.12300109863281 23.00040054321289 C 39.12300109863281 24.65730094909668 37.78020095825195 26.00010108947754 36.1233024597168 26.00010108947754 Z" stroke="none" fill="#111"/>
          </g>
          <line id="Line_43" data-name="Line 43" x1="26.757" transform="translate(12.566 54.25)" fill="none" stroke="#111" stroke-linecap="round" stroke-width="1.5"/>
        </g>
      </g>
    </g>
  </g>
</svg>
