<svg xmlns="http://www.w3.org/2000/svg" width="122.786" height="83.531" viewBox="0 0 122.786 83.531">
  <g id="Group_406" data-name="Group 406" transform="translate(-1564.214 1470)">
    <g id="Group_176" data-name="Group 176" transform="translate(-956 -2630)">
      <path id="Path_109" data-name="Path 109" d="M-1362.372,2196.415c5.811.953,12.6,2.771,18,8,10.086,9.766,14.821,28.46,5.138,40.646-4.493,5.654-9.969,11.126-22.263,14.4-13.17,3.507-17.379,4.954-35.944,4.954s-27.893-.522-40.658-7.882-13.458-23.284-13.245-29.883c.436-13.517,7.717-24.636,17.111-27.773C-1417.425,2193.263-1371.08,2194.4-1362.372,2196.415Z" transform="translate(1187.057 3431.945) rotate(180)" fill="#fff" stroke="#111" stroke-width="1.5"/>
      <g id="Group_126" data-name="Group 126" transform="matrix(0.899, -0.438, 0.438, 0.899, -325.004, 1417.11)">
        <g id="Subtraction_3" data-name="Subtraction 3" transform="translate(2674 1042.5)" fill="#fff">
          <path d="M 2.25029993057251 58.74977493286133 L 2.25029993057251 2.999700307846069 C 2.25029993057251 1.759210467338562 3.259510040283203 0.7500004172325134 4.5 0.7500004172325134 C 5.740489959716797 0.7500004172325134 6.74970006942749 1.759210467338562 6.74970006942749 2.999700307846069 L 6.74970006942749 58.7490234375 L 2.25029993057251 58.74977493286133 Z" stroke="none"/>
          <path d="M 3.00029993057251 57.99964904785156 L 5.99970006942749 57.99914932250977 L 5.99970006942749 2.999700307846069 C 5.99970006942749 2.172760486602783 5.326940059661865 1.500000357627869 4.5 1.500000357627869 C 3.673059940338135 1.500000357627869 3.00029993057251 2.172760486602783 3.00029993057251 2.999700307846069 L 3.00029993057251 57.99964904785156 M 7.49970006942749 59.49990081787109 L 7.497700214385986 59.49990081787109 L 7.497700214385986 59.4989013671875 L 1.500300049781799 59.49990081787109 L 1.500300049781799 2.999700307846069 C 1.500300049781799 1.345660448074341 2.845959901809692 4.089355343239731e-07 4.5 4.089355343239731e-07 C 6.154039859771729 4.089355343239731e-07 7.49970006942749 1.345660448074341 7.49970006942749 2.999700307846069 L 7.49970006942749 59.49990081787109 Z" stroke="none" fill="#111"/>
        </g>
        <g id="Path_104" data-name="Path 104" transform="translate(2661.644 1048)" fill="#fff">
          <path d="M 30.19393539428711 7.671281337738037 L -0.1603446900844574 7.671281337738037 C -0.703022301197052 7.671281337738037 -1.154305100440979 7.175336360931396 -1.236590623855591 6.528680801391602 C 0.3761866986751556 4.176308155059814 1.538796544075012 2.533881187438965 2.322975397109985 1.63646137714386 C 3.097585201263428 0.7500013709068298 3.36136531829834 0.7500013709068298 3.518965244293213 0.7500013709068298 L 33.87323379516602 0.7500013709068298 C 34.41591262817383 0.7500013709068298 34.86720275878906 1.245945811271667 34.94948959350586 1.892601251602173 C 33.33670425415039 4.244973659515381 32.17409515380859 5.887401580810547 31.38991546630859 6.784821510314941 C 30.61531448364258 7.671281337738037 30.35153579711914 7.671281337738037 30.19393539428711 7.671281337738037 Z" stroke="none"/>
          <path d="M 3.544515609741211 1.500001430511475 C 3.456949234008789 1.549473762512207 3.16301155090332 1.762127876281738 2.468324661254883 2.635891437530518 C 1.84779167175293 3.416393756866455 0.9961967468261719 4.603481292724609 -0.4247207641601562 6.67119836807251 C -0.3497810363769531 6.83101749420166 -0.2353935241699219 6.921281337738037 -0.1603431701660156 6.921281337738037 L 30.1684455871582 6.921241283416748 C 30.25610160827637 6.87169361114502 30.55006790161133 6.65891695022583 31.24456596374512 5.785391330718994 C 31.86509895324707 5.004889011383057 32.7166862487793 3.817801475524902 34.13760375976562 1.750084400177002 C 34.06266021728516 1.590265274047852 33.94827651977539 1.500001430511475 33.87323379516602 1.500001430511475 L 3.544515609741211 1.500001430511475 M 3.518955230712891 9.5367431640625e-07 L 33.87323379516602 9.5367431640625e-07 C 34.88924407958984 9.5367431640625e-07 35.71288681030273 0.9425811767578125 35.71288681030273 2.105321407318115 C 32.03358459472656 7.478701591491699 31.20994567871094 8.421281814575195 30.19393539428711 8.421281814575195 L -0.1603431701660156 8.421281814575195 C -1.176364898681641 8.421281814575195 -2.000003814697266 7.478701591491699 -2.000003814697266 6.315961360931396 C 1.679306030273438 0.9425811767578125 2.502944946289062 9.5367431640625e-07 3.518955230712891 9.5367431640625e-07 Z" stroke="none" fill="#111"/>
        </g>
        <g id="Path_105" data-name="Path 105" transform="translate(2661.644 1069)" fill="#fff">
          <path d="M 30.19393539428711 7.671281337738037 L -0.1603446900844574 7.671281337738037 C -0.703022301197052 7.671281337738037 -1.154305100440979 7.175336360931396 -1.236590623855591 6.528680801391602 C 0.3761866986751556 4.176308155059814 1.538796544075012 2.533881187438965 2.322975397109985 1.63646137714386 C 3.097585201263428 0.7500013709068298 3.36136531829834 0.7500013709068298 3.518965244293213 0.7500013709068298 L 33.87323379516602 0.7500013709068298 C 34.41591262817383 0.7500013709068298 34.86720275878906 1.245945811271667 34.94948959350586 1.892601251602173 C 33.33670425415039 4.244973659515381 32.17409515380859 5.887401580810547 31.38991546630859 6.784821510314941 C 30.61531448364258 7.671281337738037 30.35153579711914 7.671281337738037 30.19393539428711 7.671281337738037 Z" stroke="none"/>
          <path d="M 3.544515609741211 1.500001430511475 C 3.456949234008789 1.549473762512207 3.16301155090332 1.762127876281738 2.468324661254883 2.635891437530518 C 1.84779167175293 3.416393756866455 0.9961967468261719 4.603481292724609 -0.4247207641601562 6.67119836807251 C -0.3497810363769531 6.83101749420166 -0.2353935241699219 6.921281337738037 -0.1603431701660156 6.921281337738037 L 30.1684455871582 6.921241283416748 C 30.25610160827637 6.87169361114502 30.55006790161133 6.65891695022583 31.24456596374512 5.785391330718994 C 31.86509895324707 5.004889011383057 32.7166862487793 3.817801475524902 34.13760375976562 1.750084400177002 C 34.06266021728516 1.590265274047852 33.94827651977539 1.500001430511475 33.87323379516602 1.500001430511475 L 3.544515609741211 1.500001430511475 M 3.518955230712891 9.5367431640625e-07 L 33.87323379516602 9.5367431640625e-07 C 34.88924407958984 9.5367431640625e-07 35.71288681030273 0.9425811767578125 35.71288681030273 2.105321407318115 C 32.03358459472656 7.478701591491699 31.20994567871094 8.421281814575195 30.19393539428711 8.421281814575195 L -0.1603431701660156 8.421281814575195 C -1.176364898681641 8.421281814575195 -2.000003814697266 7.478701591491699 -2.000003814697266 6.315961360931396 C 1.679306030273438 0.9425811767578125 2.502944946289062 9.5367431640625e-07 3.518955230712891 9.5367431640625e-07 Z" stroke="none" fill="#111"/>
        </g>
        <g id="Group_125" data-name="Group 125" transform="translate(55 -52)">
          <g id="Group_124" data-name="Group 124">
            <g id="Rectangle_50" data-name="Rectangle 50" transform="translate(2610 1110)" fill="#fff" stroke="#111" stroke-width="1.5">
              <rect width="27" height="10" rx="5" stroke="none"/>
              <rect x="0.75" y="0.75" width="25.5" height="8.5" rx="4.25" fill="none"/>
            </g>
            <line id="Line_26" data-name="Line 26" y2="2.88" transform="matrix(0.848, 0.53, -0.53, 0.848, 2619.938, 1113.5)" fill="none" stroke="#111" stroke-linecap="round" stroke-width="1.5"/>
            <line id="Line_27" data-name="Line 27" y2="2.88" transform="matrix(0.848, 0.53, -0.53, 0.848, 2624.556, 1113.5)" fill="none" stroke="#111" stroke-linecap="round" stroke-width="1.5"/>
            <line id="Line_28" data-name="Line 28" y2="2.88" transform="matrix(0.848, 0.53, -0.53, 0.848, 2629.175, 1113.5)" fill="none" stroke="#111" stroke-linecap="round" stroke-width="1.5"/>
          </g>
        </g>
        <g id="Group_123" data-name="Group 123" transform="translate(55 -56)">
          <g id="Rectangle_51" data-name="Rectangle 51" transform="translate(2610 1135)" fill="#fff" stroke="#111" stroke-width="1.5">
            <rect width="27" height="10" rx="5" stroke="none"/>
            <rect x="0.75" y="0.75" width="25.5" height="8.5" rx="4.25" fill="none"/>
          </g>
          <line id="Line_30" data-name="Line 30" y2="2.88" transform="matrix(0.848, 0.53, -0.53, 0.848, 2619.938, 1138.5)" fill="none" stroke="#111" stroke-linecap="round" stroke-width="1.5"/>
          <line id="Line_31" data-name="Line 31" y2="2.88" transform="matrix(0.848, 0.53, -0.53, 0.848, 2624.556, 1138.5)" fill="none" stroke="#111" stroke-linecap="round" stroke-width="1.5"/>
          <line id="Line_29" data-name="Line 29" y2="2.88" transform="matrix(0.848, 0.53, -0.53, 0.848, 2629.175, 1138.5)" fill="none" stroke="#111" stroke-linecap="round" stroke-width="1.5"/>
        </g>
      </g>
      <g id="Group_166" data-name="Group 166" transform="translate(2497.265 903)">
        <g id="Union_11" data-name="Union 11" transform="matrix(0.788, 0.616, -0.616, 0.788, 95.303, 257)" fill="none">
          <path d="M4.56,33.6H1a1,1,0,0,1-1-1v-10a1,1,0,0,1,1-1H4.6a1.01,1.01,0,0,1,.132.009,28.009,28.009,0,0,1,54.535,0A1.01,1.01,0,0,1,59.4,21.6H63a1,1,0,0,1,1,1v10a1,1,0,0,1-1,1H59.44a28.007,28.007,0,0,1-54.88,0Z" stroke="none"/>
          <path d="M 32.00040054321289 54.49980163574219 C 35.13650894165039 54.49980163574219 38.20526123046875 53.95774078369141 41.12142181396484 52.888671875 C 43.93939971923828 51.8556022644043 46.54690170288086 50.35755920410156 48.8714714050293 48.43619155883789 C 53.54111099243164 44.57649993896484 56.77241897583008 39.20149230957031 57.97016906738281 33.3012809753418 L 58.2140998840332 32.09970092773438 L 59.44018936157227 32.09970092773438 L 62.49990081787109 32.09970092773438 L 62.49990081787109 23.10000038146973 L 59.43232345581055 23.10000038146973 L 58.11605072021484 23.27398109436035 L 57.80683898925781 21.94983100891113 C 57.13236999511719 19.06155014038086 55.98152160644531 16.32368087768555 54.38626098632812 13.81227111816406 C 52.81875228881836 11.34457111358643 50.86669158935547 9.16356086730957 48.58430099487305 7.329830646514893 C 46.28179168701172 5.479920864105225 43.71123886108398 4.038940906524658 40.94406127929688 3.046910762786865 C 38.08084869384766 2.020460844039917 35.07176971435547 1.500000834465027 32.00040054321289 1.500000834465027 C 28.92884063720703 1.500000834465027 25.91958999633789 2.020460844039917 23.05626106262207 3.046920776367188 C 20.28895950317383 4.03895092010498 17.71832084655762 5.479930877685547 15.41574001312256 7.329840660095215 C 13.13330078125 9.163570404052734 11.18120002746582 11.34457111358643 9.613670349121094 13.81228065490723 C 8.018380165100098 16.32367134094238 6.867520332336426 19.0615406036377 6.193050384521484 21.94983100891113 L 5.883840560913086 23.27398109436035 L 4.567566394805908 23.10000038146973 L 1.500000357627869 23.10000038146973 L 1.500000357627869 32.09970092773438 L 4.559710502624512 32.09970092773438 L 5.785800457000732 32.09970092773438 L 6.029730319976807 33.3012809753418 C 7.227480411529541 39.20151138305664 10.4588508605957 44.57651901245117 15.12857055664062 48.43618011474609 C 17.45321083068848 50.35755920410156 20.06080055236816 51.8555908203125 22.8789005279541 52.888671875 C 25.79518127441406 53.95774078369141 28.86409950256348 54.49980163574219 32.00040054321289 54.49980163574219 M 32.00040054321289 55.99980163574219 C 18.45368957519531 55.99980163574219 7.154140472412109 46.38002014160156 4.559710502624512 33.59970092773438 L 0.9999004006385803 33.59970092773438 C 0.4473004043102264 33.59970092773438 4.089355343239731e-07 33.15240097045898 4.089355343239731e-07 32.59980010986328 L 4.089355343239731e-07 22.59990119934082 C 4.089355343239731e-07 22.04730033874512 0.4473004043102264 21.60000038146973 0.9999004006385803 21.60000038146973 L 4.599900245666504 21.60000038146973 C 4.644830226898193 21.60000038146973 4.689000606536865 21.60300064086914 4.73235034942627 21.60873031616211 C 7.624180316925049 9.225040435791016 18.73496055603027 8.178710686479462e-07 32.00040054321289 8.178710686479462e-07 C 45.26506042480469 8.178710686479462e-07 56.37572860717773 9.225040435791016 59.26753997802734 21.60873031616211 C 59.31089019775391 21.60300064086914 59.35507965087891 21.60000038146973 59.40000152587891 21.60000038146973 L 63 21.60000038146973 C 63.5526008605957 21.60000038146973 63.99990081787109 22.04730033874512 63.99990081787109 22.59990119934082 L 63.99990081787109 32.59980010986328 C 63.99990081787109 33.15240097045898 63.5526008605957 33.59970092773438 63 33.59970092773438 L 59.44018936157227 33.59970092773438 C 56.84577178955078 46.38002014160156 45.54632949829102 55.99980163574219 32.00040054321289 55.99980163574219 Z" stroke="none" fill="#111"/>
        </g>
        <g id="Ellipse_35" data-name="Ellipse 35" transform="matrix(0.788, 0.616, -0.616, 0.788, 98.972, 263.674)" fill="none" stroke="#111" stroke-width="1.5">
          <circle cx="25" cy="25" r="25" stroke="none"/>
          <circle cx="25" cy="25" r="24.25" fill="none"/>
        </g>
        <g id="Union_9" data-name="Union 9" transform="matrix(0.788, 0.616, -0.616, 0.788, 89.74, 282.104)" fill="#fff">
          <path d="M 5.80019998550415 8.835000038146973 L 4.792500019073486 8.835000038146973 C 2.563459873199463 8.835000038146973 0.7499999403953552 7.02154016494751 0.7499999403953552 4.792500019073486 C 0.7499999403953552 2.563460111618042 2.563459873199463 0.75 4.792500019073486 0.75 L 5.80019998550415 0.75 L 5.80019998550415 1.597499966621399 L 5.80019998550415 2.347500085830688 L 6.55019998550415 2.347500085830688 L 12.19019985198975 2.347500085830688 L 12.19019985198975 7.237500190734863 L 6.55019998550415 7.237500190734863 L 5.80019998550415 7.237500190734863 L 5.80019998550415 7.987500190734863 L 5.80019998550415 8.835000038146973 Z" stroke="none"/>
          <path d="M 5.05019998550415 8.085000038146973 L 5.05019998550415 7.987500190734863 L 5.05019998550415 6.487500190734863 L 6.55019998550415 6.487500190734863 L 11.44019985198975 6.487500190734863 L 11.44019985198975 3.097500085830688 L 6.55019998550415 3.097500085830688 L 5.05019998550415 3.097500085830688 L 5.05019998550415 1.597499966621399 L 5.05019998550415 1.5 L 4.792500019073486 1.5 C 2.977010011672974 1.5 1.49999988079071 2.977010011672974 1.49999988079071 4.792500019073486 C 1.49999988079071 6.60798978805542 2.977010011672974 8.085000038146973 4.792500019073486 8.085000038146973 L 5.05019998550415 8.085000038146973 M 6.55019998550415 9.585000038146973 L 6.549299716949463 9.585000038146973 L 4.792500019073486 9.585000038146973 C 2.150099992752075 9.585000038146973 -7.400512913591228e-08 7.434899806976318 -7.400512913591228e-08 4.792500019073486 C -7.400512913591228e-08 2.150099992752075 2.150099992752075 1.907348590179936e-08 4.792500019073486 1.907348590179936e-08 L 6.55019998550415 1.907348590179936e-08 L 6.55019998550415 1.597499966621399 L 12.94019985198975 1.597499966621399 L 12.94019985198975 7.987500190734863 L 6.55019998550415 7.987500190734863 L 6.55019998550415 9.584099769592285 L 6.55019998550415 9.585000038146973 Z" stroke="none" fill="#111"/>
        </g>
        <g id="Ellipse_37" data-name="Ellipse 37" transform="matrix(0.788, 0.616, -0.616, 0.788, 98.455, 259.463)" fill="none" stroke="#111" stroke-width="1.5">
          <circle cx="28" cy="28" r="28" stroke="none"/>
          <circle cx="28" cy="28" r="27.25" fill="none"/>
        </g>
        <g id="Union_10" data-name="Union 10" transform="matrix(0.788, 0.616, -0.616, 0.788, 83.485, 291.408)" fill="#fff">
          <path d="M 5.80019998550415 8.835000038146973 L 4.792500019073486 8.835000038146973 C 2.563459873199463 8.835000038146973 0.75 7.02154016494751 0.75 4.792500019073486 C 0.75 2.563460111618042 2.563459873199463 0.75 4.792500019073486 0.75 L 5.80019998550415 0.75 L 5.80019998550415 1.597499966621399 L 5.80019998550415 2.347500085830688 L 6.55019998550415 2.347500085830688 L 9.793499946594238 2.347500085830688 L 9.793499946594238 7.237500190734863 L 6.55019998550415 7.237500190734863 L 5.80019998550415 7.237500190734863 L 5.80019998550415 7.987500190734863 L 5.80019998550415 8.835000038146973 Z" stroke="none"/>
          <path d="M 5.05019998550415 8.085000038146973 L 5.05019998550415 7.987500190734863 L 5.05019998550415 6.487500190734863 L 6.55019998550415 6.487500190734863 L 9.043499946594238 6.487500190734863 L 9.043499946594238 3.097500085830688 L 6.55019998550415 3.097500085830688 L 5.05019998550415 3.097500085830688 L 5.05019998550415 1.597499966621399 L 5.05019998550415 1.5 L 4.792500019073486 1.5 C 2.977010011672974 1.5 1.5 2.977010011672974 1.5 4.792500019073486 C 1.5 6.60798978805542 2.977010011672974 8.085000038146973 4.792500019073486 8.085000038146973 L 5.05019998550415 8.085000038146973 M 6.55019998550415 9.585000038146973 L 6.549300193786621 9.585000038146973 L 4.792500019073486 9.585000038146973 C 2.150099992752075 9.585000038146973 -2.670288168360457e-08 7.434899806976318 -2.670288168360457e-08 4.792500019073486 C -2.670288168360457e-08 2.150099992752075 2.150099992752075 1.907348590179936e-08 4.792500019073486 1.907348590179936e-08 L 6.55019998550415 1.907348590179936e-08 L 6.55019998550415 1.597499966621399 L 10.54349994659424 1.597499966621399 L 10.54349994659424 7.987500190734863 L 6.55019998550415 7.987500190734863 L 6.55019998550415 9.584099769592285 L 6.55019998550415 9.585000038146973 Z" stroke="none" fill="#111"/>
        </g>
        <g id="Ellipse_33" data-name="Ellipse 33" transform="matrix(0.788, 0.616, -0.616, 0.788, 111.999, 282.734)" fill="#fff" stroke="#111" stroke-width="1.5">
          <ellipse cx="5.5" cy="6" rx="5.5" ry="6" stroke="none"/>
          <ellipse cx="5.5" cy="6" rx="4.75" ry="5.25" fill="none"/>
        </g>
        <g id="Ellipse_34" data-name="Ellipse 34" transform="matrix(0.788, 0.616, -0.616, 0.788, 113.648, 290.368)" fill="#fff" stroke="#111" stroke-width="1.5">
          <circle cx="5.5" cy="5.5" r="5.5" stroke="none"/>
          <circle cx="5.5" cy="5.5" r="4.75" fill="none"/>
        </g>
        <g id="Group_129" data-name="Group 129" transform="matrix(0.788, 0.616, -0.616, 0.788, 116.971, 285.134)">
          <g id="Ellipse_28" data-name="Ellipse 28" transform="translate(-0.396 0.17)" fill="#fff" stroke="#111" stroke-width="1.5">
            <ellipse cx="6" cy="5.5" rx="6" ry="5.5" stroke="none"/>
            <ellipse cx="6" cy="5.5" rx="5.25" ry="4.75" fill="none"/>
          </g>
          <g id="Group_127" data-name="Group 127" transform="translate(3.195 3.195)">
            <line id="Line_32" data-name="Line 32" y1="2" x2="1" transform="translate(0.409 -0.025)" fill="none" stroke="#111" stroke-width="1.5"/>
            <line id="Line_33" data-name="Line 33" y1="2" x2="1" transform="translate(3.409 2.975)" fill="none" stroke="#111" stroke-width="1.5"/>
            <line id="Line_34" data-name="Line 34" y1="1.598" x2="1.598" transform="translate(1.598 3.195) rotate(90)" fill="none" stroke="#111" stroke-width="1.5"/>
            <line id="Line_35" data-name="Line 35" y1="1.598" x2="1.598" transform="translate(4.793) rotate(90)" fill="none" stroke="#111" stroke-width="1.5"/>
          </g>
        </g>
        <g id="Group_131" data-name="Group 131" transform="matrix(0.788, 0.616, -0.616, 0.788, 100.547, 267.234)">
          <line id="Line_36" data-name="Line 36" x2="4" y2="13" transform="translate(13.566 0.164)" fill="none" stroke="#111" stroke-width="1.5"/>
          <line id="Line_37" data-name="Line 37" x2="10" y2="10" transform="translate(5.566 5.164)" fill="none" stroke="#111" stroke-width="1.5"/>
          <line id="Line_38" data-name="Line 38" x2="14" y2="4" transform="translate(-0.434 13.164)" fill="none" stroke="#111" stroke-width="1.5"/>
        </g>
        <line id="Line_36-2" data-name="Line 36" x1="15.176" y2="4.793" transform="matrix(0.788, 0.616, -0.616, 0.788, 112.24, 302.218)" fill="none" stroke="#111" stroke-width="1.5"/>
        <line id="Line_37-2" data-name="Line 37" x1="12.633" y1="2.744" transform="matrix(0.788, 0.616, -0.616, 0.788, 107.952, 309.004)" fill="none" stroke="#111" stroke-width="1.5"/>
        <line id="Line_38-2" data-name="Line 38" x1="8.786" y1="8.786" transform="matrix(0.788, 0.616, -0.616, 0.788, 105.218, 309.909)" fill="none" stroke="#111" stroke-width="1.5"/>
        <g id="Group_132" data-name="Group 132" transform="matrix(0.788, 0.616, -0.616, 0.788, 93.532, 296.251)">
          <g id="Path_106" data-name="Path 106" transform="translate(5.364 1.188) rotate(22)" fill="none">
            <path d="M.8.741,4.493,0a.8.8,0,0,1,.8.8V12.78a.8.8,0,0,1-.8.8L.8,14.32a.8.8,0,0,1-.8-.8V1.539A.8.8,0,0,1,.8.741Z" stroke="none"/>
            <path d="M 3.792118072509766 1.670406341552734 L 1.499998092651367 2.12987232208252 L 1.499998092651367 12.64915657043457 L 3.792118072509766 12.18969058990479 L 3.792118072509766 1.670406341552734 M 4.493358135223389 1.9073486328125e-06 C 4.934497833251953 1.9073486328125e-06 5.292118072509766 0.3576211929321289 5.292118072509766 0.7987613677978516 L 5.292118072509766 12.78020095825195 C 5.292118072509766 13.22134113311768 4.934497833251953 13.57896137237549 4.493358135223389 13.57896137237549 L 0.7987580299377441 14.31956100463867 C 0.3576178550720215 14.31956100463867 -1.9073486328125e-06 13.96194171905518 -1.9073486328125e-06 13.52080154418945 L -1.9073486328125e-06 1.539361000061035 C -1.9073486328125e-06 1.098221778869629 0.3576178550720215 0.7406015396118164 0.7987580299377441 0.7406015396118164 L 4.493358135223389 1.9073486328125e-06 Z" stroke="none" fill="#111"/>
          </g>
          <g id="Path_107" data-name="Path 107" transform="translate(10.434 0.502) rotate(22)" fill="none">
            <path d="M.8,1.481,4.194,0a.8.8,0,0,1,.8.8V12.78a.8.8,0,0,1-.8.8L.8,15.06a.8.8,0,0,1-.8-.8V2.28A.8.8,0,0,1,.8,1.481Z" stroke="none"/>
            <path d="M 3.492897272109985 1.942426681518555 L 1.49999737739563 2.811814308166504 L 1.49999737739563 13.11773586273193 L 3.492897272109985 12.24834823608398 L 3.492897272109985 1.942426681518555 M 4.194127082824707 9.5367431640625e-07 C 4.635277271270752 9.5367431640625e-07 4.992897510528564 0.3576211929321289 4.992897510528564 0.7987613677978516 L 4.992897510528564 12.78020095825195 C 4.992897510528564 13.22134113311768 4.635277271270752 13.57896137237549 4.194127082824707 13.57896137237549 L 0.79876708984375 15.06016159057617 C 0.3576173782348633 15.06016159057617 -2.86102294921875e-06 14.70254135131836 -2.86102294921875e-06 14.26140117645264 L -2.86102294921875e-06 2.279961585998535 C -2.86102294921875e-06 1.838821411132812 0.3576173782348633 1.481201171875 0.79876708984375 1.481201171875 L 4.194127082824707 9.5367431640625e-07 Z" stroke="none" fill="#111"/>
          </g>
          <g id="Path_108" data-name="Path 108" transform="translate(9.585 2.372) rotate(-22)" fill="none">
            <path d="M.8,13.579l4.734.3a.8.8,0,0,0,.8-.8V1.1a.8.8,0,0,0-.8-.8L.8,0A.8.8,0,0,0,0,.8V12.78A.8.8,0,0,0,.8,13.579Z" stroke="none"/>
            <path d="M 4.831957340240479 12.33092880249023 L 4.831957340240479 1.757899761199951 L 1.499997496604919 1.547309517860413 L 1.499997496604919 12.12033939361572 L 4.831957340240479 12.33092880249023 M 5.533187389373779 13.87823963165283 L 0.7987675070762634 13.57900905609131 C 0.3576174676418304 13.57900905609131 -2.521972646718496e-06 13.22138977050781 -2.521972646718496e-06 12.78024959564209 L -2.521972646718496e-06 0.7987693548202515 C -2.521972646718496e-06 0.3576193451881409 0.3576174676418304 -6.610107448068447e-07 0.7987675070762634 -6.610107448068447e-07 L 5.533187389373779 0.2992293536663055 C 5.974337577819824 0.2992293536663055 6.331957340240479 0.6568493247032166 6.331957340240479 1.097989320755005 L 6.331957340240479 13.07946968078613 C 6.331957340240479 13.52061939239502 5.974337577819824 13.87823963165283 5.533187389373779 13.87823963165283 Z" stroke="none" fill="#111"/>
          </g>
        </g>
        <g id="Group_128" data-name="Group 128" transform="matrix(0.788, 0.616, -0.616, 0.788, 102.475, 282.931)">
          <g id="Union_8" data-name="Union 8" transform="translate(0.384 -0.019)" fill="#fff">
            <path d="M 14.13424015045166 22.25 C 12.19997978210449 22.25 10.35881042480469 21.33811950683594 9.209110260009766 19.81071090698242 L 8.880680084228516 19.3743896484375 L 8.36460018157959 19.55299949645996 C 7.755070209503174 19.76395034790039 7.114799976348877 19.87091064453125 6.461589813232422 19.87091064453125 C 3.312210083007812 19.87091064453125 0.75 17.36103057861328 0.75 14.27595996856689 C 0.75 12.89239978790283 1.269659996032715 11.56437015533447 2.213249921798706 10.53649044036865 L 2.440670013427734 10.2887601852417 L 2.406980037689209 9.954170227050781 C 2.379270076751709 9.678970336914062 2.365220069885254 9.398619651794434 2.365220069885254 9.120909690856934 C 2.365220069885254 4.505169868469238 6.195610046386719 0.75 10.90380001068115 0.75 C 15.61198997497559 0.75 19.44239044189453 4.505169868469238 19.44239044189453 9.120909690856934 C 19.44239044189453 10.09967041015625 19.27181053161621 11.05809020996094 18.93538093566895 11.96955966949463 L 18.79286956787109 12.35564041137695 L 19.0419807434082 12.68323993682861 C 19.8322696685791 13.72249984741211 20.25 14.95895004272461 20.25 16.25889015197754 C 20.25 19.56240081787109 17.50647926330566 22.25 14.13424015045166 22.25 Z" stroke="none"/>
            <path d="M 14.13424015045166 21.5 C 17.09292984008789 21.5 19.5 19.14884948730469 19.5 16.25889015197754 C 19.5 15.12430953979492 19.13517951965332 14.04485034942627 18.44498062133789 13.13720989227295 L 17.9467601776123 12.48202991485596 L 18.23177909851074 11.7098503112793 C 18.53742027282715 10.88179969787598 18.69239044189453 10.01076030731201 18.69239044189453 9.120909690856934 C 18.69239044189453 4.918729782104492 15.1984395980835 1.5 10.90380001068115 1.5 C 6.60915994644165 1.5 3.115220069885254 4.918729782104492 3.115220069885254 9.120909690856934 C 3.115220069885254 9.373629570007324 3.128000020980835 9.628700256347656 3.153199911117554 9.879039764404297 L 3.220580101013184 10.54823017120361 L 2.765749931335449 11.0436897277832 C 1.949519991874695 11.93282032012939 1.5 13.08073043823242 1.5 14.27595996856689 C 1.5 16.94746971130371 3.725759983062744 19.12091064453125 6.461589813232422 19.12091064453125 C 7.031119823455811 19.12091064453125 7.588860034942627 19.02783012390137 8.11931037902832 18.84424018859863 L 9.151470184326172 18.48702049255371 L 9.808329582214355 19.35967063903809 C 10.81711959838867 20.69988059997559 12.43428039550781 21.5 14.13424015045166 21.5 M 14.13424015045166 23 C 11.86907958984375 23 9.860219955444336 21.92284965515137 8.609889984130859 20.26174926757812 C 7.937749862670898 20.49436950683594 7.214749813079834 20.62091064453125 6.461589813232422 20.62091064453125 C 2.893140077590942 20.62091064453125 0 17.78000068664551 0 14.27595996856689 C 0 12.64284992218018 0.6284000277519226 11.15386009216309 1.660750031471252 10.02929973602295 C 1.630669951438904 9.73054027557373 1.615219950675964 9.42743968963623 1.615219950675964 9.120909690856934 C 1.615219950675964 4.083640098571777 5.773930072784424 -1.77635683940025e-15 10.90380001068115 -1.77635683940025e-15 C 16.0336799621582 -1.77635683940025e-15 20.19239044189453 4.083640098571777 20.19239044189453 9.120909690856934 C 20.19239044189453 10.21236038208008 19.99703979492188 11.25918960571289 19.63898086547852 12.22926044464111 C 20.49381065368652 13.35340023040771 21 14.74816989898682 21 16.25889015197754 C 21 19.98205947875977 17.92584991455078 23 14.13424015045166 23 Z" stroke="none" fill="#111"/>
          </g>
          <g id="Ellipse_32" data-name="Ellipse 32" transform="translate(6.384 7.981)" fill="#fff" stroke="#111" stroke-width="1.5">
            <circle cx="4" cy="4" r="4" stroke="none"/>
            <circle cx="4" cy="4" r="3.25" fill="none"/>
          </g>
        </g>
        <line id="Line_39" data-name="Line 39" x2="2" y2="3" transform="matrix(0.788, 0.616, -0.616, 0.788, 122.218, 302.14)" fill="none" stroke="#111" stroke-width="2"/>
        <line id="Line_40" data-name="Line 40" x1="3" y2="3" transform="matrix(0.788, 0.616, -0.616, 0.788, 117.391, 303.445)" fill="none" stroke="#111" stroke-width="2"/>
        <g id="Rectangle_69" data-name="Rectangle 69" transform="matrix(0.788, 0.616, -0.616, 0.788, 82.004, 274.021)" fill="none" stroke="#111" stroke-width="1.5">
          <rect width="5.6" height="12" rx="1" stroke="none"/>
          <rect x="0.75" y="0.75" width="4.1" height="10.5" rx="0.25" fill="none"/>
        </g>
      </g>
    </g>
  </g>
</svg>
