<svg xmlns="http://www.w3.org/2000/svg" width="78.536" height="70.824" viewBox="0 0 78.536 70.824">
  <g id="Group_412" data-name="Group 412" transform="translate(-1596.237 993.752)">
    <path id="Path_40" data-name="Path 40" d="M-1428.944,2273.741c-21.49-3.826-30.2-38.114-17.365-54.9s46.027-15.705,61.369-2.552,10.095,47.829,0,53.806C-1397.329,2277.437-1416.8,2275.9-1428.944,2273.741Z" transform="translate(3049.301 -3199.337)" fill="#fff" stroke="#111" stroke-width="1.5"/>
    <g id="Group_101" data-name="Group 101" transform="translate(1610.027 -981)">
      <g id="Group_100" data-name="Group 100" transform="translate(0)">
        <g id="Group_98" data-name="Group 98" transform="translate(0)">
          <path id="Path_54" data-name="Path 54" d="M2646.142,1232.352c-.03.4-4.465,7.22-20.674,9.13s-21.736-8.539-21.733-9.13,2.3-9.218,19.032-9.584S2646.172,1231.95,2646.142,1232.352Z" transform="translate(-2595.195 -1222.758)" fill="none" stroke="#111" stroke-width="1.5"/>
          <ellipse id="Ellipse_6" data-name="Ellipse 6" cx="0.642" cy="0.612" rx="0.642" ry="0.612" transform="translate(44.528 7.759)" fill="#111"/>
          <path id="Path_55" data-name="Path 55" d="M2649.454,1225.833a14.74,14.74,0,0,0-2.317,7.094c0,3.634,2.317,7.442,2.317,7.442" transform="translate(-2609.475 -1223.864)" fill="none" stroke="#111" stroke-width="1.5"/>
          <path id="Path_56" data-name="Path 56" d="M2601.243,1229.384a12.335,12.335,0,0,0-4.236-4.325,10.432,10.432,0,0,0-5.989-1.02,9.49,9.49,0,0,0,2.393,5.707c2.108,2.155,6.028,2.748,6.038,2.911s-3.724.439-5.832,2.548a10.556,10.556,0,0,0-2.6,5.887,11.711,11.711,0,0,0,5.989-.989,10.119,10.119,0,0,0,4.069-4.436" transform="translate(-2591.008 -1223.179)" fill="none" stroke="#111" stroke-width="1.5"/>
          <path id="Path_57" data-name="Path 57" d="M2630.318,1230.246c.131.257-1.007,2.062-1.007,3.913s1.077,3.152,1.007,3.493-6.6,2.531-6.837,2.434-1.161-3.074-1.092-6.129a14.611,14.611,0,0,1,1.37-6.091A40.7,40.7,0,0,1,2630.318,1230.246Z" transform="translate(-2601.331 -1224.594)" fill="none" stroke="#111" stroke-width="1.5"/>
        </g>
        <line id="Line_6" data-name="Line 6" x1="4.026" y1="0.64" transform="translate(23.815 7.517)" fill="none" stroke="#111" stroke-linecap="round" stroke-width="1.5"/>
        <line id="Line_7" data-name="Line 7" x1="4.026" y2="0.64" transform="translate(23.815 10.718)" fill="none" stroke="#111" stroke-linecap="round" stroke-width="1.5"/>
      </g>
      <g id="Group_99" data-name="Group 99" transform="translate(8.293 17.438)">
        <path id="Path_58" data-name="Path 58" d="M2622.545,1186.2c.3-.393,23.136,0,23.136,0a11.143,11.143,0,0,1,8.639,4.481c3.527,4.658,3.138,11.344.6,14.2s-5.578,4.385-7.028,4.517-15.077.489-15.657,0-1.985-1.3-1.985-2.581a3.244,3.244,0,0,1,1.985-2.563c.519-.1,11.882-.528,13.448-.836a2.859,2.859,0,0,0,2.209-3.346c-.141-1.688-1.971-2.253-3.213-2.4s-10.621.1-12.158,0a11.953,11.953,0,0,1-7.451-3.986C2622.574,1190.82,2622.242,1186.594,2622.545,1186.2Z" transform="translate(-2616.455 -1180.418)" fill="none" stroke="#111" stroke-width="1.5"/>
        <path id="Path_59" data-name="Path 59" d="M3.052-.021a4.748,4.748,0,0,1-.944,2.108A21.454,21.454,0,0,1,.531,3.76" transform="translate(18.235 13.31)" fill="none" stroke="#111" stroke-linecap="round" stroke-width="1.5"/>
        <path id="Path_65" data-name="Path 65" d="M-3.239,1.895s-.432,2.623.583,4.152,3.438,1.8,3.438,1.8" transform="translate(5.259 -1.895)" fill="none" stroke="#111" stroke-linecap="round" stroke-width="1.5"/>
        <path id="Path_66" data-name="Path 66" d="M-2.834,1.871s.392,2.253,1.92,3.043,4.19.114,4.19.114" transform="translate(2.834 3.99)" fill="none" stroke="#111" stroke-linecap="round" stroke-width="1.5"/>
        <path id="Path_60" data-name="Path 60" d="M6.074-.754s.045,3.777-1.73,6.123A28.6,28.6,0,0,1,.531,9.445" transform="translate(27.27 7.626)" fill="none" stroke="#111" stroke-linecap="round" stroke-width="1.5"/>
        <path id="Path_61" data-name="Path 61" d="M9.128,8.817a12.327,12.327,0,0,1-4.093,2.417,13.417,13.417,0,0,1-4.583.413" transform="translate(31.139 8.762)" fill="none" stroke="#111" stroke-linecap="round" stroke-width="1.5"/>
        <path id="Path_62" data-name="Path 62" d="M6.107.085a12.085,12.085,0,0,1-3.244,1.94,5.743,5.743,0,0,1-2.833.021" transform="translate(31.053 22.603) rotate(68)" fill="none" stroke="#111" stroke-linecap="round" stroke-width="1.5"/>
        <path id="Path_63" data-name="Path 63" d="M5.575.078a6.029,6.029,0,0,1-2.864.89A6.8,6.8,0,0,1,0,.1" transform="translate(21.162 23.735) rotate(68)" fill="none" stroke="#111" stroke-linecap="round" stroke-width="1.5"/>
        <path id="Path_64" data-name="Path 64" d="M2598.308,1227.819a8.793,8.793,0,0,0-3.021-3.084,7.438,7.438,0,0,0-4.272-.727,6.769,6.769,0,0,0,1.707,4.071c1.5,1.537,4.3,1.96,4.307,2.076s-2.656.313-4.16,1.817a7.533,7.533,0,0,0-1.854,4.2,8.35,8.35,0,0,0,4.272-.7,10.055,10.055,0,0,0,3.284-2.936" transform="translate(-2583.215 -1203.552)" fill="none" stroke="#111" stroke-width="1.5"/>
        <ellipse id="Ellipse_7" data-name="Ellipse 7" cx="0.642" cy="0.725" rx="0.642" ry="0.725" transform="translate(11.844 8.693)" fill="#111"/>
      </g>
    </g>
  </g>
</svg>
